<?xml version="1.0" encoding="utf-8"?>
<svg version="1.1" xmlns:xlink="http://www.w3.org/1999/xlink" width="14px" height="11px" xmlns="http://www.w3.org/2000/svg">
  <g transform="matrix(1 0 0 1 -8 -10 )">
    <path d="M 13.747096774193547 1.518518518518519  C 13.915698924731181 1.6913580246913575  14.000000000000004 1.9012345679012341  14 2.148148148148149  C 14.000000000000004 2.39506172839506  13.915698924731181 2.6049382716049383  13.747096774193547 2.777777777777777  L 7.207741935483872 9.481481481481481  L 5.979354838709678 10.74074074074074  C 5.810752688172045 10.913580246913579  5.606021505376345 11  5.3651612903225825 11  C 5.124301075268818 11  4.919569892473119 10.913580246913579  4.750967741935483 10.74074074074074  L 3.5225806451612907 9.481481481481481  L 0.25290322580645164 6.129629629629629  C 0.08430107526881692 5.9567901234567895  0 5.746913580246913  0 5.5  C 0 5.253086419753085  0.08430107526881692 5.043209876543209  0.25290322580645164 4.87037037037037  L 1.4812903225806444 3.6111111111111107  C 1.64989247311828 3.438271604938272  1.8546236559139793 3.351851851851851  2.095483870967742 3.351851851851851  C 2.336344086021505 3.351851851851851  2.5410752688172042 3.438271604938272  2.709677419354838 3.6111111111111107  L 5.3651612903225825 6.342592592592592  L 11.29032258064516 0.2592592592592595  C 11.458924731182798 0.08641975308641925  11.663655913978495 0  11.904516129032256 0  C 12.145376344086024 0  12.350107526881722 0.08641975308641925  12.518709677419356 0.2592592592592595  L 13.747096774193547 1.518518518518519  Z " fill-rule="nonzero" fill="#333333" stroke="none" transform="matrix(1 0 0 1 8 10 )" />
  </g>
</svg>