<?xml version="1.0" encoding="utf-8"?>
<svg version="1.1" xmlns:xlink="http://www.w3.org/1999/xlink" width="7px" height="13px" xmlns="http://www.w3.org/2000/svg">
  <g transform="matrix(1 0 0 1 -12 -9 )">
    <path d="M 6.87972508591065 6.200400801603209  C 6.959908361970221 6.287241148964593  7 6.387107548430194  7 6.5  C 7 6.612892451569805  6.959908361970221 6.712758851035401  6.87972508591065 6.799599198396792  L 1.274914089347078 12.869739478957914  C 1.1947308132875136 12.95657982631931  1.1025200458190145 13  0.9982817869415808 13  C 0.8940435280641452 13  0.8018327605956479 12.95657982631931  0.7216494845360835 12.869739478957914  L 0.12027491408934665 12.218436873747496  C 0.04009163802978222 12.131596526386105  0 12.031730126920507  0 11.918837675350701  C 0 11.805945223780896  0.04009163802978222 11.706078824315298  0.12027491408934665 11.619238476953903  L 4.847079037800688 6.5  L 0.12027491408934665 1.380761523046095  C 0.04009163802978222 1.2939211756847016  0 1.1940547762191063  0 1.0811623246492985  C 0 0.9682698730794924  0.04009163802978222 0.8684034736138918  0.12027491408934665 0.7815631262525029  L 0.7216494845360835 0.13026052104208574  C 0.8018327605956479 0.0434201736806914  0.8940435280641452 0  0.9982817869415808 0  C 1.1025200458190145 0  1.1947308132875136 0.0434201736806914  1.274914089347078 0.13026052104208574  L 6.87972508591065 6.200400801603209  Z " fill-rule="nonzero" fill="#333333" stroke="none" transform="matrix(1 0 0 1 12 9 )" />
  </g>
</svg>