<?xml version="1.0" encoding="utf-8"?>
<svg version="1.1" xmlns:xlink="http://www.w3.org/1999/xlink" width="14px" height="8px" xmlns="http://www.w3.org/2000/svg">
  <g transform="matrix(1 0 0 1 -8 -11 )">
    <path d="M 13.859719438877754 0.8247422680412377  C 13.953239812959254 0.9163802978235935  14 1.0217640320733103  14 1.1408934707903775  C 14 1.2600229095074447  13.953239812959254 1.365406643757158  13.859719438877754 1.4570446735395173  L 7.322645290581162 7.862542955326461  C 7.229124916499666 7.95418098510882  7.121576486305946 8  7 8  C 6.878423513694056 8  6.770875083500336 7.95418098510882  6.6773547094188395 7.862542955326461  L 0.1402805611222444 1.4570446735395173  C 0.04676018704074636 1.365406643757158  0 1.2600229095074447  0 1.1408934707903775  C 0 1.0217640320733103  0.04676018704074636 0.9163802978235935  0.1402805611222444 0.8247422680412377  L 0.8416833667334664 0.13745704467353903  C 0.9352037408149636 0.04581901489117968  1.0427521710086864 0  1.164328657314627 0  C 1.2859051436205746 0  1.3934535738142948 0.04581901489117968  1.486973947895791 0.13745704467353903  L 7 5.5395189003436425  L 12.513026052104209 0.13745704467353903  C 12.606546426185702 0.04581901489117968  12.714094856379425 0  12.835671342685373 0  C 12.957247828991314 0  13.064796259185037 0.04581901489117968  13.15831663326653 0.13745704467353903  L 13.859719438877754 0.8247422680412377  Z " fill-rule="nonzero" fill="#333333" stroke="none" transform="matrix(1 0 0 1 8 11 )" />
  </g>
</svg>