<?xml version="1.0" encoding="utf-8"?>
<svg version="1.1" xmlns:xlink="http://www.w3.org/1999/xlink" width="16px" height="20px" xmlns="http://www.w3.org/2000/svg">
  <g transform="matrix(1 0 0 1 -991 -55 )">
    <path d="M 5.715909090909091 16.549479166666668  C 5.784090909090909 16.471354166666668  5.818181818181818 16.37152777777778  5.818181818181818 16.25  L 5.818181818181818 7.083333333333332  C 5.818181818181818 6.961805555555555  5.784090909090909 6.861979166666668  5.715909090909091 6.783854166666668  C 5.6477272727272725 6.705729166666668  5.560606060606061 6.666666666666668  5.454545454545454 6.666666666666668  L 4.7272727272727275 6.666666666666668  C 4.621212121212122 6.666666666666668  4.53409090909091 6.705729166666668  4.465909090909091 6.783854166666668  C 4.3977272727272725 6.861979166666668  4.363636363636363 6.961805555555555  4.363636363636363 7.083333333333332  L 4.363636363636363 16.25  C 4.363636363636363 16.37152777777778  4.3977272727272725 16.471354166666668  4.465909090909091 16.549479166666668  C 4.53409090909091 16.627604166666668  4.621212121212122 16.666666666666668  4.7272727272727275 16.666666666666668  L 5.454545454545454 16.666666666666668  C 5.560606060606061 16.666666666666668  5.6477272727272725 16.627604166666668  5.715909090909091 16.549479166666668  Z M 8.625 16.549479166666668  C 8.693181818181818 16.471354166666668  8.727272727272727 16.37152777777778  8.727272727272727 16.25  L 8.727272727272727 7.083333333333332  C 8.727272727272727 6.961805555555555  8.693181818181818 6.861979166666668  8.625 6.783854166666668  C 8.556818181818182 6.705729166666668  8.46969696969697 6.666666666666668  8.363636363636363 6.666666666666668  L 7.636363636363637 6.666666666666668  C 7.530303030303031 6.666666666666668  7.443181818181818 6.705729166666668  7.375 6.783854166666668  C 7.306818181818182 6.861979166666668  7.2727272727272725 6.961805555555555  7.2727272727272725 7.083333333333332  L 7.2727272727272725 16.25  C 7.2727272727272725 16.37152777777778  7.306818181818182 16.471354166666668  7.375 16.549479166666668  C 7.443181818181818 16.627604166666668  7.530303030303031 16.666666666666668  7.636363636363637 16.666666666666668  L 8.363636363636363 16.666666666666668  C 8.46969696969697 16.666666666666668  8.556818181818182 16.627604166666668  8.625 16.549479166666668  Z M 11.534090909090908 16.549479166666668  C 11.602272727272727 16.471354166666668  11.636363636363637 16.37152777777778  11.636363636363637 16.25  L 11.636363636363637 7.083333333333332  C 11.636363636363637 6.961805555555555  11.602272727272727 6.861979166666668  11.534090909090908 6.783854166666668  C 11.465909090909092 6.705729166666668  11.378787878787879 6.666666666666668  11.272727272727273 6.666666666666668  L 10.545454545454545 6.666666666666668  C 10.43939393939394 6.666666666666668  10.352272727272727 6.705729166666668  10.284090909090908 6.783854166666668  C 10.215909090909092 6.861979166666668  10.181818181818182 6.961805555555555  10.181818181818182 7.083333333333332  L 10.181818181818182 16.25  C 10.181818181818182 16.37152777777778  10.215909090909092 16.471354166666668  10.284090909090908 16.549479166666668  C 10.352272727272727 16.627604166666668  10.43939393939394 16.666666666666668  10.545454545454545 16.666666666666668  L 11.272727272727273 16.666666666666668  C 11.378787878787879 16.666666666666668  11.465909090909092 16.627604166666668  11.534090909090908 16.549479166666668  Z M 6.011363636363637 1.8098958333333326  L 5.454545454545454 3.3333333333333326  L 10.545454545454545 3.3333333333333326  L 10 1.8098958333333326  C 9.946969696969699 1.7317708333333326  9.882575757575758 1.6840277777777768  9.806818181818182 1.6666666666666674  L 6.204545454545454 1.6666666666666674  C 6.128787878787879 1.6840277777777768  6.06439393939394 1.7317708333333326  6.011363636363637 1.8098958333333326  Z M 15.897727272727273 3.4505208333333326  C 15.965909090909092 3.5286458333333326  16 3.628472222222221  16 3.75  L 16 4.583333333333332  C 16 4.704861111111109  15.965909090909092 4.8046875  15.897727272727273 4.8828125  C 15.829545454545455 4.9609375  15.742424242424244 5  15.636363636363637 5  L 14.545454545454545 5  L 14.545454545454545 17.34375  C 14.545454545454545 18.06423611111111  14.367424242424244 18.68706597222222  14.011363636363637 19.212239583333332  C 13.655303030303031 19.737413194444443  13.227272727272727 20  12.727272727272727 20  L 3.272727272727273 20  C 2.772727272727273 20  2.34469696969697 19.74609375  1.9886363636363635 19.23828125  C 1.6325757575757578 18.73046875  1.4545454545454546 18.116319444444443  1.4545454545454546 17.395833333333332  L 1.4545454545454546 5  L 0.36363636363636365 5  C 0.25757575757575757 5  0.17045454545454547 4.9609375  0.10227272727272728 4.8828125  C 0.03409090909090909 4.8046875  0 4.704861111111109  0 4.583333333333332  L 0 3.75  C 0 3.628472222222221  0.03409090909090909 3.5286458333333326  0.10227272727272728 3.4505208333333326  C 0.17045454545454547 3.3723958333333326  0.25757575757575757 3.3333333333333326  0.36363636363636365 3.3333333333333326  L 3.875 3.3333333333333326  L 4.670454545454546 1.1588541666666674  C 4.78409090909091 0.8376736111111094  4.988636363636364 0.5642361111111094  5.284090909090909 0.3385416666666674  C 5.579545454545455 0.11284722222222099  5.878787878787879 0  6.181818181818182 0  L 9.818181818181818 0  C 10.121212121212123 0  10.420454545454545 0.11284722222222099  10.715909090909092 0.3385416666666674  C 11.011363636363637 0.5642361111111094  11.215909090909092 0.8376736111111094  11.329545454545455 1.1588541666666674  L 12.125 3.3333333333333326  L 15.636363636363637 3.3333333333333326  C 15.742424242424244 3.3333333333333326  15.829545454545455 3.3723958333333326  15.897727272727273 3.4505208333333326  Z " fill-rule="nonzero" fill="#d9001b" stroke="none" transform="matrix(1 0 0 1 991 55 )" />
  </g>
</svg>