<?xml version="1.0" encoding="utf-8"?>
<svg version="1.1" xmlns:xlink="http://www.w3.org/1999/xlink" width="26px" height="23px" xmlns="http://www.w3.org/2000/svg">
  <g transform="matrix(1 0 0 1 -1129 -10 )">
    <path d="M 18.3828125 14.375  C 18.3828125 14.504774305555552  18.33444940476191 14.619574652777779  18.237723214285715 14.719401041666664  L 16.119419642857142 16.905598958333336  C 16.022693452380956 17.00542534722222  15.911458333333336 17.055338541666664  15.785714285714285 17.055338541666664  C 15.659970238095239 17.055338541666664  15.54873511904762 17.00542534722222  15.452008928571429 16.905598958333336  L 13 14.375  L 10.547991071428571 16.905598958333336  C 10.451264880952381 17.00542534722222  10.340029761904763 17.055338541666664  10.214285714285714 17.055338541666664  C 10.088541666666668 17.055338541666664  9.97730654761905 17.00542534722222  9.880580357142858 16.905598958333336  L 7.762276785714286 14.719401041666664  C 7.665550595238096 14.619574652777779  7.6171875 14.504774305555552  7.6171875 14.375  C 7.6171875 14.245225694444443  7.665550595238096 14.130425347222221  7.762276785714286 14.030598958333336  L 10.214285714285714 11.5  L 7.762276785714286 8.969401041666668  C 7.665550595238096 8.869574652777775  7.6171875 8.754774305555554  7.6171875 8.625  C 7.6171875 8.495225694444443  7.665550595238096 8.380425347222221  7.762276785714286 8.280598958333332  L 9.880580357142858 6.094401041666668  C 9.97730654761905 5.994574652777776  10.088541666666668 5.944661458333332  10.214285714285714 5.944661458333332  C 10.340029761904763 5.944661458333332  10.451264880952381 5.994574652777776  10.547991071428571 6.094401041666668  L 13 8.625  L 15.452008928571429 6.094401041666668  C 15.54873511904762 5.994574652777776  15.659970238095239 5.944661458333332  15.785714285714285 5.944661458333332  C 15.911458333333336 5.944661458333332  16.022693452380956 5.994574652777776  16.119419642857142 6.094401041666668  L 18.237723214285715 8.280598958333332  C 18.33444940476191 8.380425347222221  18.3828125 8.495225694444443  18.3828125 8.625  C 18.3828125 8.754774305555554  18.33444940476191 8.869574652777775  18.237723214285715 8.969401041666668  L 15.785714285714285 11.5  L 18.237723214285715 14.030598958333336  C 18.33444940476191 14.130425347222221  18.3828125 14.245225694444443  18.3828125 14.375  Z M 4 4  L 4 19  L 22 19  L 22 4  L 4 4  Z M 25.318080357142858 0.7037760416666675  C 25.772693452380956 1.1729600694444433  26 1.7369791666666674  26 2.3958333333333326  L 26 20.604166666666668  C 26 21.263020833333332  25.772693452380956 21.827039930555557  25.318080357142858 22.296223958333332  C 24.863467261904766 22.76540798611111  24.316964285714292 23  23.678571428571427 23  L 2.3214285714285716 23  C 1.6830357142857144 23  1.1365327380952381 22.76540798611111  0.6819196428571429 22.296223958333332  C 0.22730654761904762 21.827039930555557  0 21.263020833333332  0 20.604166666666668  L 0 2.3958333333333326  C 0 1.7369791666666674  0.22730654761904762 1.1729600694444433  0.6819196428571429 0.7037760416666675  C 1.1365327380952381 0.23459201388888662  1.6830357142857144 0  2.3214285714285716 0  L 23.678571428571427 0  C 24.316964285714292 0  24.863467261904766 0.23459201388888662  25.318080357142858 0.7037760416666675  Z " fill-rule="nonzero" fill="#333333" stroke="none" transform="matrix(1 0 0 1 1129 10 )" />
  </g>
</svg>