<?xml version="1.0" encoding="utf-8"?>
<svg version="1.1" xmlns:xlink="http://www.w3.org/1999/xlink" width="12px" height="13px" xmlns="http://www.w3.org/2000/svg">
  <g transform="matrix(1 0 0 1 -1091 -95 )">
    <path d="M 5 5.958333333333334  L 5 8.125  L 7 7.041666666666668  L 5 5.958333333333334  Z M 4 5.289713541666666  L 8 3.123046875  L 8 7.710286458333332  L 4 9.876953125  L 4 5.289713541666666  Z M 9.6796875 8.810546875  C 10.059895833333334 8.10525173611111  10.25 7.335069444444445  10.25 6.5  C 10.25 5.664930555555555  10.059895833333334 4.894748263888888  9.6796875 4.189453125  C 9.299479166666668 3.48415798611111  8.783854166666668 2.92556423611111  8.1328125 2.513671875  C 7.481770833333334 2.101779513888889  6.770833333333334 1.895833333333334  6 1.895833333333334  C 5.229166666666667 1.895833333333334  4.518229166666667 2.101779513888889  3.8671875 2.513671875  C 3.2161458333333335 2.92556423611111  2.7005208333333335 3.48415798611111  2.3203125 4.189453125  C 1.940104166666667 4.894748263888888  1.75 5.664930555555555  1.75 6.5  C 1.75 7.335069444444445  1.940104166666667 8.10525173611111  2.3203125 8.810546875  C 2.7005208333333335 9.515842013888888  3.2161458333333335 10.07443576388889  3.8671875 10.486328125  C 4.518229166666667 10.89822048611111  5.229166666666667 11.104166666666666  6 11.104166666666666  C 6.770833333333334 11.104166666666666  7.481770833333334 10.89822048611111  8.1328125 10.486328125  C 8.783854166666668 10.07443576388889  9.299479166666668 9.515842013888888  9.6796875 8.810546875  Z M 11.1953125 3.2373046875  C 11.731770833333332 4.23318142361111  12 5.320746527777776  12 6.5  C 12 7.679253472222222  11.731770833333332 8.766818576388888  11.1953125 9.7626953125  C 10.658854166666668 10.75857204861111  9.930989583333334 11.54709201388889  9.01171875 12.128255208333334  C 8.092447916666668 12.709418402777779  7.088541666666667 13  6 13  C 4.911458333333334 13  3.9075520833333335 12.709418402777779  2.98828125 12.128255208333334  C 2.069010416666667 11.54709201388889  1.3411458333333335 10.75857204861111  0.8046875 9.7626953125  C 0.26822916666666663 8.766818576388888  0 7.679253472222222  0 6.5  C 0 5.320746527777776  0.26822916666666663 4.23318142361111  0.8046875 3.2373046875  C 1.3411458333333335 2.241427951388889  2.069010416666667 1.4529079861111098  2.98828125 0.8717447916666662  C 3.9075520833333335 0.2905815972222211  4.911458333333334 0  6 0  C 7.088541666666667 0  8.092447916666668 0.2905815972222211  9.01171875 0.8717447916666662  C 9.930989583333334 1.4529079861111098  10.658854166666668 2.241427951388889  11.1953125 3.2373046875  Z " fill-rule="nonzero" fill="#000000" stroke="none" transform="matrix(1 0 0 1 1091 95 )" />
  </g>
</svg>