<?xml version="1.0" encoding="utf-8"?>
<svg version="1.1" xmlns:xlink="http://www.w3.org/1999/xlink" width="12px" height="14px" xmlns="http://www.w3.org/2000/svg">
  <g transform="matrix(1 0 0 1 -450 -257 )">
    <path d="M 11.69836956521739 6.191270860077021  C 11.89945652173913 6.4009413778348305  12 6.670517757809156  12 7  C 12 7.3234916559691925  11.89945652173913 7.596063329054342  11.69836956521739 7.817715019255456  L 6.391304347826088 13.667522464698331  C 6.179347826086957 13.889174154899443  5.932065217391305 14  5.649456521739131 14  C 5.372282608695652 14  5.127717391304348 13.889174154899443  4.915760869565217 13.667522464698331  L 4.304347826086956 12.993581514762516  C 4.0978260869565215 12.765939238339753  3.9945652173913047 12.493367565254598  3.9945652173913047 12.17586649550706  C 3.9945652173913047 11.858365425759523  4.0978260869565215 11.585793752674368  4.304347826086956 11.358151476251605  L 6.692934782608696 8.725288831835687  L 0.953804347826087 8.725288831835687  C 0.6711956521739131 8.725288831835687  0.4415760869565218 8.612965340179718  0.2649456521739131 8.38831835686778  C 0.08831521739130434 8.16367137355584  0 7.892597347026101  0 7.575096277278563  L 0 6.424903722721437  C 0 6.107402652973898  0.08831521739130434 5.83632862644416  0.2649456521739131 5.611681643132221  C 0.4415760869565218 5.387034659820282  0.6711956521739131 5.2747111681643135  0.953804347826087 5.2747111681643135  L 6.692934782608696 5.2747111681643135  L 4.304347826086956 2.632862644415918  C 4.0978260869565215 2.417201540436457  3.9945652173913047 2.1476251604621317  3.9945652173913047 1.8241335044929397  C 3.9945652173913047 1.5006418485237492  4.0978260869565215 1.2310654685494224  4.304347826086956 1.015404364569961  L 4.915760869565217 0.34146341463414664  C 5.122282608695652 0.11382113821138118  5.366847826086957 0  5.649456521739131 0  C 5.9375 0  6.184782608695652 0.11382113821138118  6.391304347826088 0.34146341463414664  L 11.69836956521739 6.191270860077021  Z " fill-rule="nonzero" fill="#0000ff" stroke="none" transform="matrix(1 0 0 1 450 257 )" />
  </g>
</svg>