<?xml version="1.0" encoding="utf-8"?>
<svg version="1.1" xmlns:xlink="http://www.w3.org/1999/xlink" width="15px" height="15px" xmlns="http://www.w3.org/2000/svg">
  <g transform="matrix(1 0 0 1 -1219 -96 )">
    <path d="M 14.23469387755102 2.9980468749999996  C 14.462785114045621 3.0957031250000004  14.63985594237695 3.235677083333332  14.765906362545017 3.4179687500000004  C 15.006002400960384 3.7890624999999996  15.060024009603842 4.208984375000001  14.92797118847539 4.677734375000001  L 12.451980792316927 13.525390625  C 12.33793517406963 13.942057291666668  12.108343337334935 14.2919921875  11.763205282112846 14.5751953125  C 11.418067226890757 14.8583984375  11.050420168067227 15  10.660264105642257 15  L 2.349939975990396 15  C 1.8877551020408163 15  1.442076830732293 14.825846354166668  1.012905162064826 14.4775390625  C 0.583733493397359 14.129231770833334  0.2851140456182473 13.701171875  0.117046818727491 13.193359375  C -0.02701080432172869 12.757161458333332  -0.03301320528211285 12.34375  0.09903961584633854 11.953125  C 0.09903961584633854 11.927083333333332  0.10804321728691477 11.839192708333332  0.12605042016806722 11.689453125  C 0.14405762304921968 11.539713541666666  0.156062424969988 11.419270833333334  0.16206482593037216 11.328125  C 0.16806722689075632 11.276041666666668  0.15906362545018007 11.2060546875  0.13505402160864344 11.1181640625  C 0.11104441776710686 11.0302734375  0.10204081632653061 10.966796875000002  0.10804321728691477 10.927734375  C 0.12004801920768307 10.856119791666666  0.14405762304921968 10.787760416666664  0.18007202881152462 10.72265625  C 0.21608643457382953 10.657552083333332  0.26560624249699877 10.581054687499998  0.32863145258103243 10.493164062499998  C 0.39165666266506605 10.405273437499998  0.4411764705882353 10.328776041666666  0.4771908763505402 10.263671875000002  C 0.6152460984393758 10.016276041666664  0.7503001200480193 9.718424479166664  0.8823529411764706 9.370117187500002  C 1.014405762304922 9.021809895833334  1.1044417767106842 8.723958333333332  1.1524609843937574 8.476562500000002  C 1.1704681872749099 8.411458333333332  1.171968787515006 8.313802083333332  1.1569627851140456 8.183593750000002  C 1.1419567827130854 8.053385416666668  1.140456182472989 7.962239583333331  1.1524609843937574 7.91015625  C 1.1704681872749099 7.838541666666666  1.2214885954381756 7.747395833333334  1.3055222088835534 7.636718749999999  C 1.3895558223289315 7.526041666666668  1.440576230492197 7.451171874999999  1.4585834333733494 7.412109375  C 1.5846338535414166 7.177734375  1.7106842737094838 6.878255208333333  1.836734693877551 6.513671874999999  C 1.962785114045618 6.149088541666666  2.0378151260504205 5.856119791666666  2.0618247298919568 5.634765624999999  C 2.067827130852341 5.576171874999999  2.060324129651861 5.472005208333333  2.0393157262905164 5.322265625000001  C 2.018307322929172 5.172526041666666  2.019807923169268 5.081380208333332  2.0438175270108045 5.048828124999999  C 2.067827130852341 4.964192708333332  2.133853541416567 4.864908854166664  2.2418967587034815 4.750976562500001  C 2.349939975990396 4.637044270833333  2.415966386554622 4.563802083333333  2.4399759903961584 4.531250000000001  C 2.5540216086434575 4.361979166666666  2.681572629051621 4.0869140625  2.8226290516206483 3.7060546875  C 2.963685474189676 3.3251953125  3.0462184873949583 3.011067708333333  3.0702280912364945 2.7636718749999996  C 3.076230492196879 2.7115885416666647  3.0672268907563027 2.628580729166665  3.043217286914766 2.5146484374999996  C 3.0192076830732297 2.400716145833332  3.0132052821128457 2.314453125  3.0252100840336134 2.255859375  C 3.037214885954382 2.203776041666665  3.064225690276111 2.145182291666665  3.1062424969987994 2.080078125  C 3.1482593037214888 2.014973958333333  3.2022809123649463 1.9401041666666652  3.2683073229291715 1.8554687499999996  C 3.3343337334933976 1.7708333333333321  3.385354141656663 1.7024739583333326  3.4213685474189677 1.6503906249999996  C 3.4693877551020416 1.5722656250000004  3.5189075630252105 1.472981770833333  3.5699279711884753 1.3525390625000004  C 3.620948379351741 1.2320963541666647  3.665966386554622 1.1181640625000004  3.704981992797119 1.0107421875  C 3.743997599039616 0.9033203124999994  3.79201680672269 0.7861328124999994  3.8490396158463382 0.6591796875  C 3.9060624249699885 0.5322265625000006  3.9645858343337337 0.4280598958333326  4.024609843937575 0.34667968749999944  C 4.084633853541417 0.26529947916666463  4.1641656662665065 0.18880208333333204  4.263205282112845 0.1171875  C 4.362244897959185 0.04557291666666463  4.470288115246099 0.008138020833333148  4.587334933973589 0.004882812500000555  C 4.704381752701081 0.0016276041666646313  4.846938775510204 0.019531250000000555  5.01500600240096 0.05859375  L 5.0060024009603845 0.087890625  C 5.234093637454982 0.029296875  5.387154861944778 0  5.465186074429772 0  L 12.316926770708283 0  C 12.761104441776713 0  13.103241296518608 0.1822916666666652  13.343337334933974 0.5468750000000006  C 13.583433373349342 0.9114583333333326  13.637454981992798 1.3346354166666647  13.505402160864346 1.81640625  L 11.038415366146458 10.6640625  C 10.822328931572628 11.438802083333332  10.607743097238897 11.9384765625  10.394657863145259 12.1630859375  C 10.181572629051622 12.3876953125  9.795918367346937 12.5  9.237695078031212 12.5  L 1.4135654261704682 12.5  C 1.2515006002400961 12.5  1.1374549819927973 12.548828125  1.0714285714285714 12.646484375  C 1.0054021608643458 12.750651041666666  1.0024009603841537 12.890625  1.062424969987995 13.06640625  C 1.2064825930372147 13.522135416666668  1.638655462184874 13.75  2.3589435774309724 13.75  L 10.669267707082833 13.75  C 10.843337334933974 13.75  11.01140456182473 13.699544270833332  11.173469387755103 13.5986328125  C 11.335534213685474 13.497721354166666  11.440576230492198 13.362630208333332  11.48859543817527 13.193359375  L 14.18967587034814 3.5546874999999996  C 14.23169267707083 3.411458333333332  14.24669867947179 3.2259114583333326  14.23469387755102 2.9980468749999996  Z M 5.375150060024009 2.8125  L 5.186074429771909 3.4374999999999996  C 5.162064825930372 3.522135416666665  5.168067226890757 3.595377604166665  5.204081632653061 3.6572265624999996  C 5.240096038415366 3.719075520833332  5.300120048019209 3.75  5.384153661464586 3.75  L 10.858343337334935 3.75  C 10.936374549819929 3.75  11.012905162064826 3.719075520833332  11.087935174069628 3.6572265624999996  C 11.16296518607443 3.595377604166665  11.2124849939976 3.522135416666665  11.236494597839137 3.4374999999999996  L 11.425570228091237 2.8125  C 11.449579831932773 2.7278645833333326  11.44357743097239 2.6546223958333326  11.407563025210084 2.5927734375  C 11.371548619447779 2.5309244791666656  11.31152460984394 2.4999999999999996  11.22749099639856 2.4999999999999996  L 5.7533013205282115 2.4999999999999996  C 5.675270108043217 2.4999999999999996  5.59873949579832 2.5309244791666656  5.5237094837935174 2.5927734375  C 5.448679471788716 2.6546223958333326  5.399159663865547 2.7278645833333326  5.375150060024009 2.8125  Z M 4.627851140456182 5.312499999999999  L 4.438775510204081 5.937500000000001  C 4.414765906362545 6.022135416666666  4.42076830732293 6.095377604166666  4.456782713085234 6.157226562500001  C 4.492797118847539 6.219075520833333  4.55282112845138 6.249999999999999  4.636854741896759 6.249999999999999  L 10.111044417767106 6.249999999999999  C 10.189075630252102 6.249999999999999  10.265606242497 6.219075520833333  10.3406362545018 6.157226562500001  C 10.415666266506605 6.095377604166666  10.465186074429772 6.022135416666666  10.489195678271308 5.937500000000001  L 10.678271308523408 5.312499999999999  C 10.702280912364946 5.227864583333332  10.69627851140456 5.154622395833332  10.660264105642257 5.092773437499999  C 10.624249699879952 5.030924479166667  10.564225690276112 5.000000000000001  10.480192076830733 5.000000000000001  L 5.0060024009603845 5.000000000000001  C 4.927971188475391 5.000000000000001  4.851440576230493 5.030924479166667  4.77641056422569 5.092773437499999  C 4.701380552220889 5.154622395833332  4.65186074429772 5.227864583333332  4.627851140456182 5.312499999999999  Z " fill-rule="nonzero" fill="#333333" stroke="none" transform="matrix(1 0 0 1 1219 96 )" />
  </g>
</svg>