<?xml version="1.0" encoding="utf-8"?>
<svg version="1.1" xmlns:xlink="http://www.w3.org/1999/xlink" width="11px" height="14px" xmlns="http://www.w3.org/2000/svg">
  <g transform="matrix(1 0 0 1 -18 -386 )">
    <path d="M 10.828125 9.588541666666666  C 10.942708333333334 9.758680555555554  11 9.965277777777779  11 10.208333333333334  L 11 13.125  C 11 13.368055555555557  10.942708333333334 13.574652777777777  10.828125 13.744791666666668  C 10.713541666666668 13.914930555555557  10.574404761904763 14  10.410714285714285 14  L 8.446428571428571 14  C 8.282738095238097 14  8.143601190476192 13.914930555555557  8.029017857142858 13.744791666666668  C 7.914434523809525 13.574652777777777  7.857142857142858 13.368055555555557  7.857142857142858 13.125  L 7.857142857142858 10.208333333333334  C 7.857142857142858 9.965277777777779  7.914434523809525 9.758680555555554  8.029017857142858 9.588541666666666  C 8.143601190476192 9.418402777777779  8.282738095238097 9.333333333333334  8.446428571428571 9.333333333333334  L 9.035714285714285 9.333333333333334  L 9.035714285714285 7.583333333333334  L 5.892857142857142 7.583333333333334  L 5.892857142857142 9.333333333333334  L 6.482142857142858 9.333333333333334  C 6.645833333333334 9.333333333333334  6.784970238095239 9.418402777777779  6.899553571428572 9.588541666666666  C 7.014136904761905 9.758680555555554  7.071428571428572 9.965277777777779  7.071428571428572 10.208333333333334  L 7.071428571428572 13.125  C 7.071428571428572 13.368055555555557  7.014136904761905 13.574652777777777  6.899553571428572 13.744791666666668  C 6.784970238095239 13.914930555555557  6.645833333333334 14  6.482142857142858 14  L 4.517857142857142 14  C 4.354166666666667 14  4.215029761904762 13.914930555555557  4.100446428571429 13.744791666666668  C 3.985863095238096 13.574652777777777  3.928571428571429 13.368055555555557  3.928571428571429 13.125  L 3.928571428571429 10.208333333333334  C 3.928571428571429 9.965277777777779  3.985863095238096 9.758680555555554  4.100446428571429 9.588541666666666  C 4.215029761904762 9.418402777777779  4.354166666666667 9.333333333333334  4.517857142857142 9.333333333333334  L 5.107142857142858 9.333333333333334  L 5.107142857142858 7.583333333333334  L 1.9642857142857144 7.583333333333334  L 1.9642857142857144 9.333333333333334  L 2.553571428571429 9.333333333333334  C 2.717261904761905 9.333333333333334  2.8563988095238098 9.418402777777779  2.970982142857143 9.588541666666666  C 3.0855654761904763 9.758680555555554  3.142857142857143 9.965277777777779  3.142857142857143 10.208333333333334  L 3.142857142857143 13.125  C 3.142857142857143 13.368055555555557  3.0855654761904763 13.574652777777777  2.970982142857143 13.744791666666668  C 2.8563988095238098 13.914930555555557  2.717261904761905 14  2.553571428571429 14  L 0.5892857142857143 14  C 0.4255952380952382 14  0.28645833333333337 13.914930555555557  0.171875 13.744791666666668  C 0.057291666666666664 13.574652777777777  0 13.368055555555557  0 13.125  L 0 10.208333333333334  C 0 9.965277777777779  0.057291666666666664 9.758680555555554  0.171875 9.588541666666666  C 0.28645833333333337 9.418402777777779  0.4255952380952382 9.333333333333334  0.5892857142857143 9.333333333333334  L 1.1785714285714286 9.333333333333334  L 1.1785714285714286 7.583333333333334  C 1.1785714285714286 7.267361111111109  1.2563244047619047 6.993923611111111  1.411830357142857 6.763020833333333  C 1.5673363095238095 6.5321180555555545  1.7514880952380953 6.416666666666667  1.9642857142857144 6.416666666666667  L 5.107142857142858 6.416666666666667  L 5.107142857142858 4.666666666666667  L 4.517857142857142 4.666666666666667  C 4.354166666666667 4.666666666666667  4.215029761904762 4.5815972222222205  4.100446428571429 4.411458333333333  C 3.985863095238096 4.241319444444444  3.928571428571429 4.0347222222222205  3.928571428571429 3.791666666666667  L 3.928571428571429 0.875  C 3.928571428571429 0.6319444444444438  3.985863095238096 0.4253472222222203  4.100446428571429 0.2552083333333328  C 4.215029761904762 0.08506944444444375  4.354166666666667 0  4.517857142857142 0  L 6.482142857142858 0  C 6.645833333333334 0  6.784970238095239 0.08506944444444375  6.899553571428572 0.2552083333333328  C 7.014136904761905 0.4253472222222203  7.071428571428572 0.6319444444444438  7.071428571428572 0.875  L 7.071428571428572 3.791666666666667  C 7.071428571428572 4.0347222222222205  7.014136904761905 4.241319444444444  6.899553571428572 4.411458333333333  C 6.784970238095239 4.5815972222222205  6.645833333333334 4.666666666666667  6.482142857142858 4.666666666666667  L 5.892857142857142 4.666666666666667  L 5.892857142857142 6.416666666666667  L 9.035714285714285 6.416666666666667  C 9.248511904761905 6.416666666666667  9.432663690476192 6.5321180555555545  9.588169642857142 6.763020833333333  C 9.743675595238097 6.993923611111111  9.821428571428571 7.267361111111109  9.821428571428571 7.583333333333334  L 9.821428571428571 9.333333333333334  L 10.410714285714285 9.333333333333334  C 10.574404761904763 9.333333333333334  10.713541666666668 9.418402777777779  10.828125 9.588541666666666  Z " fill-rule="nonzero" fill="#ffffff" stroke="none" transform="matrix(1 0 0 1 18 386 )" />
  </g>
</svg>