<?xml version="1.0" encoding="utf-8"?>
<svg version="1.1" xmlns:xlink="http://www.w3.org/1999/xlink" width="19px" height="22px" xmlns="http://www.w3.org/2000/svg">
  <g transform="matrix(1 0 0 1 -221 -15 )">
    <path d="M 18.764973958333336 17.9265625  C 18.92165798611111 18.144270833333334  19 18.402083333333334  19 18.7  L 19 20.9  C 19 21.197916666666664  18.92165798611111 21.455729166666664  18.764973958333336 21.6734375  C 18.608289930555557 21.891145833333333  18.422743055555557 22  18.208333333333336 22  L 0.7916666666666666 22  C 0.5772569444444445 22  0.3917100694444444 21.891145833333333  0.23502604166666666 21.6734375  C 0.0783420138888889 21.455729166666664  0 21.197916666666664  0 20.9  L 0 18.7  C 0 18.402083333333334  0.0783420138888889 18.144270833333334  0.23502604166666666 17.9265625  C 0.3917100694444444 17.708854166666665  0.5772569444444445 17.6  0.7916666666666666 17.6  L 18.208333333333336 17.6  C 18.422743055555557 17.6  18.608289930555557 17.708854166666665  18.764973958333336 17.9265625  Z M 18.764973958333336 9.126562499999999  C 18.92165798611111 9.344270833333333  19 9.602083333333333  19 9.899999999999999  L 19 12.100000000000001  C 19 12.397916666666665  18.92165798611111 12.655729166666665  18.764973958333336 12.873437500000001  C 18.608289930555557 13.091145833333332  18.422743055555557 13.2  18.208333333333336 13  L 0.7916666666666666 13  C 0.5772569444444445 13.2  0.3917100694444444 13.091145833333332  0.23502604166666666 12.873437500000001  C 0.0783420138888889 12.655729166666665  0 12.397916666666665  0 12.100000000000001  L 0 9.899999999999999  C 0 9.602083333333333  0.0783420138888889 9.344270833333333  0.23502604166666666 9.126562499999999  C 0.3917100694444444 8.908854166666668  0.5772569444444445 8.8  0.7916666666666666 9  L 18.208333333333336 9  C 18.422743055555557 8.8  18.608289930555557 8.908854166666668  18.764973958333336 9.126562499999999  Z M 18.764973958333336 0.326562500000001  C 18.92165798611111 0.5442708333333317  19 0.8020833333333317  19 1.100000000000001  L 19 3.3000000000000007  C 19 3.5979166666666647  18.92165798611111 3.8557291666666647  18.764973958333336 4.073437500000001  C 18.608289930555557 4.291145833333331  18.422743055555557 4.399999999999999  18.208333333333336 4.399999999999999  L 0.7916666666666666 4.399999999999999  C 0.5772569444444445 4.399999999999999  0.3917100694444444 4.291145833333331  0.23502604166666666 4.073437500000001  C 0.0783420138888889 3.8557291666666647  0 3.5979166666666647  0 3.3000000000000007  L 0 1.100000000000001  C 0 0.8020833333333317  0.0783420138888889 0.5442708333333317  0.23502604166666666 0.326562500000001  C 0.3917100694444444 0.10885416666666536  0.5772569444444445 0  0.7916666666666666 0  L 18.208333333333336 0  C 18.422743055555557 0  18.608289930555557 0.10885416666666536  18.764973958333336 0.326562500000001  Z " fill-rule="nonzero" fill="#000000" stroke="none" transform="matrix(1 0 0 1 221 15 )" />
  </g>
</svg>