<?xml version="1.0" encoding="utf-8"?>
<svg version="1.1" xmlns:xlink="http://www.w3.org/1999/xlink" width="11px" height="16px" xmlns="http://www.w3.org/2000/svg">
  <g transform="matrix(1 0 0 1 -18 -249 )">
    <path d="M 0.8461538461538463 12.285714285714285  L 0.8461538461538463 14.857142857142858  L 2.75 14.857142857142858  L 2.75 12.285714285714285  L 0.8461538461538463 12.285714285714285  Z M 3.173076923076923 12.285714285714285  L 3.173076923076923 14.857142857142858  L 5.288461538461538 14.857142857142858  L 5.288461538461538 12.285714285714285  L 3.173076923076923 12.285714285714285  Z M 0.8461538461538463 8.857142857142858  L 0.8461538461538463 11.714285714285715  L 2.75 11.714285714285715  L 2.75 8.857142857142858  L 0.8461538461538463 8.857142857142858  Z M 3.173076923076923 8.857142857142858  L 3.173076923076923 11.714285714285715  L 5.288461538461538 11.714285714285715  L 5.288461538461538 8.857142857142858  L 3.173076923076923 8.857142857142858  Z M 0.8461538461538463 5.7142857142857135  L 0.8461538461538463 8.285714285714285  L 2.75 8.285714285714285  L 2.75 5.7142857142857135  L 0.8461538461538463 5.7142857142857135  Z M 5.711538461538462 12.285714285714285  L 5.711538461538462 14.857142857142858  L 7.8269230769230775 14.857142857142858  L 7.8269230769230775 12.285714285714285  L 5.711538461538462 12.285714285714285  Z M 3.173076923076923 5.7142857142857135  L 3.173076923076923 8.285714285714285  L 5.288461538461538 8.285714285714285  L 5.288461538461538 5.7142857142857135  L 3.173076923076923 5.7142857142857135  Z M 8.25 12.285714285714285  L 8.25 14.857142857142858  L 10.153846153846155 14.857142857142858  L 10.153846153846155 12.285714285714285  L 8.25 12.285714285714285  Z M 5.711538461538462 8.857142857142858  L 5.711538461538462 11.714285714285715  L 7.8269230769230775 11.714285714285715  L 7.8269230769230775 8.857142857142858  L 5.711538461538462 8.857142857142858  Z M 3.3218149038461537 4.200892857142858  C 3.363681891025641 4.144345238095237  3.384615384615385 4.077380952380951  3.384615384615385 4  L 3.384615384615385 1.4285714285714288  C 3.384615384615385 1.3511904761904763  3.363681891025641 1.2842261904761898  3.3218149038461537 1.2276785714285712  C 3.279947916666667 1.1711309523809508  3.23036858974359 1.1428571428571423  3.173076923076923 1.1428571428571423  L 2.75 1.1428571428571423  C 2.6927083333333335 1.1428571428571423  2.643129006410257 1.1711309523809508  2.601262019230769 1.2276785714285712  C 2.5593950320512815 1.2842261904761898  2.5384615384615388 1.3511904761904763  2.5384615384615388 1.4285714285714288  L 2.5384615384615388 4  C 2.5384615384615388 4.077380952380951  2.5593950320512815 4.144345238095237  2.601262019230769 4.200892857142858  C 2.643129006410257 4.257440476190476  2.6927083333333335 4.2857142857142865  2.75 4.2857142857142865  L 3.173076923076923 4.2857142857142865  C 3.23036858974359 4.2857142857142865  3.279947916666667 4.257440476190476  3.3218149038461537 4.200892857142858  Z M 8.25 8.857142857142858  L 8.25 11.714285714285715  L 10.153846153846155 11.714285714285715  L 10.153846153846155 8.857142857142858  L 8.25 8.857142857142858  Z M 5.711538461538462 5.7142857142857135  L 5.711538461538462 8.285714285714285  L 7.8269230769230775 8.285714285714285  L 7.8269230769230775 5.7142857142857135  L 5.711538461538462 5.7142857142857135  Z M 8.25 5.7142857142857135  L 8.25 8.285714285714285  L 10.153846153846155 8.285714285714285  L 10.153846153846155 5.7142857142857135  L 8.25 5.7142857142857135  Z M 8.39873798076923 4.200892857142858  C 8.440604967948719 4.144345238095237  8.461538461538462 4.077380952380951  8.461538461538462 4  L 8.461538461538462 1.4285714285714288  C 8.461538461538462 1.3511904761904763  8.440604967948719 1.2842261904761898  8.39873798076923 1.2276785714285712  C 8.356870993589745 1.1711309523809508  8.307291666666668 1.1428571428571423  8.25 1.1428571428571423  L 7.8269230769230775 1.1428571428571423  C 7.7696314102564115 1.1428571428571423  7.720052083333334 1.1711309523809508  7.678185096153846 1.2276785714285712  C 7.6363181089743595 1.2842261904761898  7.615384615384615 1.3511904761904763  7.615384615384615 1.4285714285714288  L 7.615384615384615 4  C 7.615384615384615 4.077380952380951  7.6363181089743595 4.144345238095237  7.678185096153846 4.200892857142858  C 7.720052083333334 4.257440476190476  7.7696314102564115 4.2857142857142865  7.8269230769230775 4.2857142857142865  L 8.25 4.2857142857142865  C 8.307291666666668 4.2857142857142865  8.356870993589745 4.257440476190476  8.39873798076923 4.200892857142858  Z M 10.748798076923077 2.625  C 10.916266025641027 2.8511904761904763  11 3.1190476190476186  11 3.428571428571429  L 11 14.857142857142858  C 11 15.166666666666668  10.916266025641027 15.43452380952381  10.748798076923077 15.660714285714286  C 10.58133012820513 15.886904761904761  10.383012820512821 16  10.153846153846155 16  L 0.8461538461538463 16  C 0.6169871794871796 16  0.4186698717948718 15.886904761904761  0.2512019230769231 15.660714285714286  C 0.08373397435897435 15.43452380952381  0 15.166666666666668  0 14.857142857142858  L 0 3.428571428571429  C 0 3.1190476190476186  0.08373397435897435 2.8511904761904763  0.2512019230769231 2.625  C 0.4186698717948718 2.398809523809522  0.6169871794871796 2.2857142857142865  0.8461538461538463 2.2857142857142865  L 1.6923076923076925 2.2857142857142865  L 1.6923076923076925 1.4285714285714288  C 1.6923076923076925 1.0357142857142865  1.7958733974358974 0.699404761904761  2.0030048076923075 0.41964285714285765  C 2.2101362179487185 0.13988095238095255  2.4591346153846154 0  2.75 0  L 3.173076923076923 0  C 3.4639423076923075 0  3.7129407051282057 0.13988095238095255  3.920072115384615 0.41964285714285765  C 4.1272035256410255 0.699404761904761  4.230769230769231 1.0357142857142865  4.230769230769231 1.4285714285714288  L 4.230769230769231 2.2857142857142865  L 6.76923076923077 2.2857142857142865  L 6.76923076923077 1.4285714285714288  C 6.76923076923077 1.0357142857142865  6.8727964743589745 0.699404761904761  7.079927884615385 0.41964285714285765  C 7.2870592948717965 0.13988095238095255  7.5360576923076925 0  7.8269230769230775 0  L 8.25 0  C 8.540865384615385 0  8.789863782051283 0.13988095238095255  8.996995192307692 0.41964285714285765  C 9.204126602564104 0.699404761904761  9.307692307692308 1.0357142857142865  9.307692307692308 1.4285714285714288  L 9.307692307692308 2.2857142857142865  L 10.153846153846155 2.2857142857142865  C 10.383012820512821 2.2857142857142865  10.58133012820513 2.398809523809522  10.748798076923077 2.625  Z " fill-rule="nonzero" fill="#ffffff" stroke="none" transform="matrix(1 0 0 1 18 249 )" />
  </g>
</svg>