<?xml version="1.0" encoding="utf-8"?>
<svg version="1.1" xmlns:xlink="http://www.w3.org/1999/xlink" width="11px" height="15px" xmlns="http://www.w3.org/2000/svg">
  <g transform="matrix(1 0 0 1 -18 -297 )">
    <path d="M 10.438775510204081 2.9980468749999996  C 10.606042416966789 3.0957031250000004  10.735894357743097 3.235677083333332  10.828331332533013 3.4179687500000004  C 11.004401760704281 3.7890624999999996  11.044017607042818 4.208984375000001  10.94717887154862 4.677734375000001  L 9.131452581032413 13.525390625  C 9.047819127651062 13.942057291666668  8.879451780712285 14.2919921875  8.626350540216087 14.5751953125  C 8.37324929971989 14.8583984375  8.103641456582633 15  7.817527010804322 15  L 1.7232893157262905 15  C 1.3843537414965987 15  1.0575230092036816 14.825846354166668  0.7427971188475391 14.4775390625  C 0.4280712284913966 14.129231770833334  0.20908363345338138 13.701171875  0.08583433373349339 13.193359375  C -0.019807923169267706 12.757161458333332  -0.024209683873549423 12.34375  0.07262905162064826 11.953125  C 0.07262905162064826 11.927083333333332  0.07923169267707082 11.839192708333332  0.09243697478991596 11.689453125  C 0.10564225690276109 11.539713541666666  0.11444577831132455 11.419270833333334  0.11884753901560625 11.328125  C 0.12324929971988796 11.276041666666668  0.1166466586634654 11.2060546875  0.09903961584633852 11.1181640625  C 0.0814325730292117 11.0302734375  0.07482993197278912 10.966796875000002  0.07923169267707082 10.927734375  C 0.08803521408563425 10.856119791666666  0.10564225690276109 10.787760416666664  0.13205282112845138 10.72265625  C 0.15846338535414164 10.657552083333332  0.19477791116446577 10.581054687499998  0.24099639855942379 10.493164062499998  C 0.28721488595438177 10.405273437499998  0.3235294117647059 10.328776041666666  0.34993997599039617 10.263671875000002  C 0.45118047218887564 10.016276041666664  0.5502200880352142 9.718424479166664  0.6470588235294118 9.370117187500002  C 0.7438975590236094 9.021809895833334  0.8099239695878351 8.723958333333332  0.8451380552220887 8.476562500000002  C 0.858343337334934 8.411458333333332  0.8594437775110044 8.313802083333332  0.8484393757503002 8.183593750000002  C 0.837434973989596 8.053385416666668  0.8363345338135254 7.962239583333331  0.8451380552220887 7.91015625  C 0.858343337334934 7.838541666666666  0.8957583033213287 7.747395833333334  0.9573829531812725 7.636718749999999  C 1.0190076030412165 7.526041666666668  1.056422569027611 7.451171874999999  1.0696278511404562 7.412109375  C 1.162064825930372 7.177734375  1.2545018007202882 6.878255208333333  1.346938775510204 6.513671874999999  C 1.4393757503001199 6.149088541666666  1.4943977591036417 5.856119791666666  1.5120048019207684 5.634765624999999  C 1.51640656262505 5.576171874999999  1.5109043617446978 5.472005208333333  1.4954981992797118 5.322265625000001  C 1.480092036814726 5.172526041666666  1.4811924769907965 5.081380208333332  1.4987995198079234 5.048828124999999  C 1.51640656262505 4.964192708333332  1.564825930372149 4.864908854166664  1.6440576230492197 4.750976562500001  C 1.7232893157262905 4.637044270833333  1.7717086834733895 4.563802083333333  1.7893157262905162 4.531250000000001  C 1.872949179671869 4.361979166666666  1.9664865946378554 4.0869140625  2.0699279711884753 3.7060546875  C 2.173369347739096 3.3251953125  2.2338935574229697 3.011067708333333  2.251500600240096 2.7636718749999996  C 2.255902360944378 2.7115885416666647  2.2492997198879556 2.628580729166665  2.2316926770708285 2.5146484374999996  C 2.214085634253702 2.400716145833332  2.20968387354942 2.314453125  2.2184873949579833 2.255859375  C 2.2272909163665466 2.203776041666665  2.2470988395358145 2.145182291666665  2.2779111644657863 2.080078125  C 2.308723489395758 2.014973958333333  2.348339335734294 1.9401041666666652  2.3967587034813924 1.8554687499999996  C 2.445178071228492 1.7708333333333321  2.482593037214886 1.7024739583333326  2.5090036014405763 1.6503906249999996  C 2.5442176870748305 1.5722656250000004  2.580532212885154 1.472981770833333  2.6179471788715487 1.3525390625000004  C 2.655362144857943 1.2320963541666647  2.6883753501400562 1.1181640625000004  2.716986794717887 1.0107421875  C 2.7455982392957186 0.9033203124999994  2.7808123249299723 0.7861328124999994  2.8226290516206483 0.6591796875  C 2.864445778311325 0.5322265625000006  2.9073629451780714 0.4280598958333326  2.951380552220888 0.34667968749999944  C 2.995398159263706 0.26529947916666463  3.0537214885954382 0.18880208333333204  3.1263505402160865 0.1171875  C 3.198979591836735 0.04557291666666463  3.278211284513806 0.008138020833333148  3.364045618247299 0.004882812500000555  C 3.4498799519807926 0.0016276041666646313  3.554421768707483 0.019531250000000555  3.6776710684273706 0.05859375  L 3.671068427370949 0.087890625  C 3.8383353341336535 0.029296875  3.9505802320928374 0  4.007803121248499 0  L 9.032412965186074 0  C 9.358143257302922 0  9.609043617446979 0.1822916666666652  9.785114045618247 0.5468750000000006  C 9.961184473789517 0.9114583333333326  10.000800320128052 1.3346354166666647  9.903961584633855 1.81640625  L 8.09483793517407 10.6640625  C 7.936374549819927 11.438802083333332  7.779011604641857 11.9384765625  7.622749099639856 12.1630859375  C 7.466486594637856 12.3876953125  7.183673469387754 12.5  6.774309723889556 12.5  L 1.0366146458583434 12.5  C 0.9177671068427372 12.5  0.8341336534613846 12.548828125  0.7857142857142857 12.646484375  C 0.7372949179671869 12.750651041666666  0.7350940376150461 12.890625  0.7791116446578631 13.06640625  C 0.8847539015606242 13.522135416666668  1.2016806722689075 13.75  1.729891956782713 13.75  L 7.824129651860744 13.75  C 7.951780712284915 13.75  8.075030012004802 13.699544270833332  8.193877551020408 13.5986328125  C 8.312725090036015 13.497721354166666  8.389755902360944 13.362630208333332  8.424969987995198 13.193359375  L 10.405762304921968 3.5546874999999996  C 10.436574629851942 3.411458333333332  10.447579031612646 3.2259114583333326  10.438775510204081 2.9980468749999996  Z M 3.9417767106842736 2.8125  L 3.8031212484994 3.4374999999999996  C 3.785514205682273 3.522135416666665  3.7899159663865545 3.595377604166665  3.816326530612245 3.6572265624999996  C 3.8427370948379354 3.719075520833332  3.886754701880753 3.75  3.948379351740696 3.75  L 7.9627851140456185 3.75  C 8.020008003201282 3.75  8.076130452180873 3.719075520833332  8.131152460984394 3.6572265624999996  C 8.186174469787916 3.595377604166665  8.22248899559824 3.522135416666665  8.240096038415366 3.4374999999999996  L 8.37875150060024 2.8125  C 8.396358543417367 2.7278645833333326  8.391956782713086 2.6546223958333326  8.365546218487395 2.5927734375  C 8.339135654261705 2.5309244791666656  8.295118047218889 2.4999999999999996  8.233493397358943 2.4999999999999996  L 4.219087635054022 2.4999999999999996  C 4.1618647458983595 2.4999999999999996  4.105742296918768 2.5309244791666656  4.0507202881152455 2.5927734375  C 3.995698279311725 2.6546223958333326  3.959383753501401 2.7278645833333326  3.9417767106842736 2.8125  Z M 3.3937575030012006 5.312499999999999  L 3.2551020408163263 5.937500000000001  C 3.2374949979992 6.022135416666666  3.2418967587034815 6.095377604166666  3.268307322929172 6.157226562500001  C 3.2947178871548624 6.219075520833333  3.338735494197679 6.249999999999999  3.400360144057623 6.249999999999999  L 7.414765906362545 6.249999999999999  C 7.471988795518207 6.249999999999999  7.5281112444978 6.219075520833333  7.58313325330132 6.157226562500001  C 7.638155262104844 6.095377604166666  7.674469787915166 6.022135416666666  7.692076830732293 5.937500000000001  L 7.830732292917166 5.312499999999999  C 7.848339335734294 5.227864583333332  7.8439375750300115 5.154622395833332  7.817527010804322 5.092773437499999  C 7.791116446578632 5.030924479166667  7.747098839535815 5.000000000000001  7.685474189675871 5.000000000000001  L 3.671068427370949 5.000000000000001  C 3.6138455382152865 5.000000000000001  3.5577230892356946 5.030924479166667  3.502701080432173 5.092773437499999  C 3.447679071628652 5.154622395833332  3.4113645458183277 5.227864583333332  3.3937575030012006 5.312499999999999  Z " fill-rule="nonzero" fill="#ffffff" stroke="none" transform="matrix(1 0 0 1 18 297 )" />
  </g>
</svg>