<?xml version="1.0" encoding="utf-8"?>
<svg version="1.1" xmlns:xlink="http://www.w3.org/1999/xlink" width="11px" height="15px" xmlns="http://www.w3.org/2000/svg">
  <g transform="matrix(1 0 0 1 -18 -517 )">
    <path d="M 7.533854166666667 10.273437499999998  C 7.4001736111111125 10.455729166666664  7.333333333333333 10.677083333333334  7.333333333333333 10.937500000000002  L 7.333333333333333 15  L 0.6875 15  C 0.49652777777777785 15  0.33420138888888895 14.908854166666668  0.20052083333333334 14.7265625  C 0.06684027777777776 14.544270833333332  0 14.322916666666668  0 14.0625  L 0 0.9375  C 0 0.6770833333333326  0.06684027777777776 0.45572916666666463  0.20052083333333334 0.27343749999999944  C 0.33420138888888895 0.0911458333333326  0.49652777777777785 0  0.6875 0  L 10.3125 0  C 10.503472222222223 0  10.665798611111112 0.0911458333333326  10.799479166666668 0.27343749999999944  C 10.933159722222221 0.45572916666666463  11 0.6770833333333326  11 0.9375  L 11 10.000000000000002  L 8.020833333333332 10.000000000000002  C 7.8298611111111125 10.000000000000002  7.667534722222223 10.091145833333334  7.533854166666667 10.273437499999998  Z M 8.25 14.970703125  L 8.25 11.25  L 10.978515625 11.25  C 10.906901041666668 11.783854166666666  10.751736111111112 12.213541666666668  10.513020833333332 12.5390625  L 9.1953125 14.3359375  C 8.956597222222223 14.661458333333332  8.641493055555555 14.873046875  8.25 14.970703125  Z " fill-rule="nonzero" fill="#ffffff" stroke="none" transform="matrix(1 0 0 1 18 517 )" />
  </g>
</svg>