<?xml version="1.0" encoding="utf-8"?>
<svg version="1.1" xmlns:xlink="http://www.w3.org/1999/xlink" width="11px" height="15px" xmlns="http://www.w3.org/2000/svg">
  <g transform="matrix(1 0 0 1 -18 -341 )">
    <path d="M 3.4247685185185186 13.23153409090909  C 3.5860339506172845 12.961647727272728  3.6666666666666665 12.642045454545455  3.6666666666666665 12.272727272727272  C 3.6666666666666665 11.90340909090909  3.5860339506172845 11.583806818181818  3.4247685185185186 11.313920454545455  C 3.263503086419754 11.044034090909092  3.072530864197531 10.90909090909091  2.8518518518518516 10.90909090909091  C 2.6311728395061733 10.90909090909091  2.440200617283951 11.044034090909092  2.278935185185185 11.313920454545455  C 2.1176697530864192 11.583806818181818  2.0370370370370368 11.90340909090909  2.0370370370370368 12.272727272727272  C 2.0370370370370368 12.642045454545455  2.1176697530864192 12.961647727272728  2.278935185185185 13.23153409090909  C 2.440200617283951 13.501420454545453  2.6311728395061733 13.636363636363637  2.8518518518518516 13.636363636363637  C 3.072530864197531 13.636363636363637  3.263503086419754 13.501420454545453  3.4247685185185186 13.23153409090909  Z M 1.222222222222222 6.498579545454545  L 1.222222222222222 6.818181818181818  L 3.6666666666666665 6.818181818181818  L 3.6666666666666665 4.090909090909091  L 2.6608796296296298 4.090909090909091  C 2.60570987654321 4.090909090909091  2.5590277777777777 4.122869318181818  2.520833333333333 4.186789772727273  L 1.2795138888888888 6.264204545454545  C 1.2413194444444444 6.328125  1.222222222222222 6.406249999999999  1.222222222222222 6.498579545454545  Z M 9.128472222222223 13.23153409090909  C 9.289737654320987 12.961647727272728  9.37037037037037 12.642045454545455  9.37037037037037 12.272727272727272  C 9.37037037037037 11.90340909090909  9.289737654320987 11.583806818181818  9.128472222222223 11.313920454545455  C 8.967206790123457 11.044034090909092  8.776234567901234 10.90909090909091  8.555555555555555 10.90909090909091  C 8.334876543209877 10.90909090909091  8.143904320987655 11.044034090909092  7.982638888888888 11.313920454545455  C 7.821373456790124 11.583806818181818  7.7407407407407405 11.90340909090909  7.7407407407407405 12.272727272727272  C 7.7407407407407405 12.642045454545455  7.821373456790124 12.961647727272728  7.982638888888888 13.23153409090909  C 8.143904320987655 13.501420454545453  8.334876543209877 13.636363636363637  8.555555555555555 13.636363636363637  C 8.776234567901234 13.636363636363637  8.967206790123457 13.501420454545453  9.128472222222223 13.23153409090909  Z M 10.879050925925926 0.20241477272727348  C 10.95968364197531 0.3373579545454525  11 0.49715909090909005  11 0.6818181818181812  L 11 11.59090909090909  C 11 11.697443181818182  10.991512345679013 11.791548295454545  10.974537037037038 11.873224431818182  C 10.957561728395062 11.95490056818182  10.92891589506173 12.02059659090909  10.888599537037038 12.0703125  C 10.848283179012347 12.12002840909091  10.813271604938272 12.160866477272728  10.783564814814815 12.192826704545455  C 10.75385802469136 12.224786931818182  10.703993055555555 12.24609375  10.633969907407408 12.25674715909091  C 10.56394675925926 12.267400568181818  10.516203703703704 12.274502840909092  10.49074074074074 12.278053977272728  C 10.465277777777777 12.281605113636363  10.411168981481481 12.281605113636363  10.328414351851853 12.278053977272728  C 10.245659722222223 12.274502840909092  10.197916666666668 12.272727272727272  10.185185185185185 12.272727272727272  C 10.185185185185185 13.025568181818182  10.026041666666668 13.668323863636363  9.70775462962963 14.200994318181818  C 9.389467592592592 14.733664772727273  9.005401234567902 15  8.555555555555555 15  C 8.10570987654321 15  7.721643518518518 14.733664772727273  7.403356481481482 14.200994318181818  C 7.085069444444445 13.668323863636363  6.9259259259259265 13.025568181818182  6.9259259259259265 12.272727272727272  L 4.481481481481481 12.272727272727272  C 4.481481481481481 13.025568181818182  4.322337962962963 13.668323863636363  4.0040509259259265 14.200994318181818  C 3.6857638888888884 14.733664772727273  3.3016975308641983 15  2.8518518518518516 15  C 2.4020061728395063 15  2.017939814814815 14.733664772727273  1.699652777777778 14.200994318181818  C 1.3813657407407407 13.668323863636363  1.222222222222222 13.025568181818182  1.222222222222222 12.272727272727272  L 0.8148148148148148 12.272727272727272  C 0.8020833333333334 12.272727272727272  0.7543402777777779 12.274502840909092  0.6715856481481481 12.278053977272728  C 0.5888310185185185 12.281605113636363  0.5347222222222222 12.281605113636363  0.5092592592592592 12.278053977272728  C 0.4837962962962963 12.274502840909092  0.43605324074074076 12.267400568181818  0.3660300925925926 12.25674715909091  C 0.29600694444444453 12.24609375  0.24614197530864212 12.224786931818182  0.2164351851851852 12.192826704545455  C 0.18672839506172845 12.160866477272728  0.15171682098765438 12.12002840909091  0.11140046296296297 12.0703125  C 0.07108410493827164 12.02059659090909  0.0424382716049383 11.95490056818182  0.02546296296296296 11.873224431818182  C 0.008487654320987715 11.791548295454545  0 11.697443181818182  0 11.59090909090909  C 0 11.406250000000002  0.04031635802469142 11.246448863636363  0.12094907407407407 11.111505681818182  C 0.20158179012345692 10.976562499999998  0.29706790123456805 10.90909090909091  0.4074074074074074 10.90909090909091  L 0.4074074074074074 7.5  C 0.4074074074074074 7.443181818181818  0.406346450617284 7.318892045454545  0.404224537037037 7.127130681818182  C 0.40210262345679015 6.935369318181818  0.40210262345679015 6.800426136363635  0.404224537037037 6.722301136363636  C 0.406346450617284 6.644176136363635  0.41165123456790137 6.521661931818181  0.42013888888888895 6.354758522727273  C 0.4286265432098766 6.187855113636363  0.44241898148148145 6.056463068181818  0.4615162037037037 5.960582386363636  C 0.48061342592592593 5.864701704545455  0.5103202160493828 5.756392045454544  0.5506365740740741 5.635653409090909  C 0.5909529320987654 5.514914772727273  0.6386959876543211 5.4083806818181825  0.6938657407407408 5.316051136363636  L 1.9542824074074074 3.206676136363636  C 2.0349151234567904 3.0717329545454537  2.1420717592592595 2.95809659090909  2.275752314814815 2.8657670454545454  C 2.4094328703703707 2.773437499999999  2.533564814814815 2.7272727272727266  2.648148148148148 2.7272727272727266  L 3.6666666666666665 2.7272727272727266  L 3.6666666666666665 0.6818181818181812  C 3.6666666666666665 0.49715909090909005  3.706983024691358 0.3373579545454525  3.787615740740741 0.20241477272727348  C 3.868248456790124 0.0674715909090895  3.963734567901235 0  4.0740740740740735 0  L 10.592592592592592 0  C 10.702932098765432 0  10.798418209876544 0.0674715909090895  10.879050925925926 0.20241477272727348  Z " fill-rule="nonzero" fill="#ffffff" stroke="none" transform="matrix(1 0 0 1 18 341 )" />
  </g>
</svg>