<?xml version="1.0" encoding="utf-8"?>
<svg version="1.1" xmlns:xlink="http://www.w3.org/1999/xlink" width="21px" height="23px" xmlns="http://www.w3.org/2000/svg">
  <g transform="matrix(1 0 0 1 -10 -199 )">
    <path d="M 8.75 10.541666666666668  L 8.75 14.375  L 12.25 12.458333333333336  L 8.75 10.541666666666668  Z M 7 9.358723958333332  L 14 5.525390625  L 14 13.641276041666664  L 7 17.474609375  L 7 9.358723958333332  Z M 16.939453125 15.587890625  C 17.604817708333332 14.340060763888886  17.9375 12.977430555555557  17.9375 11.5  C 17.9375 10.022569444444443  17.604817708333332 8.65993923611111  16.939453125 7.412109375  C 16.274088541666668 6.164279513888887  15.371744791666668 5.175998263888887  14.232421875 4.447265625  C 13.093098958333334 3.7185329861111107  11.848958333333334 3.3541666666666674  10.5 3.3541666666666674  C 9.151041666666666 3.3541666666666674  7.906901041666668 3.7185329861111107  6.767578125 4.447265625  C 5.628255208333334 5.175998263888887  4.725911458333334 6.164279513888887  4.060546875 7.412109375  C 3.395182291666667 8.65993923611111  3.0625 10.022569444444443  3.0625 11.5  C 3.0625 12.977430555555557  3.395182291666667 14.340060763888886  4.060546875 15.587890625  C 4.725911458333334 16.835720486111107  5.628255208333334 17.82400173611111  6.767578125 18.552734375  C 7.906901041666668 19.28146701388889  9.151041666666666 19.645833333333332  10.5 19.645833333333332  C 11.848958333333334 19.645833333333332  13.093098958333334 19.28146701388889  14.232421875 18.552734375  C 15.371744791666668 17.82400173611111  16.274088541666668 16.835720486111107  16.939453125 15.587890625  Z M 19.591796875 5.7275390625  C 20.530598958333332 7.489474826388887  21 9.41362847222222  21 11.5  C 21 13.586371527777779  20.530598958333332 15.510525173611109  19.591796875 17.2724609375  C 18.652994791666668 19.03439670138889  17.379231770833332 20.42947048611111  15.7705078125 21.457682291666668  C 14.161783854166668 22.485894097222225  12.404947916666668 23  10.5 23  C 8.595052083333334 23  6.838216145833334 22.485894097222225  5.2294921875 21.457682291666668  C 3.620768229166667 20.42947048611111  2.3470052083333335 19.03439670138889  1.408203125 17.2724609375  C 0.46940104166666663 15.510525173611109  0 13.586371527777779  0 11.5  C 0 9.41362847222222  0.46940104166666663 7.489474826388887  1.408203125 5.7275390625  C 2.3470052083333335 3.9656032986111107  3.620768229166667 2.5705295138888866  5.2294921875 1.5423177083333326  C 6.838216145833334 0.5141059027777758  8.595052083333334 0  10.5 0  C 12.404947916666668 0  14.161783854166668 0.5141059027777758  15.7705078125 1.5423177083333326  C 17.379231770833332 2.5705295138888866  18.652994791666668 3.9656032986111107  19.591796875 5.7275390625  Z " fill-rule="nonzero" fill="#ffffff" stroke="none" transform="matrix(1 0 0 1 10 199 )" />
  </g>
</svg>