<?xml version="1.0" encoding="utf-8"?>
<svg version="1.1" xmlns:xlink="http://www.w3.org/1999/xlink" width="12px" height="16px" xmlns="http://www.w3.org/2000/svg">
  <g transform="matrix(1 0 0 1 -88 -90 )">
    <path d="M 11.1953125 3.984375  C 11.731770833333332 5.210069444444443  12 6.548611111111109  12 8  C 12 9.45138888888889  11.731770833333332 10.789930555555554  11.1953125 12.015625  C 10.658854166666668 13.241319444444445  9.930989583333334 14.211805555555555  9.01171875 14.927083333333334  C 8.092447916666668 15.642361111111112  7.088541666666667 16  6 16  C 4.911458333333334 16  3.9075520833333335 15.642361111111112  2.98828125 14.927083333333334  C 2.069010416666667 14.211805555555555  1.3411458333333335 13.241319444444445  0.8046875 12.015625  C 0.26822916666666663 10.789930555555554  0 9.45138888888889  0 8  C 0 6.548611111111109  0.26822916666666663 5.210069444444443  0.8046875 3.984375  C 1.3411458333333335 2.7586805555555554  2.069010416666667 1.7881944444444429  2.98828125 1.072916666666666  C 3.9075520833333335 0.3576388888888875  4.911458333333334 0  6 0  C 7.088541666666667 0  8.092447916666668 0.3576388888888875  9.01171875 1.072916666666666  C 9.930989583333334 1.7881944444444429  10.658854166666668 2.7586805555555554  11.1953125 3.984375  Z " fill-rule="nonzero" fill="#63a103" stroke="none" transform="matrix(1 0 0 1 88 90 )" />
  </g>
</svg>