<?xml version="1.0" encoding="utf-8"?>
<svg version="1.1" xmlns:xlink="http://www.w3.org/1999/xlink" width="15px" height="18px" xmlns="http://www.w3.org/2000/svg">
  <g transform="matrix(1 0 0 1 -33 -607 )">
    <path d="M 3.9897017045454546 12.952566964285715  C 4.057173295454545 13.016183035714285  4.090909090909091 13.091517857142856  4.090909090909091 13.17857142857143  L 4.090909090909091 13.82142857142857  C 4.090909090909091 13.908482142857144  4.057173295454545 13.983816964285715  3.9897017045454546 14.047433035714285  C 3.9222301136363633 14.111049107142856  3.8423295454545454 14.142857142857142  3.75 14.142857142857142  L 3.0681818181818183 14.142857142857142  C 2.9758522727272734 14.142857142857142  2.895951704545455 14.111049107142856  2.8284801136363638 14.047433035714285  C 2.761008522727273 13.983816964285715  2.7272727272727275 13.908482142857144  2.7272727272727275 13.82142857142857  L 2.7272727272727275 13.17857142857143  C 2.7272727272727275 13.091517857142856  2.761008522727273 13.016183035714285  2.8284801136363638 12.952566964285715  C 2.895951704545455 12.888950892857144  2.9758522727272734 12.857142857142858  3.0681818181818183 12.857142857142858  L 3.75 12.857142857142858  C 3.8423295454545454 12.857142857142858  3.9222301136363633 12.888950892857144  3.9897017045454546 12.952566964285715  Z M 3.9897017045454546 10.381138392857142  C 4.057173295454545 10.444754464285714  4.090909090909091 10.520089285714285  4.090909090909091 10.607142857142858  L 4.090909090909091 11.25  C 4.090909090909091 11.33705357142857  4.057173295454545 11.412388392857142  3.9897017045454546 11.476004464285715  C 3.9222301136363633 11.539620535714288  3.8423295454545454 11.57142857142857  3.75 11.57142857142857  L 3.0681818181818183 11.57142857142857  C 2.9758522727272734 11.57142857142857  2.895951704545455 11.539620535714288  2.8284801136363638 11.476004464285715  C 2.761008522727273 11.412388392857142  2.7272727272727275 11.33705357142857  2.7272727272727275 11.25  L 2.7272727272727275 10.607142857142858  C 2.7272727272727275 10.520089285714285  2.761008522727273 10.444754464285714  2.8284801136363638 10.381138392857142  C 2.895951704545455 10.317522321428571  2.9758522727272734 10.285714285714285  3.0681818181818183 10.285714285714285  L 3.75 10.285714285714285  C 3.8423295454545454 10.285714285714285  3.9222301136363633 10.317522321428571  3.9897017045454546 10.381138392857142  Z M 6.716974431818182 10.381138392857142  C 6.784446022727273 10.444754464285714  6.818181818181818 10.520089285714285  6.818181818181818 10.607142857142858  L 6.818181818181818 11.25  C 6.818181818181818 11.33705357142857  6.784446022727273 11.412388392857142  6.716974431818182 11.476004464285715  C 6.649502840909092 11.539620535714288  6.569602272727273 11.57142857142857  6.4772727272727275 11.57142857142857  L 5.795454545454545 11.57142857142857  C 5.703125000000001 11.57142857142857  5.6232244318181825 11.539620535714288  5.555752840909091 11.476004464285715  C 5.488281250000001 11.412388392857142  5.454545454545455 11.33705357142857  5.454545454545455 11.25  L 5.454545454545455 10.607142857142858  C 5.454545454545455 10.520089285714285  5.488281250000001 10.444754464285714  5.555752840909091 10.381138392857142  C 5.6232244318181825 10.317522321428571  5.703125000000001 10.285714285714285  5.795454545454545 10.285714285714285  L 6.4772727272727275 10.285714285714285  C 6.569602272727273 10.285714285714285  6.649502840909092 10.317522321428571  6.716974431818182 10.381138392857142  Z M 3.9897017045454546 7.809709821428572  C 4.057173295454545 7.8733258928571415  4.090909090909091 7.9486607142857135  4.090909090909091 8.035714285714285  L 4.090909090909091 8.678571428571427  C 4.090909090909091 8.765625  4.057173295454545 8.840959821428571  3.9897017045454546 8.904575892857142  C 3.9222301136363633 8.968191964285714  3.8423295454545454 9  3.75 9  L 3.0681818181818183 9  C 2.9758522727272734 9  2.895951704545455 8.968191964285714  2.8284801136363638 8.904575892857142  C 2.761008522727273 8.840959821428571  2.7272727272727275 8.765625  2.7272727272727275 8.678571428571427  L 2.7272727272727275 8.035714285714285  C 2.7272727272727275 7.9486607142857135  2.761008522727273 7.8733258928571415  2.8284801136363638 7.809709821428572  C 2.895951704545455 7.746093750000002  2.9758522727272734 7.714285714285715  3.0681818181818183 7.714285714285715  L 3.75 7.714285714285715  C 3.8423295454545454 7.714285714285715  3.9222301136363633 7.746093750000002  3.9897017045454546 7.809709821428572  Z M 12.171519886363637 12.952566964285715  C 12.238991477272728 13.016183035714285  12.272727272727273 13.091517857142856  12.272727272727273 13.17857142857143  L 12.272727272727273 13.82142857142857  C 12.272727272727273 13.908482142857144  12.238991477272728 13.983816964285715  12.171519886363637 14.047433035714285  C 12.104048295454547 14.111049107142856  12.024147727272728 14.142857142857142  11.931818181818182 14.142857142857142  L 11.25 14.142857142857142  C 11.157670454545457 14.142857142857142  11.077769886363638 14.111049107142856  11.010298295454545 14.047433035714285  C 10.942826704545455 13.983816964285715  10.90909090909091 13.908482142857144  10.90909090909091 13.82142857142857  L 10.90909090909091 13.17857142857143  C 10.90909090909091 13.091517857142856  10.942826704545455 13.016183035714285  11.010298295454545 12.952566964285715  C 11.077769886363638 12.888950892857144  11.157670454545457 12.857142857142858  11.25 12.857142857142858  L 11.931818181818182 12.857142857142858  C 12.024147727272728 12.857142857142858  12.104048295454547 12.888950892857144  12.171519886363637 12.952566964285715  Z M 9.44424715909091 10.381138392857142  C 9.51171875 10.444754464285714  9.545454545454545 10.520089285714285  9.545454545454545 10.607142857142858  L 9.545454545454545 11.25  C 9.545454545454545 11.33705357142857  9.51171875 11.412388392857142  9.44424715909091 11.476004464285715  C 9.376775568181818 11.539620535714288  9.296875000000002 11.57142857142857  9.204545454545455 11.57142857142857  L 8.522727272727273 11.57142857142857  C 8.430397727272727 11.57142857142857  8.35049715909091 11.539620535714288  8.283025568181818 11.476004464285715  C 8.215553977272728 11.412388392857142  8.181818181818182 11.33705357142857  8.181818181818182 11.25  L 8.181818181818182 10.607142857142858  C 8.181818181818182 10.520089285714285  8.215553977272728 10.444754464285714  8.283025568181818 10.381138392857142  C 8.35049715909091 10.317522321428571  8.430397727272727 10.285714285714285  8.522727272727273 10.285714285714285  L 9.204545454545455 10.285714285714285  C 9.296875000000002 10.285714285714285  9.376775568181818 10.317522321428571  9.44424715909091 10.381138392857142  Z M 6.716974431818182 7.809709821428572  C 6.784446022727273 7.8733258928571415  6.818181818181818 7.9486607142857135  6.818181818181818 8.035714285714285  L 6.818181818181818 8.678571428571427  C 6.818181818181818 8.765625  6.784446022727273 8.840959821428571  6.716974431818182 8.904575892857142  C 6.649502840909092 8.968191964285714  6.569602272727273 9  6.4772727272727275 9  L 5.795454545454545 9  C 5.703125000000001 9  5.6232244318181825 8.968191964285714  5.555752840909091 8.904575892857142  C 5.488281250000001 8.840959821428571  5.454545454545455 8.765625  5.454545454545455 8.678571428571427  L 5.454545454545455 8.035714285714285  C 5.454545454545455 7.9486607142857135  5.488281250000001 7.8733258928571415  5.555752840909091 7.809709821428572  C 5.6232244318181825 7.746093750000002  5.703125000000001 7.714285714285715  5.795454545454545 7.714285714285715  L 6.4772727272727275 7.714285714285715  C 6.569602272727273 7.714285714285715  6.649502840909092 7.746093750000002  6.716974431818182 7.809709821428572  Z M 3.9897017045454546 5.23828125  C 4.057173295454545 5.301897321428571  4.090909090909091 5.3772321428571415  4.090909090909091 5.464285714285715  L 4.090909090909091 6.107142857142858  C 4.090909090909091 6.194196428571427  4.057173295454545 6.269531249999999  3.9897017045454546 6.333147321428572  C 3.9222301136363633 6.3967633928571415  3.8423295454545454 6.428571428571428  3.75 6.428571428571428  L 3.0681818181818183 6.428571428571428  C 2.9758522727272734 6.428571428571428  2.895951704545455 6.3967633928571415  2.8284801136363638 6.333147321428572  C 2.761008522727273 6.269531249999999  2.7272727272727275 6.194196428571427  2.7272727272727275 6.107142857142858  L 2.7272727272727275 5.464285714285715  C 2.7272727272727275 5.3772321428571415  2.761008522727273 5.301897321428571  2.8284801136363638 5.23828125  C 2.895951704545455 5.174665178571427  2.9758522727272734 5.142857142857142  3.0681818181818183 5.142857142857142  L 3.75 5.142857142857142  C 3.8423295454545454 5.142857142857142  3.9222301136363633 5.174665178571427  3.9897017045454546 5.23828125  Z M 12.171519886363637 10.381138392857142  C 12.238991477272728 10.444754464285714  12.272727272727273 10.520089285714285  12.272727272727273 10.607142857142858  L 12.272727272727273 11.25  C 12.272727272727273 11.33705357142857  12.238991477272728 11.412388392857142  12.171519886363637 11.476004464285715  C 12.104048295454547 11.539620535714288  12.024147727272728 11.57142857142857  11.931818181818182 11.57142857142857  L 11.25 11.57142857142857  C 11.157670454545457 11.57142857142857  11.077769886363638 11.539620535714288  11.010298295454545 11.476004464285715  C 10.942826704545455 11.412388392857142  10.90909090909091 11.33705357142857  10.90909090909091 11.25  L 10.90909090909091 10.607142857142858  C 10.90909090909091 10.520089285714285  10.942826704545455 10.444754464285714  11.010298295454545 10.381138392857142  C 11.077769886363638 10.317522321428571  11.157670454545457 10.285714285714285  11.25 10.285714285714285  L 11.931818181818182 10.285714285714285  C 12.024147727272728 10.285714285714285  12.104048295454547 10.317522321428571  12.171519886363637 10.381138392857142  Z M 9.44424715909091 7.809709821428572  C 9.51171875 7.8733258928571415  9.545454545454545 7.9486607142857135  9.545454545454545 8.035714285714285  L 9.545454545454545 8.678571428571427  C 9.545454545454545 8.765625  9.51171875 8.840959821428571  9.44424715909091 8.904575892857142  C 9.376775568181818 8.968191964285714  9.296875000000002 9  9.204545454545455 9  L 8.522727272727273 9  C 8.430397727272727 9  8.35049715909091 8.968191964285714  8.283025568181818 8.904575892857142  C 8.215553977272728 8.840959821428571  8.181818181818182 8.765625  8.181818181818182 8.678571428571427  L 8.181818181818182 8.035714285714285  C 8.181818181818182 7.9486607142857135  8.215553977272728 7.8733258928571415  8.283025568181818 7.809709821428572  C 8.35049715909091 7.746093750000002  8.430397727272727 7.714285714285715  8.522727272727273 7.714285714285715  L 9.204545454545455 7.714285714285715  C 9.296875000000002 7.714285714285715  9.376775568181818 7.746093750000002  9.44424715909091 7.809709821428572  Z M 6.716974431818182 5.23828125  C 6.784446022727273 5.301897321428571  6.818181818181818 5.3772321428571415  6.818181818181818 5.464285714285715  L 6.818181818181818 6.107142857142858  C 6.818181818181818 6.194196428571427  6.784446022727273 6.269531249999999  6.716974431818182 6.333147321428572  C 6.649502840909092 6.3967633928571415  6.569602272727273 6.428571428571428  6.4772727272727275 6.428571428571428  L 5.795454545454545 6.428571428571428  C 5.703125000000001 6.428571428571428  5.6232244318181825 6.3967633928571415  5.555752840909091 6.333147321428572  C 5.488281250000001 6.269531249999999  5.454545454545455 6.194196428571427  5.454545454545455 6.107142857142858  L 5.454545454545455 5.464285714285715  C 5.454545454545455 5.3772321428571415  5.488281250000001 5.301897321428571  5.555752840909091 5.23828125  C 5.6232244318181825 5.174665178571427  5.703125000000001 5.142857142857142  5.795454545454545 5.142857142857142  L 6.4772727272727275 5.142857142857142  C 6.569602272727273 5.142857142857142  6.649502840909092 5.174665178571427  6.716974431818182 5.23828125  Z M 3.9897017045454546 2.666852678571428  C 4.057173295454545 2.7304687499999987  4.090909090909091 2.805803571428571  4.090909090909091 2.8928571428571423  L 4.090909090909091 3.535714285714285  C 4.090909090909091 3.622767857142855  4.057173295454545 3.698102678571427  3.9897017045454546 3.76171875  C 3.9222301136363633 3.825334821428571  3.8423295454545454 3.8571428571428577  3.75 3.8571428571428577  L 3.0681818181818183 3.8571428571428577  C 2.9758522727272734 3.8571428571428577  2.895951704545455 3.825334821428571  2.8284801136363638 3.76171875  C 2.761008522727273 3.698102678571427  2.7272727272727275 3.622767857142855  2.7272727272727275 3.535714285714285  L 2.7272727272727275 2.8928571428571423  C 2.7272727272727275 2.805803571428571  2.761008522727273 2.7304687499999987  2.8284801136363638 2.666852678571428  C 2.895951704545455 2.603236607142855  2.9758522727272734 2.571428571428572  3.0681818181818183 2.571428571428572  L 3.75 2.571428571428572  C 3.8423295454545454 2.571428571428572  3.9222301136363633 2.603236607142855  3.9897017045454546 2.666852678571428  Z M 12.171519886363637 7.809709821428572  C 12.238991477272728 7.8733258928571415  12.272727272727273 7.9486607142857135  12.272727272727273 8.035714285714285  L 12.272727272727273 8.678571428571427  C 12.272727272727273 8.765625  12.238991477272728 8.840959821428571  12.171519886363637 8.904575892857142  C 12.104048295454547 8.968191964285714  12.024147727272728 9  11.931818181818182 9  L 11.25 9  C 11.157670454545457 9  11.077769886363638 8.968191964285714  11.010298295454545 8.904575892857142  C 10.942826704545455 8.840959821428571  10.90909090909091 8.765625  10.90909090909091 8.678571428571427  L 10.90909090909091 8.035714285714285  C 10.90909090909091 7.9486607142857135  10.942826704545455 7.8733258928571415  11.010298295454545 7.809709821428572  C 11.077769886363638 7.746093750000002  11.157670454545457 7.714285714285715  11.25 7.714285714285715  L 11.931818181818182 7.714285714285715  C 12.024147727272728 7.714285714285715  12.104048295454547 7.746093750000002  12.171519886363637 7.809709821428572  Z M 9.44424715909091 5.23828125  C 9.51171875 5.301897321428571  9.545454545454545 5.3772321428571415  9.545454545454545 5.464285714285715  L 9.545454545454545 6.107142857142858  C 9.545454545454545 6.194196428571427  9.51171875 6.269531249999999  9.44424715909091 6.333147321428572  C 9.376775568181818 6.3967633928571415  9.296875000000002 6.428571428571428  9.204545454545455 6.428571428571428  L 8.522727272727273 6.428571428571428  C 8.430397727272727 6.428571428571428  8.35049715909091 6.3967633928571415  8.283025568181818 6.333147321428572  C 8.215553977272728 6.269531249999999  8.181818181818182 6.194196428571427  8.181818181818182 6.107142857142858  L 8.181818181818182 5.464285714285715  C 8.181818181818182 5.3772321428571415  8.215553977272728 5.301897321428571  8.283025568181818 5.23828125  C 8.35049715909091 5.174665178571427  8.430397727272727 5.142857142857142  8.522727272727273 5.142857142857142  L 9.204545454545455 5.142857142857142  C 9.296875000000002 5.142857142857142  9.376775568181818 5.174665178571427  9.44424715909091 5.23828125  Z M 6.716974431818182 2.666852678571428  C 6.784446022727273 2.7304687499999987  6.818181818181818 2.805803571428571  6.818181818181818 2.8928571428571423  L 6.818181818181818 3.535714285714285  C 6.818181818181818 3.622767857142855  6.784446022727273 3.698102678571427  6.716974431818182 3.76171875  C 6.649502840909092 3.825334821428571  6.569602272727273 3.8571428571428577  6.4772727272727275 3.8571428571428577  L 5.795454545454545 3.8571428571428577  C 5.703125000000001 3.8571428571428577  5.6232244318181825 3.825334821428571  5.555752840909091 3.76171875  C 5.488281250000001 3.698102678571427  5.454545454545455 3.622767857142855  5.454545454545455 3.535714285714285  L 5.454545454545455 2.8928571428571423  C 5.454545454545455 2.805803571428571  5.488281250000001 2.7304687499999987  5.555752840909091 2.666852678571428  C 5.6232244318181825 2.603236607142855  5.703125000000001 2.571428571428572  5.795454545454545 2.571428571428572  L 6.4772727272727275 2.571428571428572  C 6.569602272727273 2.571428571428572  6.649502840909092 2.603236607142855  6.716974431818182 2.666852678571428  Z M 12.171519886363637 5.23828125  C 12.238991477272728 5.301897321428571  12.272727272727273 5.3772321428571415  12.272727272727273 5.464285714285715  L 12.272727272727273 6.107142857142858  C 12.272727272727273 6.194196428571427  12.238991477272728 6.269531249999999  12.171519886363637 6.333147321428572  C 12.104048295454547 6.3967633928571415  12.024147727272728 6.428571428571428  11.931818181818182 6.428571428571428  L 11.25 6.428571428571428  C 11.157670454545457 6.428571428571428  11.077769886363638 6.3967633928571415  11.010298295454545 6.333147321428572  C 10.942826704545455 6.269531249999999  10.90909090909091 6.194196428571427  10.90909090909091 6.107142857142858  L 10.90909090909091 5.464285714285715  C 10.90909090909091 5.3772321428571415  10.942826704545455 5.301897321428571  11.010298295454545 5.23828125  C 11.077769886363638 5.174665178571427  11.157670454545457 5.142857142857142  11.25 5.142857142857142  L 11.931818181818182 5.142857142857142  C 12.024147727272728 5.142857142857142  12.104048295454547 5.174665178571427  12.171519886363637 5.23828125  Z M 9.44424715909091 2.666852678571428  C 9.51171875 2.7304687499999987  9.545454545454545 2.805803571428571  9.545454545454545 2.8928571428571423  L 9.545454545454545 3.535714285714285  C 9.545454545454545 3.622767857142855  9.51171875 3.698102678571427  9.44424715909091 3.76171875  C 9.376775568181818 3.825334821428571  9.296875000000002 3.8571428571428577  9.204545454545455 3.8571428571428577  L 8.522727272727273 3.8571428571428577  C 8.430397727272727 3.8571428571428577  8.35049715909091 3.825334821428571  8.283025568181818 3.76171875  C 8.215553977272728 3.698102678571427  8.181818181818182 3.622767857142855  8.181818181818182 3.535714285714285  L 8.181818181818182 2.8928571428571423  C 8.181818181818182 2.805803571428571  8.215553977272728 2.7304687499999987  8.283025568181818 2.666852678571428  C 8.35049715909091 2.603236607142855  8.430397727272727 2.571428571428572  8.522727272727273 2.571428571428572  L 9.204545454545455 2.571428571428572  C 9.296875000000002 2.571428571428572  9.376775568181818 2.603236607142855  9.44424715909091 2.666852678571428  Z M 12.171519886363637 2.666852678571428  C 12.238991477272728 2.7304687499999987  12.272727272727273 2.805803571428571  12.272727272727273 2.8928571428571423  L 12.272727272727273 3.535714285714285  C 12.272727272727273 3.622767857142855  12.238991477272728 3.698102678571427  12.171519886363637 3.76171875  C 12.104048295454547 3.825334821428571  12.024147727272728 3.8571428571428577  11.931818181818182 3.8571428571428577  L 11.25 3.8571428571428577  C 11.157670454545457 3.8571428571428577  11.077769886363638 3.825334821428571  11.010298295454545 3.76171875  C 10.942826704545455 3.698102678571427  10.90909090909091 3.622767857142855  10.90909090909091 3.535714285714285  L 10.90909090909091 2.8928571428571423  C 10.90909090909091 2.805803571428571  10.942826704545455 2.7304687499999987  11.010298295454545 2.666852678571428  C 11.077769886363638 2.603236607142855  11.157670454545457 2.571428571428572  11.25 2.571428571428572  L 11.931818181818182 2.571428571428572  C 12.024147727272728 2.571428571428572  12.104048295454547 2.603236607142855  12.171519886363637 2.666852678571428  Z M 9.545454545454545 14.464285714285715  L 9.545454545454545 16.714285714285715  L 13.636363636363637 16.714285714285715  L 13.636363636363637 1.2857142857142851  L 1.3636363636363638 1.2857142857142851  L 1.3636363636363638 16.714285714285715  L 5.454545454545455 16.714285714285715  L 5.454545454545455 14.464285714285715  C 5.454545454545455 14.377232142857142  5.488281250000001 14.301897321428571  5.555752840909091 14.23828125  C 5.6232244318181825 14.174665178571429  5.703125000000001 14.142857142857142  5.795454545454545 14.142857142857142  L 9.204545454545455 14.142857142857142  C 9.296875000000002 14.142857142857142  9.376775568181818 14.174665178571429  9.44424715909091 14.23828125  C 9.51171875 14.301897321428571  9.545454545454545 14.377232142857142  9.545454545454545 14.464285714285715  Z M 14.797585227272727 0.19084821428571486  C 14.93252840909091 0.31808035714285476  15 0.46874999999999933  15 0.6428571428571426  L 15 17.357142857142858  C 15 17.53125  14.93252840909091 17.681919642857142  14.797585227272727 17.809151785714285  C 14.662642045454547 17.93638392857143  14.50284090909091 18  14.318181818181818 18  L 0.6818181818181819 18  C 0.497159090909091 18  0.3373579545454546 17.93638392857143  0.20241477272727273 17.809151785714285  C 0.0674715909090909 17.681919642857142  0 17.53125  0 17.357142857142858  L 0 0.6428571428571426  C 0 0.46874999999999933  0.0674715909090909 0.31808035714285476  0.20241477272727273 0.19084821428571486  C 0.3373579545454546 0.06361607142857295  0.497159090909091 0  0.6818181818181819 0  L 14.318181818181818 0  C 14.50284090909091 0  14.662642045454547 0.06361607142857295  14.797585227272727 0.19084821428571486  Z " fill-rule="nonzero" fill="#ffffff" stroke="none" transform="matrix(1 0 0 1 33 607 )" />
  </g>
</svg>