<?xml version="1.0" encoding="utf-8"?>
<svg version="1.1" xmlns:xlink="http://www.w3.org/1999/xlink" width="27px" height="25px" xmlns="http://www.w3.org/2000/svg">
  <g transform="matrix(1 0 0 1 -22 -140 )">
    <path d="M 23.118959107806692 14.282930631332814  C 23.130111524163567 14.308911405559884  23.13568773234201 14.347882566900495  23.13568773234201 14.399844115354638  L 23.13568773234201 23.752922837100545  C 23.13568773234201 24.09067290205248  23.029739776951676 24.38295661210704  22.817843866171003 24.629773967264224  C 22.605947955390338 24.876591322421408  22.355018587360597 25  22.065055762081784 25  L 15.641263940520446 25  L 15.641263940520446 17.517537022603275  L 11.358736059479554 17.517537022603275  L 11.358736059479554 25  L 4.934944237918216 25  C 4.644981412639406 25  4.394052044609666 24.876591322421408  4.182156133828996 24.629773967264224  C 3.9702602230483275 24.38295661210704  3.864312267657992 24.09067290205248  3.864312267657992 23.752922837100545  L 3.864312267657992 14.399844115354638  C 3.864312267657992 14.3868537282411  3.8671003717472123 14.367368147570797  3.8726765799256504 14.341387373343725  C 3.87825278810409 14.315406599116653  3.8810408921933086 14.29592101844635  3.8810408921933086 14.282930631332814  L 13.5 5.046765393608729  L 23.118959107806692 14.282930631332814  Z M 26.983271375464682 12.597427903351521  C 26.994423791821564 12.772798129384256  26.955390334572492 12.925435177968303  26.866171003717472 13.055339049103665  L 25.828996282527882 14.497272018706159  C 25.739776951672866 14.614185502727983  25.622676579925653 14.68563263185243  25.477695167286246 14.711613406079502  L 25.427509293680295 14.711613406079502  C 25.28252788104089 14.711613406079502  25.165427509293682 14.666147051182124  25.076208178438662 14.57521434138737  L 13.5 3.33203429462198  L 1.9237918215613383 14.57521434138737  C 1.7899628252788105 14.679137438295658  1.6561338289962826 14.724603793193037  1.5223048327137547 14.711613406079502  C 1.3773234200743496 14.68563263185243  1.2602230483271377 14.614185502727983  1.1710037174721188 14.497272018706159  L 0.1338289962825279 13.055339049103665  C 0.04460966542750931 12.925435177968303  0.005576208178438701 12.772798129384256  0.016728624535315987 12.597427903351521  C 0.02788104089219339 12.422057677318785  0.08921933085501862 12.282411015848272  0.2007434944237918 12.178487918939984  L 12.228624535315985 0.5066250974279041  C 12.58550185873606 0.16887503247596525  13.009293680297398 0  13.5 0  C 13.990706319702605 0  14.414498141263943 0.16887503247596525  14.771375464684015 0.5066250974279041  L 18.853159851301115 4.481683554169913  L 18.853159851301115 0.681995323460638  C 18.853159851301115 0.5001299038711327  18.903345724907062 0.35074045206547055  19.003717472118957 0.2338269680436489  C 19.104089219330856 0.11691348402182444  19.232342007434944 0.05845674201091222  19.388475836431226 0.05845674201091222  L 22.6003717472119 0.05845674201091222  C 22.75650557620818 0.05845674201091222  22.884758364312265 0.11691348402182444  22.985130111524164 0.2338269680436489  C 23.08550185873606 0.35074045206547055  23.13568773234201 0.5001299038711327  23.13568773234201 0.681995323460638  L 23.13568773234201 8.63211223694466  L 26.799256505576206 12.178487918939984  C 26.910780669144984 12.282411015848272  26.97211895910781 12.422057677318785  26.983271375464682 12.597427903351521  Z " fill-rule="nonzero" fill="#ffffff" stroke="none" transform="matrix(1 0 0 1 22 140 )" />
  </g>
</svg>