<?xml version="1.0" encoding="utf-8"?>
<svg version="1.1" xmlns:xlink="http://www.w3.org/1999/xlink" width="15px" height="18px" xmlns="http://www.w3.org/2000/svg">
  <g transform="matrix(1 0 0 1 -33 -411 )">
    <path d="M 14.765625 12.328124999999998  C 14.921875000000002 12.546874999999996  15 12.8125  15 13.125000000000002  L 15 16.875  C 15 17.1875  14.921875000000002 17.453125  14.765625 17.671875  C 14.609375 17.890625  14.419642857142858 18  14.196428571428571 18  L 11.517857142857144 18  C 11.29464285714286 18  11.104910714285715 17.890625  10.948660714285715 17.671875  C 10.792410714285715 17.453125  10.714285714285715 17.1875  10.714285714285715 16.875  L 10.714285714285715 13.125000000000002  C 10.714285714285715 12.8125  10.792410714285715 12.546874999999996  10.948660714285715 12.328124999999998  C 11.104910714285715 12.109375  11.29464285714286 12.000000000000002  11.517857142857144 12.000000000000002  L 12.321428571428571 12.000000000000002  L 12.321428571428571 9.750000000000002  L 8.035714285714285 9.750000000000002  L 8.035714285714285 12.000000000000002  L 8.839285714285715 12.000000000000002  C 9.062500000000002 12.000000000000002  9.252232142857144 12.109375  9.408482142857144 12.328124999999998  C 9.564732142857142 12.546874999999996  9.642857142857144 12.8125  9.642857142857144 13.125000000000002  L 9.642857142857144 16.875  C 9.642857142857144 17.1875  9.564732142857142 17.453125  9.408482142857144 17.671875  C 9.252232142857144 17.890625  9.062500000000002 18  8.839285714285715 18  L 6.160714285714286 18  C 5.937500000000001 18  5.747767857142858 17.890625  5.591517857142858 17.671875  C 5.435267857142858 17.453125  5.357142857142858 17.1875  5.357142857142858 16.875  L 5.357142857142858 13.125000000000002  C 5.357142857142858 12.8125  5.435267857142858 12.546874999999996  5.591517857142858 12.328124999999998  C 5.747767857142858 12.109375  5.937500000000001 12.000000000000002  6.160714285714286 12.000000000000002  L 6.964285714285714 12.000000000000002  L 6.964285714285714 9.750000000000002  L 2.678571428571429 9.750000000000002  L 2.678571428571429 12.000000000000002  L 3.482142857142857 12.000000000000002  C 3.7053571428571432 12.000000000000002  3.895089285714286 12.109375  4.051339285714286 12.328124999999998  C 4.207589285714286 12.546874999999996  4.285714285714286 12.8125  4.285714285714286 13.125000000000002  L 4.285714285714286 16.875  C 4.285714285714286 17.1875  4.207589285714286 17.453125  4.051339285714286 17.671875  C 3.895089285714286 17.890625  3.7053571428571432 18  3.482142857142857 18  L 0.8035714285714285 18  C 0.580357142857143 18  0.390625 17.890625  0.234375 17.671875  C 0.078125 17.453125  0 17.1875  0 16.875  L 0 13.125000000000002  C 0 12.8125  0.078125 12.546874999999996  0.234375 12.328124999999998  C 0.390625 12.109375  0.580357142857143 12.000000000000002  0.8035714285714285 12.000000000000002  L 1.607142857142857 12.000000000000002  L 1.607142857142857 9.750000000000002  C 1.607142857142857 9.343749999999998  1.7131696428571428 8.9921875  1.9252232142857142 8.6953125  C 2.1372767857142856 8.398437499999998  2.388392857142857 8.25  2.678571428571429 8.25  L 6.964285714285714 8.25  L 6.964285714285714 6.000000000000001  L 6.160714285714286 6.000000000000001  C 5.937500000000001 6.000000000000001  5.747767857142858 5.890624999999997  5.591517857142858 5.671874999999999  C 5.435267857142858 5.453124999999999  5.357142857142858 5.187499999999997  5.357142857142858 4.875000000000001  L 5.357142857142858 1.125  C 5.357142857142858 0.8124999999999991  5.435267857142858 0.5468749999999976  5.591517857142858 0.32812499999999933  C 5.747767857142858 0.10937499999999911  5.937500000000001 0  6.160714285714286 0  L 8.839285714285715 0  C 9.062500000000002 0  9.252232142857144 0.10937499999999911  9.408482142857144 0.32812499999999933  C 9.564732142857142 0.5468749999999976  9.642857142857144 0.8124999999999991  9.642857142857144 1.125  L 9.642857142857144 4.875000000000001  C 9.642857142857144 5.187499999999997  9.564732142857142 5.453124999999999  9.408482142857144 5.671874999999999  C 9.252232142857144 5.890624999999997  9.062500000000002 6.000000000000001  8.839285714285715 6.000000000000001  L 8.035714285714285 6.000000000000001  L 8.035714285714285 8.25  L 12.321428571428571 8.25  C 12.611607142857142 8.25  12.862723214285715 8.398437499999998  13.074776785714285 8.6953125  C 13.28683035714286 8.9921875  13.392857142857144 9.343749999999998  13.392857142857144 9.750000000000002  L 13.392857142857144 12.000000000000002  L 14.196428571428571 12.000000000000002  C 14.419642857142858 12.000000000000002  14.609375 12.109375  14.765625 12.328124999999998  Z " fill-rule="nonzero" fill="#ffffff" stroke="none" transform="matrix(1 0 0 1 33 411 )" />
  </g>
</svg>