<?xml version="1.0" encoding="utf-8"?>
<svg version="1.1" xmlns:xlink="http://www.w3.org/1999/xlink" width="15px" height="17px" xmlns="http://www.w3.org/2000/svg">
  <g transform="matrix(1 0 0 1 -33 -315 )">
    <path d="M 14.23469387755102 3.3977864583333326  C 14.462785114045621 3.5084635416666674  14.63985594237695 3.667100694444443  14.765906362545017 3.8736979166666674  C 15.006002400960384 4.294270833333333  15.060024009603842 4.770182291666667  14.92797118847539 5.301432291666667  L 12.451980792316927 15.328776041666668  C 12.33793517406963 15.80099826388889  12.108343337334935 16.197591145833332  11.763205282112846 16.5185546875  C 11.418067226890757 16.839518229166668  11.050420168067227 17  10.660264105642257 17  L 2.349939975990396 17  C 1.8877551020408163 17  1.442076830732293 16.802625868055557  1.012905162064826 16.407877604166668  C 0.583733493397359 16.01312934027778  0.2851140456182473 15.527994791666668  0.117046818727491 14.952473958333332  C -0.02701080432172869 14.458116319444443  -0.03301320528211285 13.989583333333332  0.09903961584633854 13.546875  C 0.09903961584633854 13.51736111111111  0.10804321728691477 13.41775173611111  0.12605042016806722 13.248046875  C 0.14405762304921968 13.078342013888888  0.156062424969988 12.941840277777777  0.16206482593037216 12.838541666666668  C 0.16806722689075632 12.77951388888889  0.15906362545018007 12.7001953125  0.13505402160864344 12.6005859375  C 0.11104441776710686 12.5009765625  0.10204081632653061 12.429036458333334  0.10804321728691477 12.384765625  C 0.12004801920768307 12.303602430555555  0.14405762304921968 12.226128472222221  0.18007202881152462 12.15234375  C 0.21608643457382953 12.078559027777775  0.26560624249699877 11.991861979166666  0.32863145258103243 11.892252604166666  C 0.39165666266506605 11.792643229166666  0.4411764705882353 11.705946180555555  0.4771908763505402 11.632161458333334  C 0.6152460984393758 11.351779513888886  0.7503001200480193 11.014214409722221  0.8823529411764706 10.619466145833334  C 1.014405762304922 10.224717881944445  1.1044417767106842 9.887152777777775  1.1524609843937574 9.606770833333334  C 1.1704681872749099 9.53298611111111  1.171968787515006 9.422309027777775  1.1569627851140456 9.274739583333334  C 1.1419567827130854 9.12717013888889  1.140456182472989 9.023871527777775  1.1524609843937574 8.96484375  C 1.1704681872749099 8.883680555555555  1.2214885954381756 8.780381944444445  1.3055222088835534 8.654947916666666  C 1.3895558223289315 8.52951388888889  1.440576230492197 8.444661458333332  1.4585834333733494 8.400390625  C 1.5846338535414166 8.134765625  1.7106842737094838 7.795355902777778  1.836734693877551 7.382161458333333  C 1.962785114045618 6.9689670138888875  2.0378151260504205 6.6369357638888875  2.0618247298919568 6.386067708333333  C 2.067827130852341 6.319661458333333  2.060324129651861 6.201605902777778  2.0393157262905164 6.031901041666667  C 2.018307322929172 5.862196180555555  2.019807923169268 5.758897569444443  2.0438175270108045 5.722005208333333  C 2.067827130852341 5.626085069444443  2.133853541416567 5.513563368055554  2.2418967587034815 5.384440104166667  C 2.349939975990396 5.255316840277778  2.415966386554622 5.172309027777778  2.4399759903961584 5.135416666666667  C 2.5540216086434575 4.9435763888888875  2.681572629051621 4.6318359375  2.8226290516206483 4.2001953125  C 2.963685474189676 3.7685546875  3.0462184873949583 3.4125434027777777  3.0702280912364945 3.1321614583333326  C 3.076230492196879 3.073133680555553  3.0672268907563027 2.9790581597222205  3.043217286914766 2.8499348958333326  C 3.0192076830732297 2.720811631944443  3.0132052821128457 2.623046875  3.0252100840336134 2.556640625  C 3.037214885954382 2.4976128472222205  3.064225690276111 2.4312065972222205  3.1062424969987994 2.357421875  C 3.1482593037214888 2.2836371527777777  3.2022809123649463 2.1987847222222205  3.2683073229291715 2.1028645833333326  C 3.3343337334933976 2.006944444444443  3.385354141656663 1.9294704861111103  3.4213685474189677 1.8704427083333326  C 3.4693877551020416 1.7819010416666674  3.5189075630252105 1.6693793402777777  3.5699279711884753 1.5328776041666674  C 3.620948379351741 1.3963758680555531  3.665966386554622 1.2672526041666674  3.704981992797119 1.1455078125  C 3.743997599039616 1.0237630208333326  3.79201680672269 0.8909505208333327  3.8490396158463382 0.7470703125  C 3.9060624249699885 0.6031901041666673  3.9645858343337337 0.4851345486111103  4.024609843937575 0.3929036458333327  C 4.084633853541417 0.30067274305555325  4.1641656662665065 0.21397569444444298  4.263205282112845 0.1328125  C 4.362244897959185 0.05164930555555325  4.470288115246099 0.009223090277777568  4.587334933973589 0.005533854166667296  C 4.704381752701081 0.0018446180555532488  4.846938775510204 0.022135416666667296  5.01500600240096 0.06640625  L 5.0060024009603845 0.099609375  C 5.234093637454982 0.033203125  5.387154861944778 0  5.465186074429772 0  L 12.316926770708283 0  C 12.761104441776713 0  13.103241296518608 0.20659722222222054  13.343337334933974 0.6197916666666673  C 13.583433373349342 1.0329861111111103  13.637454981992798 1.5125868055555531  13.505402160864346 2.05859375  L 11.038415366146458 12.0859375  C 10.822328931572628 12.963975694444443  10.607743097238897 13.5302734375  10.394657863145259 13.784830729166668  C 10.181572629051622 14.039388020833332  9.795918367346937 14.166666666666668  9.237695078031212 14.166666666666668  L 1.4135654261704682 14.166666666666668  C 1.2515006002400961 14.166666666666668  1.1374549819927973 14.222005208333332  1.0714285714285714 14.332682291666668  C 1.0054021608643458 14.450737847222223  1.0024009603841537 14.609375  1.062424969987995 14.80859375  C 1.2064825930372147 15.325086805555557  1.638655462184874 15.583333333333332  2.3589435774309724 15.583333333333332  L 10.669267707082833 15.583333333333332  C 10.843337334933974 15.583333333333332  11.01140456182473 15.52615017361111  11.173469387755103 15.411783854166668  C 11.335534213685474 15.297417534722223  11.440576230492198 15.14431423611111  11.48859543817527 14.952473958333332  L 14.18967587034814 4.028645833333333  C 14.23169267707083 3.866319444444443  14.24669867947179 3.6560329861111103  14.23469387755102 3.3977864583333326  Z M 5.375150060024009 3.1875  L 5.186074429771909 3.8958333333333326  C 5.162064825930372 3.9917534722222205  5.168067226890757 4.0747612847222205  5.204081632653061 4.144856770833333  C 5.240096038415366 4.214952256944443  5.300120048019209 4.25  5.384153661464586 4.25  L 10.858343337334935 4.25  C 10.936374549819929 4.25  11.012905162064826 4.214952256944443  11.087935174069628 4.144856770833333  C 11.16296518607443 4.0747612847222205  11.2124849939976 3.9917534722222205  11.236494597839137 3.8958333333333326  L 11.425570228091237 3.1875  C 11.449579831932773 3.0915798611111103  11.44357743097239 3.0085720486111103  11.407563025210084 2.9384765625  C 11.371548619447779 2.868381076388888  11.31152460984394 2.8333333333333326  11.22749099639856 2.8333333333333326  L 5.7533013205282115 2.8333333333333326  C 5.675270108043217 2.8333333333333326  5.59873949579832 2.868381076388888  5.5237094837935174 2.9384765625  C 5.448679471788716 3.0085720486111103  5.399159663865547 3.0915798611111103  5.375150060024009 3.1875  Z M 4.627851140456182 6.020833333333333  L 4.438775510204081 6.729166666666667  C 4.414765906362545 6.825086805555555  4.42076830732293 6.908094618055555  4.456782713085234 6.978190104166667  C 4.492797118847539 7.048285590277778  4.55282112845138 7.083333333333333  4.636854741896759 7.083333333333333  L 10.111044417767106 7.083333333333333  C 10.189075630252102 7.083333333333333  10.265606242497 7.048285590277778  10.3406362545018 6.978190104166667  C 10.415666266506605 6.908094618055555  10.465186074429772 6.825086805555555  10.489195678271308 6.729166666666667  L 10.678271308523408 6.020833333333333  C 10.702280912364946 5.924913194444443  10.69627851140456 5.841905381944443  10.660264105642257 5.771809895833333  C 10.624249699879952 5.701714409722222  10.564225690276112 5.666666666666667  10.480192076830733 5.666666666666667  L 5.0060024009603845 5.666666666666667  C 4.927971188475391 5.666666666666667  4.851440576230493 5.701714409722222  4.77641056422569 5.771809895833333  C 4.701380552220889 5.841905381944443  4.65186074429772 5.924913194444443  4.627851140456182 6.020833333333333  Z " fill-rule="nonzero" fill="#ffffff" stroke="none" transform="matrix(1 0 0 1 33 315 )" />
  </g>
</svg>