<?xml version="1.0" encoding="utf-8"?>
<svg version="1.1" xmlns:xlink="http://www.w3.org/1999/xlink" width="15px" height="18px" xmlns="http://www.w3.org/2000/svg">
  <g transform="matrix(1 0 0 1 -33 -509 )">
    <path d="M 11.3671875 6.3025568181818175  C 11.481370192307693 6.140624999999998  11.538461538461538 5.948863636363636  11.538461538461538 5.727272727272728  C 11.538461538461538 5.505681818181817  11.481370192307693 5.3139204545454515  11.3671875 5.151988636363637  C 11.253004807692308 4.990056818181818  11.117788461538463 4.909090909090908  10.961538461538462 4.909090909090908  C 10.805288461538462 4.909090909090908  10.670072115384617 4.990056818181818  10.555889423076923 5.151988636363637  L 9.230769230769232 7.018465909090908  L 9.230769230769232 3.2727272727272716  C 9.230769230769232 3.0511363636363624  9.173677884615385 2.8593749999999973  9.059495192307692 2.6974431818181825  C 8.945312500000002 2.5355113636363615  8.810096153846153 2.454545454545454  8.653846153846153 2.454545454545454  C 8.497596153846155 2.454545454545454  8.362379807692308 2.5355113636363615  8.248197115384615 2.6974431818181825  C 8.134014423076923 2.8593749999999973  8.076923076923077 3.0511363636363624  8.076923076923077 3.2727272727272716  L 8.076923076923077 7.018465909090908  L 6.751802884615384 5.151988636363637  C 6.6376201923076925 4.990056818181818  6.502403846153847 4.909090909090908  6.346153846153846 4.909090909090908  C 6.189903846153847 4.909090909090908  6.054687500000001 4.990056818181818  5.9405048076923075 5.151988636363637  C 5.826322115384616 5.3139204545454515  5.769230769230769 5.505681818181817  5.769230769230769 5.727272727272728  C 5.769230769230769 5.948863636363636  5.826322115384616 6.140624999999998  5.9405048076923075 6.3025568181818175  L 8.248197115384615 9.575284090909092  C 8.362379807692308 9.73721590909091  8.497596153846155 9.818181818181817  8.653846153846153 9.818181818181817  C 8.810096153846153 9.818181818181817  8.945312500000002 9.73721590909091  9.059495192307692 9.575284090909092  L 11.3671875 6.3025568181818175  Z M 5.431189903846154 15.206676136363637  C 5.656550480769231 15.526278409090908  5.769230769230769 15.911931818181818  5.769230769230769 16.363636363636363  C 5.769230769230769 16.815340909090907  5.656550480769231 17.200994318181817  5.431189903846154 17.52059659090909  C 5.205829326923077 17.840198863636363  4.933894230769231 18  4.615384615384616 18  C 4.296875000000001 18  4.024939903846155 17.840198863636363  3.7995793269230766 17.52059659090909  C 3.57421875 17.200994318181817  3.4615384615384617 16.815340909090907  3.4615384615384617 16.363636363636363  C 3.4615384615384617 15.911931818181818  3.57421875 15.526278409090908  3.7995793269230766 15.206676136363637  C 4.024939903846155 14.887073863636363  4.296875000000001 14.727272727272727  4.615384615384616 14.727272727272727  C 4.933894230769231 14.727272727272727  5.205829326923077 14.887073863636363  5.431189903846154 15.206676136363637  Z M 13.508112980769232 15.206676136363637  C 13.733473557692308 15.526278409090908  13.846153846153847 15.911931818181818  13.846153846153847 16.363636363636363  C 13.846153846153847 16.815340909090907  13.733473557692308 17.200994318181817  13.508112980769232 17.52059659090909  C 13.282752403846153 17.840198863636363  13.010817307692308 18  12.692307692307692 18  C 12.373798076923077 18  12.101862980769232 17.840198863636363  11.876502403846153 17.52059659090909  C 11.651141826923077 17.200994318181817  11.538461538461538 16.815340909090907  11.538461538461538 16.363636363636363  C 11.538461538461538 15.911931818181818  11.651141826923077 15.526278409090908  11.876502403846153 15.206676136363637  C 12.101862980769232 14.887073863636363  12.373798076923077 14.727272727272727  12.692307692307692 14.727272727272727  C 13.010817307692308 14.727272727272727  13.282752403846153 14.887073863636363  13.508112980769232 15.206676136363637  Z M 14.828725961538462 1.879261363636363  C 14.942908653846155 2.04119318181818  15 2.232954545454543  15 2.454545454545454  L 15 9  C 15 9.204545454545455  14.951923076923077 9.38565340909091  14.855769230769232 9.543323863636365  C 14.759615384615385 9.700994318181817  14.636418269230772 9.792613636363635  14.486177884615385 9.818181818181817  L 5.0751201923076925 11.377840909090908  C 5.081129807692308 11.437499999999996  5.0946514423076925 11.529119318181817  5.115685096153846 11.652698863636365  C 5.13671875 11.776278409090907  5.154747596153847 11.889204545454545  5.169771634615384 11.991477272727273  C 5.184795673076924 12.09375  5.1923076923076925 12.187499999999998  5.1923076923076925 12.272727272727273  C 5.1923076923076925 12.409090909090907  5.1201923076923075 12.681818181818183  4.975961538461538 13.090909090909092  L 13.269230769230768 13.090909090909092  C 13.42548076923077 13.090909090909092  13.560697115384617 13.171874999999998  13.674879807692308 13.333806818181817  C 13.789062499999998 13.495738636363637  13.846153846153847 13.687500000000002  13.846153846153847 13.909090909090908  C 13.846153846153847 14.130681818181817  13.789062499999998 14.322443181818182  13.674879807692308 14.484375  C 13.560697115384617 14.646306818181818  13.42548076923077 14.727272727272727  13.269230769230768 14.727272727272727  L 4.038461538461538 14.727272727272727  C 3.8822115384615388 14.727272727272727  3.7469951923076925 14.646306818181818  3.6328125 14.484375  C 3.5186298076923075 14.322443181818182  3.4615384615384617 14.130681818181817  3.4615384615384617 13.909090909090908  C 3.4615384615384617 13.789772727272727  3.494591346153846 13.621448863636363  3.5606971153846154 13.404119318181817  C 3.626802884615385 13.186789772727273  3.7154447115384617 12.933238636363635  3.8266225961538463 12.643465909090908  C 3.937800480769231 12.353693181818182  3.9993990384615388 12.191761363636363  4.011418269230769 12.157670454545455  L 2.4158653846153846 1.636363636363637  L 0.576923076923077 1.636363636363637  C 0.420673076923077 1.636363636363637  0.2854567307692308 1.5553977272727255  0.17127403846153846 1.3934659090909087  C 0.05709134615384615 1.23153409090909  0 1.0397727272727268  0 0.8181818181818175  C 0 0.5965909090909081  0.05709134615384615 0.40482954545454297  0.17127403846153846 0.24289772727272818  C 0.2854567307692308 0.0809659090909074  0.420673076923077 0  0.576923076923077 0  L 2.8846153846153846 0  C 2.980769230769231 0  3.06640625 0.027698863636362425  3.141526442307692 0.08309659090909127  C 3.216646634615385 0.13849431818181812  3.2767427884615383 0.20454545454545436  3.3218149038461537 0.28125  C 3.366887019230769 0.35795454545454564  3.4059495192307696 0.4623579545454517  3.4390024038461537 0.5944602272727282  C 3.472055288461539 0.7265624999999987  3.4945913461538467 0.8394886363636342  3.506610576923077 0.9332386363636369  C 3.518629807692308 1.0269886363636356  3.53515625 1.1526988636363624  3.5561899038461537 1.3103693181818175  C 3.577223557692308 1.4680397727272725  3.5907451923076925 1.5767045454545443  3.596754807692308 1.636363636363637  L 14.423076923076923 1.636363636363637  C 14.579326923076925 1.636363636363637  14.71454326923077 1.7173295454545443  14.828725961538462 1.879261363636363  Z " fill-rule="nonzero" fill="#ffffff" stroke="none" transform="matrix(1 0 0 1 33 509 )" />
  </g>
</svg>