<?xml version="1.0" encoding="utf-8"?>
<svg version="1.1" xmlns:xlink="http://www.w3.org/1999/xlink" width="15px" height="17px" xmlns="http://www.w3.org/2000/svg">
  <g transform="matrix(1 0 0 1 -33 -461 )">
    <path d="M 1.0714285714285714 13.909090909090908  L 1.0714285714285714 15.454545454545453  L 9.642857142857144 15.454545454545453  L 9.642857142857144 13.909090909090908  L 1.0714285714285714 13.909090909090908  Z M 1.0714285714285714 7.727272727272728  L 1.0714285714285714 9.272727272727272  L 9.642857142857144 9.272727272727272  L 9.642857142857144 7.727272727272728  L 1.0714285714285714 7.727272727272728  Z M 13.962053571428571 15.502840909090908  C 14.118303571428573 15.277462121212121  14.196428571428571 15.003787878787879  14.196428571428571 14.681818181818182  C 14.196428571428571 14.359848484848483  14.118303571428573 14.086174242424242  13.962053571428571 13.860795454545453  C 13.805803571428573 13.635416666666666  13.616071428571429 13.522727272727272  13.392857142857144 13.522727272727272  C 13.16964285714286 13.522727272727272  12.979910714285717 13.635416666666666  12.823660714285715 13.860795454545453  C 12.667410714285715 14.086174242424242  12.589285714285715 14.359848484848483  12.589285714285715 14.681818181818182  C 12.589285714285715 15.003787878787879  12.667410714285715 15.277462121212121  12.823660714285715 15.502840909090908  C 12.979910714285717 15.728219696969699  13.16964285714286 15.840909090909092  13.392857142857144 15.840909090909092  C 13.616071428571429 15.840909090909092  13.805803571428573 15.728219696969699  13.962053571428571 15.502840909090908  Z M 1.0714285714285714 1.5454545454545459  L 1.0714285714285714 3.09090909090909  L 9.642857142857144 3.09090909090909  L 9.642857142857144 1.5454545454545459  L 1.0714285714285714 1.5454545454545459  Z M 13.962053571428571 9.321022727272728  C 14.118303571428573 9.095643939393938  14.196428571428571 8.821969696969697  14.196428571428571 8.5  C 14.196428571428571 8.178030303030301  14.118303571428573 7.9043560606060606  13.962053571428571 7.678977272727272  C 13.805803571428573 7.4535984848484835  13.616071428571429 7.34090909090909  13.392857142857144 7.34090909090909  C 13.16964285714286 7.34090909090909  12.979910714285717 7.4535984848484835  12.823660714285715 7.678977272727272  C 12.667410714285715 7.9043560606060606  12.589285714285715 8.178030303030301  12.589285714285715 8.5  C 12.589285714285715 8.821969696969697  12.667410714285715 9.095643939393938  12.823660714285715 9.321022727272728  C 12.979910714285717 9.546401515151516  13.16964285714286 9.659090909090908  13.392857142857144 9.659090909090908  C 13.616071428571429 9.659090909090908  13.805803571428573 9.546401515151516  13.962053571428571 9.321022727272728  Z M 13.962053571428571 3.139204545454546  C 14.118303571428573 2.9138257575757573  14.196428571428571 2.640151515151513  14.196428571428571 2.318181818181818  C 14.196428571428571 1.9962121212121193  14.118303571428573 1.7225378787878767  13.962053571428571 1.49715909090909  C 13.805803571428573 1.2717803030303014  13.616071428571429 1.15909090909091  13.392857142857144 1.15909090909091  C 13.16964285714286 1.15909090909091  12.979910714285717 1.2717803030303014  12.823660714285715 1.49715909090909  C 12.667410714285715 1.7225378787878767  12.589285714285715 1.9962121212121193  12.589285714285715 2.318181818181818  C 12.589285714285715 2.640151515151513  12.667410714285715 2.9138257575757573  12.823660714285715 3.139204545454546  C 12.979910714285717 3.364583333333331  13.16964285714286 3.477272727272728  13.392857142857144 3.477272727272728  C 13.616071428571429 3.477272727272728  13.805803571428573 3.364583333333331  13.962053571428571 3.139204545454546  Z M 0 12.363636363636363  L 15 12.363636363636363  L 15 17  L 0 17  L 0 12.363636363636363  Z M 0 6.181818181818182  L 15 6.181818181818182  L 15 10.818181818181818  L 0 10.818181818181818  L 0 6.181818181818182  Z M 0 0  L 15 0  L 15 4.636363636363636  L 0 4.636363636363636  L 0 0  Z " fill-rule="nonzero" fill="#ffffff" stroke="none" transform="matrix(1 0 0 1 33 461 )" />
  </g>
</svg>