<?xml version="1.0" encoding="utf-8"?>
<svg version="1.1" xmlns:xlink="http://www.w3.org/1999/xlink" width="15px" height="18px" xmlns="http://www.w3.org/2000/svg">
  <g transform="matrix(1 0 0 1 -33 -558 )">
    <path d="M 10.2734375 12.328124999999998  C 10.091145833333336 12.546874999999996  10 12.8125  10 13.125000000000002  L 10 18  L 0.9375 18  C 0.6770833333333335 18  0.45572916666666674 17.890625  0.2734375 17.671875  C 0.09114583333333331 17.453125  0 17.1875  0 16.875  L 0 1.125  C 0 0.8124999999999991  0.09114583333333331 0.5468749999999976  0.2734375 0.32812499999999933  C 0.45572916666666674 0.10937499999999911  0.6770833333333335 0  0.9375 0  L 14.0625 0  C 14.322916666666668 0  14.544270833333336 0.10937499999999911  14.7265625 0.32812499999999933  C 14.908854166666666 0.5468749999999976  15 0.8124999999999991  15 1.125  L 15 12.000000000000002  L 10.9375 12.000000000000002  C 10.677083333333336 12.000000000000002  10.455729166666668 12.109375  10.2734375 12.328124999999998  Z M 11.25 17.96484375  L 11.25 13.5  L 14.970703125 13.5  C 14.873046875 14.140625  14.661458333333336 14.65625  14.3359375 15.046875  L 12.5390625 17.203125  C 12.213541666666668 17.59375  11.783854166666666 17.84765625  11.25 17.96484375  Z " fill-rule="nonzero" fill="#ffffff" stroke="none" transform="matrix(1 0 0 1 33 558 )" />
  </g>
</svg>