<?xml version="1.0" encoding="utf-8"?>
<svg version="1.1" xmlns:xlink="http://www.w3.org/1999/xlink" width="15px" height="20px" xmlns="http://www.w3.org/2000/svg">
  <g transform="matrix(1 0 0 1 -33 -361 )">
    <path d="M 4.670138888888889 17.642045454545453  C 4.890046296296297 17.28219696969697  5 16.85606060606061  5 16.363636363636363  C 5 15.87121212121212  4.890046296296297 15.445075757575758  4.670138888888889 15.085227272727273  C 4.450231481481483 14.725378787878789  4.189814814814815 14.545454545454547  3.888888888888889 14.545454545454547  C 3.5879629629629637 14.545454545454547  3.3275462962962967 14.725378787878789  3.107638888888889 15.085227272727273  C 2.887731481481481 15.445075757575758  2.7777777777777777 15.87121212121212  2.7777777777777777 16.363636363636363  C 2.7777777777777777 16.85606060606061  2.887731481481481 17.28219696969697  3.107638888888889 17.642045454545453  C 3.3275462962962967 18.001893939393938  3.5879629629629637 18.18181818181818  3.888888888888889 18.18181818181818  C 4.189814814814815 18.18181818181818  4.450231481481483 18.001893939393938  4.670138888888889 17.642045454545453  Z M 1.6666666666666665 8.664772727272727  L 1.6666666666666665 9.090909090909092  L 5 9.090909090909092  L 5 5.454545454545454  L 3.6284722222222223 5.454545454545454  C 3.553240740740741 5.454545454545454  3.4895833333333335 5.497159090909092  3.4375 5.582386363636365  L 1.7447916666666667 8.352272727272727  C 1.6927083333333333 8.4375  1.6666666666666665 8.541666666666664  1.6666666666666665 8.664772727272727  Z M 12.447916666666668 17.642045454545453  C 12.667824074074073 17.28219696969697  12.777777777777779 16.85606060606061  12.777777777777779 16.363636363636363  C 12.777777777777779 15.87121212121212  12.667824074074073 15.445075757575758  12.447916666666668 15.085227272727273  C 12.22800925925926 14.725378787878789  11.967592592592592 14.545454545454547  11.666666666666666 14.545454545454547  C 11.36574074074074 14.545454545454547  11.105324074074076 14.725378787878789  10.885416666666666 15.085227272727273  C 10.66550925925926 15.445075757575758  10.555555555555555 15.87121212121212  10.555555555555555 16.363636363636363  C 10.555555555555555 16.85606060606061  10.66550925925926 17.28219696969697  10.885416666666666 17.642045454545453  C 11.105324074074076 18.001893939393938  11.36574074074074 18.18181818181818  11.666666666666666 18.18181818181818  C 11.967592592592592 18.18181818181818  12.22800925925926 18.001893939393938  12.447916666666668 17.642045454545453  Z M 14.835069444444445 0.26988636363636465  C 14.945023148148149 0.4498106060606033  15 0.6628787878787867  15 0.9090909090909083  L 15 15.454545454545453  C 15 15.596590909090908  14.988425925925927 15.722064393939393  14.965277777777779 15.830965909090908  C 14.94212962962963 15.939867424242426  14.903067129629632 16.027462121212118  14.848090277777779 16.09375  C 14.793113425925926 16.160037878787882  14.74537037037037 16.214488636363637  14.70486111111111 16.257102272727273  C 14.664351851851853 16.299715909090907  14.596354166666666 16.328125  14.500868055555557 16.342329545454547  C 14.405381944444445 16.356534090909093  14.340277777777777 16.36600378787879  14.305555555555555 16.370738636363637  C 14.270833333333332 16.375473484848484  14.19704861111111 16.375473484848484  14.08420138888889 16.370738636363637  C 13.971354166666668 16.36600378787879  13.90625 16.363636363636363  13.88888888888889 16.363636363636363  C 13.88888888888889 17.367424242424242  13.671875 18.22443181818182  13.237847222222221 18.934659090909093  C 12.803819444444443 19.644886363636363  12.280092592592593 20  11.666666666666666 20  C 11.053240740740742 20  10.52951388888889 19.644886363636363  10.09548611111111 18.934659090909093  C 9.661458333333334 18.22443181818182  9.444444444444445 17.367424242424242  9.444444444444445 16.363636363636363  L 6.111111111111111 16.363636363636363  C 6.111111111111111 17.367424242424242  5.894097222222222 18.22443181818182  5.460069444444445 18.934659090909093  C 5.026041666666666 19.644886363636363  4.502314814814816 20  3.888888888888889 20  C 3.2754629629629632 20  2.751736111111111 19.644886363636363  2.3177083333333335 18.934659090909093  C 1.8836805555555554 18.22443181818182  1.6666666666666665 17.367424242424242  1.6666666666666665 16.363636363636363  L 1.1111111111111112 16.363636363636363  C 1.09375 16.363636363636363  1.0286458333333335 16.36600378787879  0.9157986111111112 16.370738636363637  C 0.802951388888889 16.375473484848484  0.7291666666666666 16.375473484848484  0.6944444444444444 16.370738636363637  C 0.6597222222222222 16.36600378787879  0.5946180555555556 16.356534090909093  0.4991319444444445 16.342329545454547  C 0.4036458333333335 16.328125  0.33564814814814836 16.299715909090907  0.2951388888888889 16.257102272727273  C 0.2546296296296297 16.214488636363637  0.20688657407407415 16.160037878787882  0.1519097222222222 16.09375  C 0.0969328703703704 16.027462121212118  0.05787037037037041 15.939867424242426  0.034722222222222224 15.830965909090908  C 0.011574074074074157 15.722064393939393  0 15.596590909090908  0 15.454545454545453  C 0 15.208333333333336  0.054976851851851936 14.995265151515152  0.16493055555555555 14.815340909090908  C 0.2748842592592594 14.635416666666664  0.4050925925925928 14.545454545454547  0.5555555555555556 14.545454545454547  L 0.5555555555555556 10  C 0.5555555555555556 9.924242424242424  0.5541087962962964 9.758522727272727  0.5512152777777777 9.502840909090908  C 0.5483217592592593 9.247159090909092  0.5483217592592593 9.067234848484846  0.5512152777777777 8.963068181818182  C 0.5541087962962964 8.858901515151514  0.5613425925925928 8.69554924242424  0.5729166666666667 8.473011363636365  C 0.5844907407407408 8.250473484848484  0.603298611111111 8.075284090909092  0.6293402777777778 7.947443181818182  C 0.6553819444444444 7.819602272727273  0.6958912037037038 7.675189393939393  0.7508680555555556 7.514204545454546  C 0.8058449074074074 7.353219696969697  0.8709490740740742 7.211174242424243  0.9461805555555556 7.088068181818182  L 2.6649305555555554 4.275568181818182  C 2.7748842592592595 4.095643939393938  2.921006944444445 3.9441287878787867  3.103298611111111 3.821022727272727  C 3.285590277777778 3.697916666666665  3.4548611111111116 3.6363636363636354  3.6111111111111107 3.6363636363636354  L 5 3.6363636363636354  L 5 0.9090909090909083  C 5 0.6628787878787867  5.054976851851852 0.4498106060606033  5.164930555555555 0.26988636363636465  C 5.2748842592592595 0.08996212121211933  5.4050925925925934 0  5.555555555555555 0  L 14.444444444444443 0  C 14.594907407407408 0  14.725115740740742 0.08996212121211933  14.835069444444445 0.26988636363636465  Z " fill-rule="nonzero" fill="#ffffff" stroke="none" transform="matrix(1 0 0 1 33 361 )" />
  </g>
</svg>