<?xml version="1.0" encoding="utf-8"?>
<svg version="1.1" xmlns:xlink="http://www.w3.org/1999/xlink" width="24px" height="24px" xmlns="http://www.w3.org/2000/svg">
  <g transform="matrix(1 0 0 1 -85 -8 )">
    <path d="M 23.39673913043478 10.613607188703465  C 23.79891304347826 10.973042362002566  24 11.435173299101411  24 12  C 24 12.554557124518615  23.79891304347826 13.021822849807444  23.39673913043478 13.401797175866495  L 12.782608695652176 23.430038510911423  C 12.358695652173914 23.810012836970476  11.86413043478261 24  11.298913043478262 24  C 10.744565217391305 24  10.255434782608695 23.810012836970476  9.831521739130434 23.430038510911423  L 8.608695652173912 22.274711168164313  C 8.195652173913043 21.88446726572529  7.989130434782609 21.417201540436455  7.989130434782609 20.872913992297818  C 7.989130434782609 20.32862644415918  8.195652173913043 19.861360718870344  8.608695652173912 19.471116816431323  L 13.385869565217392 15  L 1.907608695652174 15  C 1.3423913043478262 14.957637997432608  0.8831521739130436 14.765083440308088  0.5298913043478262 14.379974326059049  C 0.17663043478260868 13.994865211810012  0 13.530166880616173  0 12.985879332477536  L 0 11.014120667522464  C 0 10.469833119383825  0.17663043478260868 10.005134788189988  0.5298913043478262 9.620025673940951  C 0.8831521739130436 9.234916559691912  1.3423913043478262 9.042362002567394  1.907608695652174 9  L 13.385869565217392 9  L 8.608695652173912 4.513478818998717  C 8.195652173913043 4.14377406931964  7.989130434782609 3.681643132220797  7.989130434782609 3.1270860077021823  C 7.989130434782609 2.57252888318357  8.195652173913043 2.110397946084724  8.608695652173912 1.7406931964056476  L 9.831521739130434 0.5853658536585371  C 10.244565217391305 0.1951219512195106  10.733695652173914 0  11.298913043478262 0  C 11.875 0  12.369565217391305 0.1951219512195106  12.782608695652176 0.5853658536585371  L 23.39673913043478 10.613607188703465  Z " fill-rule="nonzero" fill="#000000" stroke="none" transform="matrix(1 0 0 1 85 8 )" />
  </g>
</svg>