<?xml version="1.0" encoding="utf-8"?>
<svg version="1.1" xmlns:xlink="http://www.w3.org/1999/xlink" width="119px" height="44px" xmlns="http://www.w3.org/2000/svg">
  <defs>
    <filter x="1175px" y="159px" width="119px" height="44px" filterUnits="userSpaceOnUse" id="filter470">
      <feOffset dx="5" dy="5" in="SourceAlpha" result="shadowOffsetInner" />
      <feGaussianBlur stdDeviation="2" in="shadowOffsetInner" result="shadowGaussian" />
      <feComposite in2="shadowGaussian" operator="atop" in="SourceAlpha" result="shadowComposite" />
      <feColorMatrix type="matrix" values="0 0 0 0 0  0 0 0 0 0  0 0 0 0 0  0 0 0 0.34901960784313724 0  " in="shadowComposite" />
    </filter>
    <g id="widget471">
      <path d="M 1175.5 164  A 4.5 4.5 0 0 1 1180 159.5 L 1280 159.5  A 4.5 4.5 0 0 1 1284.5 164 L 1284.5 189  A 4.5 4.5 0 0 1 1280 193.5 L 1180 193.5  A 4.5 4.5 0 0 1 1175.5 189 L 1175.5 164  Z " fill-rule="nonzero" fill="#f52349" stroke="none" fill-opacity="0.996078431372549" />
      <path d="M 1175.5 164  A 4.5 4.5 0 0 1 1180 159.5 L 1280 159.5  A 4.5 4.5 0 0 1 1284.5 164 L 1284.5 189  A 4.5 4.5 0 0 1 1280 193.5 L 1180 193.5  A 4.5 4.5 0 0 1 1175.5 189 L 1175.5 164  Z " stroke-width="1" stroke="#797979" fill="none" />
    </g>
  </defs>
  <g transform="matrix(1 0 0 1 -1175 -159 )">
    <use xlink:href="#widget471" filter="url(#filter470)" />
    <use xlink:href="#widget471" />
  </g>
</svg>