<?xml version="1.0" encoding="utf-8"?>
<svg version="1.1" xmlns:xlink="http://www.w3.org/1999/xlink" width="31px" height="30px" xmlns="http://www.w3.org/2000/svg">
  <g transform="matrix(1 0 0 1 -16 -20 )">
    <path d="M 25.55078125 15.859374999999998  C 25.79296875 15.624999999999998  25.9140625 15.332031249999998  25.9140625 14.980468750000002  C 25.9140625 14.628906250000002  25.79296875 14.335937500000002  25.55078125 14.101562500000002  L 18.244791666666664 7.03125  L 16.408203125 5.253906250000001  C 16.166015625000004 5.019531250000001  15.863281250000004 4.902343750000001  15.5 4.902343750000001  C 15.13671875 4.902343750000001  14.833984375 5.019531250000001  14.591796875 5.253906250000001  L 12.755208333333332 7.03125  L 5.44921875 14.101562500000002  C 5.20703125 14.335937500000002  5.085937500000001 14.628906250000002  5.0859375 14.980468750000002  C 5.085937500000001 15.332031249999998  5.20703125 15.624999999999998  5.44921875 15.859374999999998  L 7.285807291666666 17.63671875  C 7.527994791666666 17.87109375  7.830729166666667 17.98828125  8.194010416666668 17.98828125  C 8.557291666666668 17.98828125  8.860026041666668 17.87109375  9.102213541666668 17.63671875  L 12.916666666666668 13.9453125  L 12.916666666666668 23.75  C 12.916666666666668 24.088541666666664  13.044487847222223 24.381510416666664  13.300130208333332 24.62890625  C 13.555772569444446 24.876302083333336  13.858506944444446 25  14.208333333333332 25  L 16.791666666666664 25  C 17.141493055555557 25  17.444227430555557 24.876302083333336  17.699869791666664 24.62890625  C 17.955512152777782 24.381510416666664  18.083333333333336 24.088541666666664  18.083333333333336 23.75  L 18.083333333333336 13.9453125  L 21.897786458333336 17.63671875  C 22.153428819444446 17.88411458333333  22.456163194444446 18.007812500000004  22.805989583333336 18.007812500000004  C 23.155815972222225 18.007812500000004  23.458550347222225 17.88411458333333  23.714192708333336 17.63671875  L 25.55078125 15.859374999999998  Z M 28.921223958333336 7.470703125  C 30.307074652777775 9.76888020833333  31 12.278645833333329  31 15  C 31 17.721354166666668  30.307074652777775 20.231119791666664  28.921223958333336 22.529296875  C 27.535373263888893 24.827473958333332  25.65505642361111 26.647135416666668  23.2802734375 27.98828125  C 20.905490451388893 29.329427083333336  18.31206597222222 30  15.5 30  C 12.687934027777779 30  10.09450954861111 29.329427083333336  7.7197265625 27.98828125  C 5.344943576388889 26.647135416666668  3.4646267361111116 24.827473958333332  2.078776041666667 22.529296875  C 0.6929253472222221 20.231119791666664  0 17.721354166666668  0 15  C 0 12.278645833333329  0.6929253472222221 9.76888020833333  2.078776041666667 7.470703125  C 3.4646267361111116 5.172526041666666  5.344943576388889 3.3528645833333304  7.7197265625 2.011718749999999  C 10.09450954861111 0.6705729166666641  12.687934027777779 0  15.5 0  C 18.31206597222222 0  20.905490451388893 0.6705729166666641  23.2802734375 2.011718749999999  C 25.65505642361111 3.3528645833333304  27.535373263888893 5.172526041666666  28.921223958333336 7.470703125  Z " fill-rule="nonzero" fill="#000000" stroke="none" transform="matrix(1 0 0 1 16 20 )" />
  </g>
</svg>