<?xml version="1.0" encoding="utf-8"?>
<svg version="1.1" xmlns:xlink="http://www.w3.org/1999/xlink" width="26px" height="29px" xmlns="http://www.w3.org/2000/svg">
  <g transform="matrix(1 0 0 1 -301 -1176 )">
    <path d="M 4.875 14.5  L 8.125 14.5  L 8.125 24.166666666666668  L 4.875 24.166666666666668  L 4.875 14.5  Z M 10 4.833333333333332  L 13 4.833333333333332  L 13 24.166666666666668  L 10 24.166666666666668  L 10 4.833333333333332  Z M 2 26.583333333333332  L 26 26.583333333333332  L 26 29  L 0 29  L 0 0  L 2 0  L 2 26.583333333333332  Z M 14.625 9.666666666666668  L 17.875 9.666666666666668  L 17.875 24.166666666666668  L 14.625 24.166666666666668  L 14.625 9.666666666666668  Z M 19 2.416666666666668  L 22.75 2.416666666666668  L 22.75 24.166666666666668  L 19 24.166666666666668  L 19 2.416666666666668  Z " fill-rule="nonzero" fill="#000000" stroke="none" transform="matrix(1 0 0 1 301 1176 )" />
  </g>
</svg>