<?xml version="1.0" encoding="utf-8"?>
<svg version="1.1" xmlns:xlink="http://www.w3.org/1999/xlink" width="27px" height="24px" xmlns="http://www.w3.org/2000/svg">
  <g transform="matrix(1 0 0 1 -19 -24 )">
    <path d="M 22.25390625 12.68750000000002  C 22.46484375 12.50000000000002  22.5703125 12.26562500000002  22.5703125 11.98437500000002  C 22.5703125 11.70312500000002  22.46484375 11.46875000000002  22.25390625 11.28125000000002  L 15.890624999999998 5.625  L 14.291015625 4.2031250000000195  C 14.080078125 4.0156250000000195  13.81640625 3.9218750000000195  13.5 3.9218750000000195  C 13.18359375 3.9218750000000195  12.919921875 4.0156250000000195  12.708984375 4.2031250000000195  L 11.109374999999998 5.625  L 4.74609375 11.28125000000002  C 4.53515625 11.46875000000002  4.4296875 11.70312500000002  4.4296875 11.98437500000002  C 4.4296875 12.26562500000002  4.53515625 12.50000000000002  4.74609375 12.68750000000002  L 6.345703124999999 14.109375  C 6.556640624999999 14.296875  6.820312500000001 14.390625  7.136718750000001 14.390625  C 7.453125000000001 14.390625  7.716796875000001 14.296875  7.927734375000001 14.109375  L 11.250000000000002 11.15625  L 11.250000000000002 18.99999999999998  C 11.250000000000002 19.270833333333346  11.361328124999961 19.505208333333346  11.583984374999998 19.70312499999998  C 11.806640625000043 19.901041666666675  12.070312500000043 20.00000000000002  12.374999999999998 20.00000000000002  L 14.624999999999998 20.00000000000002  C 14.92968749999996 20.00000000000002  15.19335937499996 19.901041666666675  15.416015624999998 19.70312499999998  C 15.63867187500004 19.505208333333346  15.750000000000002 19.270833333333346  15.750000000000002 18.99999999999998  L 15.750000000000002 11.15625  L 19.072265625000004 14.109375  C 19.29492187500004 14.307291666666693  19.55859375000004 14.40624999999998  19.863281250000004 14.40624999999998  C 20.167968749999957 14.40624999999998  20.431640624999957 14.307291666666693  20.654296875000004 14.109375  L 22.25390625 12.68750000000002  Z M 25.189453125000004 5.9765625  C 26.396484375000043 7.815104166666694  27 9.822916666666673  27 12  C 27 14.177083333333325  26.396484375000043 16.184895833333307  25.189453125000004 18.0234375  C 23.98242187499996 19.861979166666693  22.34472656250004 21.317708333333307  20.2763671875 22.39062500000002  C 18.20800781249996 23.463541666666675  15.94921874999996 24  13.5 24  C 11.415496550686605 24  9.46893136027774 23.611414956111602  7.660304428773406 22.8342448683348  C 7.343857883496307 22.698267246258204  7.031634011405171 22.550393956813274  6.7236328125 22.39062500000002  C 6.532174746054262 22.291310271166978  6.344406744230683 22.188715484892015  6.160328807029261 22.08284064117514  C 4.355776365739227 21.044928599106594  2.905849055062866 19.691794218714925  1.8105468750000002 18.0234375  C 0.6035156249999599 16.184895833333307  0 14.177083333333325  0 12  C 0 9.822916666666673  0.6035156249999599 7.815104166666694  1.8105468750000002 5.9765625  C 2.437221782237175 5.022015607854566  3.1799843917869217 4.17065778443149  4.03883470364936 3.4224890297307713  C 4.834205988213465 2.729618647921696  5.729138691163638 2.1252473046780995  6.7236328125 1.60937499999998  C 8.79199218750004 0.5364583333333268  11.050781250000039 0  13.5 0  C 15.94921874999996 0  18.20800781249996 0.5364583333333268  20.2763671875 1.60937499999998  C 22.34472656250004 2.6822916666666927  23.98242187499996 4.138020833333307  25.189453125000004 5.9765625  Z " fill-rule="nonzero" fill="#000000" stroke="none" transform="matrix(1 0 0 1 19 24 )" />
  </g>
</svg>