<?xml version="1.0" encoding="utf-8"?>
<svg version="1.1" xmlns:xlink="http://www.w3.org/1999/xlink" width="9px" height="13px" xmlns="http://www.w3.org/2000/svg">
  <g transform="matrix(1 0 0 1 -1223 -95 )">
    <path d="M 0.6923076923076923 9.982142857142856  L 0.6923076923076923 12.071428571428571  L 2.25 12.071428571428571  L 2.25 9.982142857142856  L 0.6923076923076923 9.982142857142856  Z M 2.596153846153846 9.982142857142856  L 2.596153846153846 12.071428571428571  L 4.326923076923077 12.071428571428571  L 4.326923076923077 9.982142857142856  L 2.596153846153846 9.982142857142856  Z M 0.6923076923076923 7.196428571428572  L 0.6923076923076923 9.517857142857144  L 2.25 9.517857142857144  L 2.25 7.196428571428572  L 0.6923076923076923 7.196428571428572  Z M 2.596153846153846 7.196428571428572  L 2.596153846153846 9.517857142857144  L 4.326923076923077 9.517857142857144  L 4.326923076923077 7.196428571428572  L 2.596153846153846 7.196428571428572  Z M 0.6923076923076923 4.642857142857142  L 0.6923076923076923 6.732142857142856  L 2.25 6.732142857142856  L 2.25 4.642857142857142  L 0.6923076923076923 4.642857142857142  Z M 4.673076923076923 9.982142857142856  L 4.673076923076923 12.071428571428571  L 6.403846153846154 12.071428571428571  L 6.403846153846154 9.982142857142856  L 4.673076923076923 9.982142857142856  Z M 2.596153846153846 4.642857142857142  L 2.596153846153846 6.732142857142856  L 4.326923076923077 6.732142857142856  L 4.326923076923077 4.642857142857142  L 2.596153846153846 4.642857142857142  Z M 6.75 9.982142857142856  L 6.75 12.071428571428571  L 8.307692307692308 12.071428571428571  L 8.307692307692308 9.982142857142856  L 6.75 9.982142857142856  Z M 4.673076923076923 7.196428571428572  L 4.673076923076923 9.517857142857144  L 6.403846153846154 9.517857142857144  L 6.403846153846154 7.196428571428572  L 4.673076923076923 7.196428571428572  Z M 2.7178485576923075 3.413225446428572  C 2.7521033653846154 3.3672805059523805  2.769230769230769 3.3128720238095224  2.769230769230769 3.25  L 2.769230769230769 1.160714285714286  C 2.769230769230769 1.0978422619047619  2.7521033653846154 1.0434337797619042  2.7178485576923075 0.9974888392857141  C 2.6835937500000004 0.9515438988095225  2.6430288461538463 0.9285714285714282  2.596153846153846 0.9285714285714282  L 2.25 0.9285714285714282  C 2.203125 0.9285714285714282  2.1625600961538463 0.9515438988095225  2.1283052884615383 0.9974888392857141  C 2.0940504807692304 1.0434337797619042  2.076923076923077 1.0978422619047619  2.076923076923077 1.160714285714286  L 2.076923076923077 3.25  C 2.076923076923077 3.3128720238095224  2.0940504807692304 3.3672805059523805  2.1283052884615383 3.413225446428572  C 2.1625600961538463 3.459170386904762  2.203125 3.4821428571428577  2.25 3.4821428571428577  L 2.596153846153846 3.4821428571428577  C 2.6430288461538463 3.4821428571428577  2.6835937500000004 3.459170386904762  2.7178485576923075 3.413225446428572  Z M 6.75 7.196428571428572  L 6.75 9.517857142857144  L 8.307692307692308 9.517857142857144  L 8.307692307692308 7.196428571428572  L 6.75 7.196428571428572  Z M 4.673076923076923 4.642857142857142  L 4.673076923076923 6.732142857142856  L 6.403846153846154 6.732142857142856  L 6.403846153846154 4.642857142857142  L 4.673076923076923 4.642857142857142  Z M 6.75 4.642857142857142  L 6.75 6.732142857142856  L 8.307692307692308 6.732142857142856  L 8.307692307692308 4.642857142857142  L 6.75 4.642857142857142  Z M 6.871694711538462 3.413225446428572  C 6.90594951923077 3.3672805059523805  6.923076923076923 3.3128720238095224  6.923076923076923 3.25  L 6.923076923076923 1.160714285714286  C 6.923076923076923 1.0978422619047619  6.90594951923077 1.0434337797619042  6.871694711538462 0.9974888392857141  C 6.837439903846154 0.9515438988095225  6.796875 0.9285714285714282  6.75 0.9285714285714282  L 6.403846153846154 0.9285714285714282  C 6.356971153846155 0.9285714285714282  6.316406250000001 0.9515438988095225  6.282151442307692 0.9974888392857141  C 6.247896634615385 1.0434337797619042  6.230769230769231 1.0978422619047619  6.230769230769231 1.160714285714286  L 6.230769230769231 3.25  C 6.230769230769231 3.3128720238095224  6.247896634615385 3.3672805059523805  6.282151442307692 3.413225446428572  C 6.316406250000001 3.459170386904762  6.356971153846155 3.4821428571428577  6.403846153846154 3.4821428571428577  L 6.75 3.4821428571428577  C 6.796875 3.4821428571428577  6.837439903846154 3.459170386904762  6.871694711538462 3.413225446428572  Z M 8.794471153846153 2.1328125  C 8.931490384615385 2.316592261904762  9 2.5342261904761902  9 2.785714285714286  L 9 12.071428571428571  C 9 12.322916666666668  8.931490384615385 12.540550595238095  8.794471153846153 12.724330357142858  C 8.657451923076923 12.908110119047619  8.495192307692308 13  8.307692307692308 13  L 0.6923076923076923 13  C 0.5048076923076924 13  0.342548076923077 12.908110119047619  0.20552884615384615 12.724330357142858  C 0.06850961538461538 12.540550595238095  0 12.322916666666668  0 12.071428571428571  L 0 2.785714285714286  C 0 2.5342261904761902  0.06850961538461538 2.316592261904762  0.20552884615384615 2.1328125  C 0.342548076923077 1.9490327380952366  0.5048076923076924 1.8571428571428577  0.6923076923076923 1.8571428571428577  L 1.3846153846153846 1.8571428571428577  L 1.3846153846153846 1.160714285714286  C 1.3846153846153846 0.8415178571428578  1.4693509615384617 0.5682663690476183  1.6388221153846154 0.34095982142857184  C 1.8082932692307696 0.11365327380952395  2.012019230769231 0  2.25 0  L 2.596153846153846 0  C 2.8341346153846154 0  3.0378605769230775 0.11365327380952395  3.207331730769231 0.34095982142857184  C 3.376802884615385 0.5682663690476183  3.4615384615384617 0.8415178571428578  3.4615384615384617 1.160714285714286  L 3.4615384615384617 1.8571428571428577  L 5.538461538461538 1.8571428571428577  L 5.538461538461538 1.160714285714286  C 5.538461538461538 0.8415178571428578  5.623197115384616 0.5682663690476183  5.792668269230769 0.34095982142857184  C 5.962139423076924 0.11365327380952395  6.165865384615385 0  6.403846153846154 0  L 6.75 0  C 6.987980769230769 0  7.191706730769231 0.11365327380952395  7.361177884615385 0.34095982142857184  C 7.530649038461539 0.5682663690476183  7.615384615384615 0.8415178571428578  7.615384615384615 1.160714285714286  L 7.615384615384615 1.8571428571428577  L 8.307692307692308 1.8571428571428577  C 8.495192307692308 1.8571428571428577  8.657451923076923 1.9490327380952366  8.794471153846153 2.1328125  Z " fill-rule="nonzero" fill="#333333" stroke="none" transform="matrix(1 0 0 1 1223 95 )" />
  </g>
</svg>