<?xml version="1.0" encoding="utf-8"?>
<svg version="1.1" xmlns:xlink="http://www.w3.org/1999/xlink" width="13px" height="14px" xmlns="http://www.w3.org/2000/svg">
  <g transform="matrix(1 0 0 1 -1091 -95 )">
    <path d="M 5.416666666666667 6.416666666666667  L 5.416666666666667 8.75  L 7.583333333333334 7.583333333333334  L 5.416666666666667 6.416666666666667  Z M 4.333333333333333 5.696614583333333  L 8.666666666666666 3.36328125  L 8.666666666666666 8.303385416666666  L 4.333333333333333 10.63671875  L 4.333333333333333 5.696614583333333  Z M 10.486328125 9.48828125  C 10.89822048611111 8.728732638888888  11.104166666666666 7.899305555555556  11.104166666666666 7  C 11.104166666666666 6.100694444444444  10.89822048611111 5.271267361111111  10.486328125 4.51171875  C 10.07443576388889 3.7521701388888875  9.51584201388889 3.1506076388888875  8.810546875 2.70703125  C 8.10525173611111 2.2634548611111107  7.335069444444445 2.041666666666667  6.5 2.041666666666667  C 5.664930555555555 2.041666666666667  4.894748263888889 2.2634548611111107  4.189453125 2.70703125  C 3.484157986111111 3.1506076388888875  2.925564236111111 3.7521701388888875  2.513671875 4.51171875  C 2.1017795138888893 5.271267361111111  1.8958333333333335 6.100694444444444  1.8958333333333335 7  C 1.8958333333333335 7.899305555555556  2.1017795138888893 8.728732638888888  2.513671875 9.48828125  C 2.925564236111111 10.247829861111109  3.484157986111111 10.84939236111111  4.189453125 11.29296875  C 4.894748263888889 11.73654513888889  5.664930555555555 11.958333333333332  6.5 11.958333333333332  C 7.335069444444445 11.958333333333332  8.10525173611111 11.73654513888889  8.810546875 11.29296875  C 9.51584201388889 10.84939236111111  10.07443576388889 10.247829861111109  10.486328125 9.48828125  Z M 12.128255208333334 3.486328125  C 12.709418402777777 4.5588107638888875  13 5.7300347222222205  13 7  C 13 8.269965277777779  12.709418402777777 9.441189236111109  12.128255208333334 10.513671875  C 11.54709201388889 11.58615451388889  10.75857204861111 12.43532986111111  9.7626953125 13.061197916666668  C 8.76681857638889 13.687065972222223  7.679253472222222 14  6.5 14  C 5.320746527777779 14  4.233181423611112 13.687065972222223  3.2373046875 13.061197916666668  C 2.2414279513888893 12.43532986111111  1.4529079861111112 11.58615451388889  0.8717447916666667 10.513671875  C 0.2905815972222222 9.441189236111109  0 8.269965277777779  0 7  C 0 5.7300347222222205  0.2905815972222222 4.5588107638888875  0.8717447916666667 3.486328125  C 1.4529079861111112 2.4138454861111107  2.2414279513888893 1.5646701388888875  3.2373046875 0.9388020833333328  C 4.233181423611112 0.31293402777777657  5.320746527777779 0  6.5 0  C 7.679253472222222 0  8.76681857638889 0.31293402777777657  9.7626953125 0.9388020833333328  C 10.75857204861111 1.5646701388888875  11.54709201388889 2.4138454861111107  12.128255208333334 3.486328125  Z " fill-rule="nonzero" fill="#000000" stroke="none" transform="matrix(1 0 0 1 1091 95 )" />
  </g>
</svg>