<?xml version="1.0" encoding="utf-8"?>
<svg version="1.1" xmlns:xlink="http://www.w3.org/1999/xlink" width="24px" height="23px" xmlns="http://www.w3.org/2000/svg">
  <g transform="matrix(1 0 0 1 -948 -13 )">
    <path d="M 16.992522093813733 20.162434895833332  C 18.401087695445277 19.548502604166668  19.60027192386132 18.692491319444443  20.59007477906186 17.594401041666668  C 20.00271923861319 17.684244791666668  19.404486743711765 17.729166666666668  18.79537729435758 17.729166666666668  C 16.815771583956494 17.729166666666668  14.983004758667573 17.279947916666668  13.297076818490822 16.381510416666664  C 11.611148878314072 15.483072916666664  10.278721957851802 14.260199652777779  9.299796057104011 12.712890625  C 8.320870156356222 11.165581597222221  7.831407205982327 9.483506944444443  7.831407205982325 7.666666666666668  C 7.831407205982327 5.75  8.397008837525494 3.9680989583333326  9.528212100611828 2.3209635416666674  C 7.341944255608429 2.919921875  5.555404486743711 4.062934027777776  4.168592794017675 5.75  C 2.7817811012916387 7.437065972222219  2.0883752549286196 9.353732638888886  2.0883752549286196 11.5  C 2.0883752549286196 12.797743055555557  2.365737593473827 14.0380859375  2.9204622705642422 15.221028645833336  C 3.4751869476546564 16.403971354166664  4.217539089055064 17.422200520833332  5.147518694765465 18.275716145833332  C 6.077498300475867 19.129231770833332  7.186947654656696 19.810546875  8.475866757307955 20.319661458333332  C 9.764785859959211 20.828776041666668  11.1162474507138 21.083333333333332  12.530251529571721 21.083333333333332  C 14.096532970768187 21.083333333333332  15.583956492182189 20.7763671875  16.992522093813733 20.162434895833332  Z M 23.975526852481305 15.752604166666664  C 24.013596193065943 15.952256944444443  23.98912304554725 16.141927083333336  23.90210740992522 16.321614583333336  C 22.87967369136642 18.348090277777775  21.33786539768865 19.9677734375  19.27668252889191 21.1806640625  C 17.215499660095173 22.3935546875  14.966689326988444 23  12.530251529571721 23  C 10.833446634942216 23  9.212780421481986 22.69552951388889  7.668252889191027 22.086588541666668  C 6.123725356900068 21.477647569444443  4.791298436437797 20.659071180555557  3.6709721278042147 19.630859375  C 2.5506458191706325 18.602647569444443  1.6587355540448678 17.379774305555557  0.9952413324269205 15.962239583333336  C 0.33174711080897357 14.544704861111109  0 13.057291666666664  0 11.5  C 0 9.97265625  0.3127124405166554 8.5126953125  0.9381373215499661 7.1201171875  C 1.563562202583277 5.7275390625  2.411964649898028 4.522135416666668  3.483344663494222 3.50390625  C 4.554724677090415 2.4856770833333326  5.835486063902108 1.6646050347222192  7.3256288239293 1.0406901041666674  C 8.815771583956494 0.4167751736111108  10.39292997960571 0.07486979166666752  12.057104010876955 0.014973958333332482  C 12.535690006798099 -0.004991319444448417  12.867437117607071 0.18967013888888662  13.052345343303875 0.5989583333333325  C 13.248130523453433 1.008246527777776  13.166553365057784 1.367621527777776  12.807613868116928 1.6770833333333326  C 11.87219578518015 2.4557291666666674  11.157036029911627 3.3616536458333326  10.662134602311353 4.394856770833332  C 10.167233174711082 5.428059895833332  9.919782460910945 6.518663194444443  9.919782460910945 7.666666666666668  C 9.919782460910945 9.144097222222221  10.316791298436438 10.506727430555554  11.110808973487423 11.754557291666664  C 11.90482664853841 13.002387152777779  12.981645139360982 13.990668402777779  14.341264445955133 14.719401041666664  C 15.700883752549288 15.448133680555552  17.185588035350104 15.8125  18.79537729435758 15.8125  C 20.07885791978246 15.8125  21.318830727396332 15.557942708333336  22.515295717199184 15.048828125  C 22.96125084976207 14.869140625  23.352821210061183 14.934027777777779  23.690006798096533 15.243489583333336  C 23.842284160435078 15.383246527777779  23.937457511896667 15.552951388888886  23.975526852481305 15.752604166666664  Z " fill-rule="nonzero" fill="#000000" stroke="none" transform="matrix(1 0 0 1 948 13 )" />
  </g>
</svg>