<?xml version="1.0" encoding="utf-8"?>
<svg version="1.1" xmlns:xlink="http://www.w3.org/1999/xlink" width="17px" height="17px" xmlns="http://www.w3.org/2000/svg">
  <g transform="matrix(1 0 0 1 -1005 -19 )">
    <path d="M 5.138822115384616 15.345880681818182  C 5.2001201923076925 15.2734375  5.230769230769231 15.180871212121211  5.230769230769231 15.068181818181818  L 5.230769230769231 12.75  C 5.230769230769231 12.637310606060602  5.2001201923076925 12.544744318181818  5.138822115384616 12.472301136363637  C 5.077524038461539 12.399857954545457  4.999198717948718 12.363636363636363  4.903846153846153 12.363636363636363  L 1.6346153846153848 12.363636363636363  C 1.5392628205128207 12.363636363636363  1.4609375 12.399857954545457  1.3996394230769231 12.472301136363637  C 1.338341346153846 12.544744318181818  1.3076923076923077 12.637310606060602  1.3076923076923077 12.75  L 1.3076923076923077 15.068181818181818  C 1.3076923076923077 15.180871212121211  1.338341346153846 15.2734375  1.3996394230769231 15.345880681818182  C 1.4609375 15.418323863636363  1.5392628205128207 15.454545454545453  1.6346153846153848 15.454545454545453  L 4.903846153846153 15.454545454545453  C 4.999198717948718 15.454545454545453  5.077524038461539 15.418323863636363  5.138822115384616 15.345880681818182  Z M 5.138822115384616 10.709517045454543  C 5.2001201923076925 10.637073863636363  5.230769230769231 10.544507575757574  5.230769230769231 10.431818181818182  L 5.230769230769231 8.113636363636363  C 5.230769230769231 8.000946969696969  5.2001201923076925 7.908380681818182  5.138822115384616 7.8359375  C 5.077524038461539 7.763494318181818  4.999198717948718 7.727272727272728  4.903846153846153 7.727272727272728  L 1.6346153846153848 7.727272727272728  C 1.5392628205128207 7.727272727272728  1.4609375 7.763494318181818  1.3996394230769231 7.8359375  C 1.338341346153846 7.908380681818182  1.3076923076923077 8.000946969696969  1.3076923076923077 8.113636363636363  L 1.3076923076923077 10.431818181818182  C 1.3076923076923077 10.544507575757574  1.338341346153846 10.637073863636363  1.3996394230769231 10.709517045454543  C 1.4609375 10.781960227272728  1.5392628205128207 10.818181818181818  1.6346153846153848 10.818181818181818  L 4.903846153846153 10.818181818181818  C 4.999198717948718 10.818181818181818  5.077524038461539 10.781960227272728  5.138822115384616 10.709517045454543  Z M 10.369591346153847 15.345880681818182  C 10.430889423076922 15.2734375  10.461538461538462 15.180871212121211  10.461538461538462 15.068181818181818  L 10.461538461538462 12.75  C 10.461538461538462 12.637310606060602  10.430889423076922 12.544744318181818  10.369591346153847 12.472301136363637  C 10.308293269230768 12.399857954545457  10.229967948717949 12.363636363636363  10.134615384615385 12.363636363636363  L 6.865384615384616 12.363636363636363  C 6.770032051282052 12.363636363636363  6.691706730769231 12.399857954545457  6.630408653846153 12.472301136363637  C 6.569110576923077 12.544744318181818  6.538461538461539 12.637310606060602  6.538461538461539 12.75  L 6.538461538461539 15.068181818181818  C 6.538461538461539 15.180871212121211  6.569110576923077 15.2734375  6.630408653846153 15.345880681818182  C 6.691706730769231 15.418323863636363  6.770032051282052 15.454545454545453  6.865384615384616 15.454545454545453  L 10.134615384615385 15.454545454545453  C 10.229967948717949 15.454545454545453  10.308293269230768 15.418323863636363  10.369591346153847 15.345880681818182  Z M 5.138822115384616 6.07315340909091  C 5.2001201923076925 6.000710227272728  5.230769230769231 5.9081439393939394  5.230769230769231 5.795454545454546  L 5.230769230769231 3.477272727272728  C 5.230769230769231 3.364583333333331  5.2001201923076925 3.272017045454546  5.138822115384616 3.199573863636364  C 5.077524038461539 3.127130681818182  4.999198717948718 3.09090909090909  4.903846153846153 3.09090909090909  L 1.6346153846153848 3.09090909090909  C 1.5392628205128207 3.09090909090909  1.4609375 3.127130681818182  1.3996394230769231 3.199573863636364  C 1.338341346153846 3.272017045454546  1.3076923076923077 3.364583333333331  1.3076923076923077 3.477272727272728  L 1.3076923076923077 5.795454545454546  C 1.3076923076923077 5.9081439393939394  1.338341346153846 6.000710227272728  1.3996394230769231 6.07315340909091  C 1.4609375 6.14559659090909  1.5392628205128207 6.181818181818182  1.6346153846153848 6.181818181818182  L 4.903846153846153 6.181818181818182  C 4.999198717948718 6.181818181818182  5.077524038461539 6.14559659090909  5.138822115384616 6.07315340909091  Z M 10.369591346153847 10.709517045454543  C 10.430889423076922 10.637073863636363  10.461538461538462 10.544507575757574  10.461538461538462 10.431818181818182  L 10.461538461538462 8.113636363636363  C 10.461538461538462 8.000946969696969  10.430889423076922 7.908380681818182  10.369591346153847 7.8359375  C 10.308293269230768 7.763494318181818  10.229967948717949 7.727272727272728  10.134615384615385 7.727272727272728  L 6.865384615384616 7.727272727272728  C 6.770032051282052 7.727272727272728  6.691706730769231 7.763494318181818  6.630408653846153 7.8359375  C 6.569110576923077 7.908380681818182  6.538461538461539 8.000946969696969  6.538461538461539 8.113636363636363  L 6.538461538461539 10.431818181818182  C 6.538461538461539 10.544507575757574  6.569110576923077 10.637073863636363  6.630408653846153 10.709517045454543  C 6.691706730769231 10.781960227272728  6.770032051282052 10.818181818181818  6.865384615384616 10.818181818181818  L 10.134615384615385 10.818181818181818  C 10.229967948717949 10.818181818181818  10.308293269230768 10.781960227272728  10.369591346153847 10.709517045454543  Z M 15.600360576923078 15.345880681818182  C 15.661658653846153 15.2734375  15.692307692307693 15.180871212121211  15.692307692307693 15.068181818181818  L 15.692307692307693 12.75  C 15.692307692307693 12.637310606060602  15.661658653846153 12.544744318181818  15.600360576923078 12.472301136363637  C 15.5390625 12.399857954545457  15.46073717948718 12.363636363636363  15.365384615384615 12.363636363636363  L 12.096153846153847 12.363636363636363  C 12.000801282051283 12.363636363636363  11.922475961538462 12.399857954545457  11.861177884615385 12.472301136363637  C 11.799879807692307 12.544744318181818  11.769230769230768 12.637310606060602  11.769230769230768 12.75  L 11.769230769230768 15.068181818181818  C 11.769230769230768 15.180871212121211  11.799879807692307 15.2734375  11.861177884615385 15.345880681818182  C 11.922475961538462 15.418323863636363  12.000801282051283 15.454545454545453  12.096153846153847 15.454545454545453  L 15.365384615384615 15.454545454545453  C 15.46073717948718 15.454545454545453  15.5390625 15.418323863636363  15.600360576923078 15.345880681818182  Z M 10.369591346153847 6.07315340909091  C 10.430889423076922 6.000710227272728  10.461538461538462 5.9081439393939394  10.461538461538462 5.795454545454546  L 10.461538461538462 3.477272727272728  C 10.461538461538462 3.364583333333331  10.430889423076922 3.272017045454546  10.369591346153847 3.199573863636364  C 10.308293269230768 3.127130681818182  10.229967948717949 3.09090909090909  10.134615384615385 3.09090909090909  L 6.865384615384616 3.09090909090909  C 6.770032051282052 3.09090909090909  6.691706730769231 3.127130681818182  6.630408653846153 3.199573863636364  C 6.569110576923077 3.272017045454546  6.538461538461539 3.364583333333331  6.538461538461539 3.477272727272728  L 6.538461538461539 5.795454545454546  C 6.538461538461539 5.9081439393939394  6.569110576923077 6.000710227272728  6.630408653846153 6.07315340909091  C 6.691706730769231 6.14559659090909  6.770032051282052 6.181818181818182  6.865384615384616 6.181818181818182  L 10.134615384615385 6.181818181818182  C 10.229967948717949 6.181818181818182  10.308293269230768 6.14559659090909  10.369591346153847 6.07315340909091  Z M 15.600360576923078 10.709517045454543  C 15.661658653846153 10.637073863636363  15.692307692307693 10.544507575757574  15.692307692307693 10.431818181818182  L 15.692307692307693 8.113636363636363  C 15.692307692307693 8.000946969696969  15.661658653846153 7.908380681818182  15.600360576923078 7.8359375  C 15.5390625 7.763494318181818  15.46073717948718 7.727272727272728  15.365384615384615 7.727272727272728  L 12.096153846153847 7.727272727272728  C 12.000801282051283 7.727272727272728  11.922475961538462 7.763494318181818  11.861177884615385 7.8359375  C 11.799879807692307 7.908380681818182  11.769230769230768 8.000946969696969  11.769230769230768 8.113636363636363  L 11.769230769230768 10.431818181818182  C 11.769230769230768 10.544507575757574  11.799879807692307 10.637073863636363  11.861177884615385 10.709517045454543  C 11.922475961538462 10.781960227272728  12.000801282051283 10.818181818181818  12.096153846153847 10.818181818181818  L 15.365384615384615 10.818181818181818  C 15.46073717948718 10.818181818181818  15.5390625 10.781960227272728  15.600360576923078 10.709517045454543  Z M 15.600360576923078 6.07315340909091  C 15.661658653846153 6.000710227272728  15.692307692307693 5.9081439393939394  15.692307692307693 5.795454545454546  L 15.692307692307693 3.477272727272728  C 15.692307692307693 3.364583333333331  15.661658653846153 3.272017045454546  15.600360576923078 3.199573863636364  C 15.5390625 3.127130681818182  15.46073717948718 3.09090909090909  15.365384615384615 3.09090909090909  L 12.096153846153847 3.09090909090909  C 12.000801282051283 3.09090909090909  11.922475961538462 3.127130681818182  11.861177884615385 3.199573863636364  C 11.799879807692307 3.272017045454546  11.769230769230768 3.364583333333331  11.769230769230768 3.477272727272728  L 11.769230769230768 5.795454545454546  C 11.769230769230768 5.9081439393939394  11.799879807692307 6.000710227272728  11.861177884615385 6.07315340909091  C 11.922475961538462 6.14559659090909  12.000801282051283 6.181818181818182  12.096153846153847 6.181818181818182  L 15.365384615384615 6.181818181818182  C 15.46073717948718 6.181818181818182  15.5390625 6.14559659090909  15.600360576923078 6.07315340909091  Z M 16.51983173076923 0.56747159090909  C 16.839943910256412 0.9457859848484834  17 1.400568181818182  17 1.931818181818182  L 17 15.068181818181818  C 17 15.599431818181818  16.839943910256412 16.054214015151516  16.51983173076923 16.43252840909091  C 16.19971955128205 16.8108428030303  15.814903846153847 17  15.365384615384615 17  L 1.6346153846153848 17  C 1.185096153846154 17  0.8002804487179488 16.8108428030303  0.4801682692307692 16.43252840909091  C 0.16005608974358973 16.054214015151516  0 15.599431818181818  0 15.068181818181818  L 0 1.931818181818182  C 0 1.400568181818182  0.16005608974358973 0.9457859848484834  0.4801682692307692 0.56747159090909  C 0.8002804487179488 0.1891571969696948  1.185096153846154 0  1.6346153846153848 0  L 15.365384615384615 0  C 15.814903846153847 0  16.19971955128205 0.1891571969696948  16.51983173076923 0.56747159090909  Z " fill-rule="nonzero" fill="#000000" stroke="none" transform="matrix(1 0 0 1 1005 19 )" />
  </g>
</svg>