<?xml version="1.0" encoding="utf-8"?>
<svg version="1.1" xmlns:xlink="http://www.w3.org/1999/xlink" width="11px" height="15px" xmlns="http://www.w3.org/2000/svg">
  <g transform="matrix(1 0 0 1 -1276 -75 )">
    <path d="M 8.3359375 5.252130681818182  C 8.419671474358974 5.117187499999999  8.461538461538462 4.957386363636363  8.461538461538462 4.772727272727273  C 8.461538461538462 4.588068181818181  8.419671474358974 4.428267045454543  8.3359375 4.293323863636364  C 8.252203525641027 4.158380681818182  8.153044871794874 4.090909090909091  8.038461538461538 4.090909090909091  C 7.923878205128205 4.090909090909091  7.824719551282052 4.158380681818182  7.7409855769230775 4.293323863636364  L 6.76923076923077 5.848721590909091  L 6.76923076923077 2.7272727272727266  C 6.76923076923077 2.5426136363636354  6.727363782051282 2.382812499999998  6.6436298076923075 2.247869318181819  C 6.559895833333334 2.112926136363635  6.46073717948718 2.0454545454545454  6.346153846153846 2.0454545454545454  C 6.231570512820514 2.0454545454545454  6.1324118589743595 2.112926136363635  6.048677884615385 2.247869318181819  C 5.964943910256411 2.382812499999998  5.9230769230769225 2.5426136363636354  5.9230769230769225 2.7272727272727266  L 5.9230769230769225 5.848721590909091  L 4.951322115384615 4.293323863636364  C 4.867588141025641 4.158380681818182  4.768429487179487 4.090909090909091  4.653846153846154 4.090909090909091  C 4.539262820512821 4.090909090909091  4.440104166666667 4.158380681818182  4.3563701923076925 4.293323863636364  C 4.272636217948718 4.428267045454543  4.230769230769231 4.588068181818181  4.230769230769231 4.772727272727273  C 4.230769230769231 4.957386363636363  4.272636217948718 5.117187499999999  4.3563701923076925 5.252130681818182  L 6.048677884615385 7.979403409090909  C 6.1324118589743595 8.114346590909092  6.231570512820514 8.181818181818182  6.346153846153846 8.181818181818182  C 6.46073717948718 8.181818181818182  6.559895833333334 8.114346590909092  6.6436298076923075 7.979403409090909  L 8.3359375 5.252130681818182  Z M 3.9828725961538463 12.672230113636363  C 4.148137019230769 12.93856534090909  4.230769230769231 13.259943181818182  4.230769230769231 13.636363636363637  C 4.230769230769231 14.01278409090909  4.148137019230769 14.334161931818182  3.9828725961538463 14.60049715909091  C 3.817608173076923 14.866832386363637  3.6181891025641026 15  3.384615384615385 15  C 3.151041666666667 15  2.9516225961538467 14.866832386363637  2.786358173076923 14.60049715909091  C 2.62109375 14.334161931818182  2.5384615384615388 14.01278409090909  2.5384615384615388 13.636363636363637  C 2.5384615384615388 13.259943181818182  2.62109375 12.93856534090909  2.786358173076923 12.672230113636363  C 2.9516225961538467 12.405894886363637  3.151041666666667 12.272727272727272  3.384615384615385 12.272727272727272  C 3.6181891025641026 12.272727272727272  3.817608173076923 12.405894886363637  3.9828725961538463 12.672230113636363  Z M 9.90594951923077 12.672230113636363  C 10.071213942307692 12.93856534090909  10.153846153846155 13.259943181818182  10.153846153846155 13.636363636363637  C 10.153846153846155 14.01278409090909  10.071213942307692 14.334161931818182  9.90594951923077 14.60049715909091  C 9.740685096153845 14.866832386363637  9.541266025641027 15  9.307692307692308 15  C 9.07411858974359 15  8.87469951923077 14.866832386363637  8.709435096153845 14.60049715909091  C 8.544170673076923 14.334161931818182  8.461538461538462 14.01278409090909  8.461538461538462 13.636363636363637  C 8.461538461538462 13.259943181818182  8.544170673076923 12.93856534090909  8.709435096153845 12.672230113636363  C 8.87469951923077 12.405894886363637  9.07411858974359 12.272727272727272  9.307692307692308 12.272727272727272  C 9.541266025641027 12.272727272727272  9.740685096153845 12.405894886363637  9.90594951923077 12.672230113636363  Z M 10.874399038461538 1.5660511363636358  C 10.958133012820515 1.7009943181818166  11 1.8607954545454524  11 2.0454545454545454  L 11 7.5  C 11 7.670454545454545  10.96474358974359 7.821377840909092  10.89423076923077 7.952769886363638  C 10.823717948717949 8.08416193181818  10.7333733974359 8.160511363636363  10.623197115384615 8.181818181818182  L 3.7217548076923075 9.48153409090909  C 3.7261618589743595 9.531249999999998  3.7360777243589745 9.60759943181818  3.7515024038461537 9.710582386363637  C 3.7669270833333335 9.813565340909088  3.7801482371794872 9.907670454545455  3.791165865384615 9.992897727272728  C 3.8021834935897445 10.078125  3.8076923076923075 10.156249999999998  3.8076923076923075 10.227272727272728  C 3.8076923076923075 10.340909090909088  3.7548076923076925 10.568181818181818  3.6490384615384612 10.90909090909091  L 9.73076923076923 10.90909090909091  C 9.845352564102564 10.90909090909091  9.944511217948719 10.976562499999998  10.028245192307692 11.111505681818182  C 10.111979166666666 11.246448863636363  10.153846153846155 11.406250000000002  10.153846153846155 11.59090909090909  C 10.153846153846155 11.77556818181818  10.111979166666666 11.935369318181818  10.028245192307692 12.0703125  C 9.944511217948719 12.205255681818182  9.845352564102564 12.272727272727272  9.73076923076923 12.272727272727272  L 2.9615384615384612 12.272727272727272  C 2.8469551282051286 12.272727272727272  2.7477964743589745 12.205255681818182  2.6640625 12.0703125  C 2.5803285256410255 11.935369318181818  2.5384615384615388 11.77556818181818  2.5384615384615388 11.59090909090909  C 2.5384615384615388 11.491477272727273  2.5627003205128203 11.351207386363637  2.6111778846153846 11.170099431818182  C 2.659655448717949 10.988991477272728  2.7246594551282053 10.777698863636362  2.8061899038461537 10.53622159090909  C 2.8877203525641026 10.294744318181818  2.9328926282051286 10.159801136363635  2.941706730769231 10.131392045454545  L 1.7716346153846154 1.3636363636363642  L 0.42307692307692313 1.3636363636363642  C 0.3084935897435898 1.3636363636363642  0.2093349358974359 1.2961647727272712  0.12560096153846154 1.1612215909090906  C 0.041866987179487176 1.0262784090909083  0 0.8664772727272724  0 0.6818181818181812  C 0 0.49715909090909005  0.041866987179487176 0.3373579545454525  0.12560096153846154 0.20241477272727348  C 0.2093349358974359 0.0674715909090895  0.3084935897435898 0  0.42307692307692313 0  L 2.1153846153846154 0  C 2.185897435897436 0  2.248697916666667 0.023082386363635354  2.3037860576923075 0.0692471590909094  C 2.358874198717949 0.11541193181818177  2.4029447115384612 0.1704545454545453  2.4359975961538463 0.234375  C 2.469050480769231 0.2982954545454547  2.4976963141025643 0.3852982954545431  2.5219350961538463 0.4953835227272735  C 2.5461738782051286 0.6054687499999989  2.5627003205128207 0.6995738636363619  2.571514423076923 0.7776988636363641  C 2.580328525641026 0.855823863636363  2.592447916666667 0.9605823863636354  2.6078725961538463 1.0919744318181812  C 2.623297275641026 1.223366477272727  2.633213141025641 1.3139204545454537  2.6376201923076925 1.3636363636363642  L 10.576923076923077 1.3636363636363642  C 10.69150641025641 1.3636363636363642  10.790665064102564 1.4311079545454537  10.874399038461538 1.5660511363636358  Z " fill-rule="nonzero" fill="#000000" stroke="none" transform="matrix(1 0 0 1 1276 75 )" />
  </g>
</svg>