<?xml version="1.0" encoding="utf-8"?>
<svg version="1.1" xmlns:xlink="http://www.w3.org/1999/xlink" width="21px" height="25px" xmlns="http://www.w3.org/2000/svg">
  <g transform="matrix(1 0 0 1 -1125 -21 )">
    <path d="M 10.5 23.883928571428573  C 10.634615384615387 23.883928571428573  10.701923076923078 23.80952380952381  10.701923076923077 23.660714285714285  C 10.701923076923078 23.511904761904763  10.634615384615387 23.4375  10.5 23.4375  C 10.00360576923077 23.4375  9.576622596153848 23.239862351190474  9.219050480769232 22.844587053571427  C 8.861478365384617 22.44931175595238  8.682692307692307 21.977306547619047  8.682692307692307 21.42857142857143  C 8.682692307692307 21.279761904761905  8.615384615384617 21.205357142857142  8.480769230769232 21.205357142857142  C 8.346153846153847 21.205357142857142  8.278846153846153 21.279761904761905  8.278846153846153 21.42857142857143  C 8.278846153846153 22.10751488095238  8.495492788461538 22.68647693452381  8.928786057692307 23.165457589285715  C 9.362079326923078 23.64443824404762  9.885817307692308 23.883928571428573  10.5 23.883928571428573  Z M 5.653846153846153 8.035714285714285  C 5.653846153846153 12.983630952380953  4.534855769230769 16.85267857142857  2.296875 19.642857142857142  L 18.703125 19.642857142857142  C 16.465144230769234 16.85267857142857  15.346153846153845 12.983630952380953  15.346153846153845 8.035714285714285  C 15.346153846153845 7.561383928571427  15.245192307692307 7.073102678571427  15.043269230769232 6.570870535714285  C 14.841346153846155 6.068638392857142  14.551081730769232 5.5896577380952355  14.172475961538462 5.133928571428573  C 13.793870192307693 4.678199404761904  13.282752403846155 4.303850446428573  12.639122596153845 4.010881696428573  C 11.995492788461538 3.7179129464285725  11.282451923076923 3.5714285714285725  10.5 3.5714285714285725  C 9.717548076923077 3.5714285714285725  9.004507211538462 3.7179129464285725  8.360877403846153 4.010881696428573  C 7.717247596153847 4.303850446428573  7.2061298076923075 4.678199404761904  6.827524038461538 5.133928571428573  C 6.448918269230769 5.5896577380952355  6.158653846153847 6.068638392857142  5.956730769230769 6.570870535714285  C 5.7548076923076925 7.073102678571427  5.653846153846153 7.561383928571427  5.653846153846153 8.035714285714285  Z M 19.8515625 18.41517857142857  C 20.196514423076927 18.843005952380953  20.579326923076923 19.252232142857142  21 19.642857142857142  C 21.000000000000004 20.126488095238095  20.840144230769234 20.545014880952383  20.520432692307693 20.8984375  C 20.200721153846157 21.251860119047617  19.822115384615387 21.42857142857143  19.384615384615387 21.42857142857143  L 13.730769230769232 21.42857142857143  C 13.730769230769232 22.414434523809526  13.415264423076923 23.256138392857142  12.784254807692307 23.953683035714285  C 12.153245192307693 24.651227678571427  11.391826923076925 25  10.5 25  C 9.608173076923078 25  8.846754807692307 24.651227678571427  8.215745192307693 23.953683035714285  C 7.5847355769230775 23.256138392857142  7.269230769230769 22.414434523809526  7.269230769230769 21.42857142857143  L 1.6153846153846154 21.42857142857143  C 1.1778846153846156 21.42857142857143  0.7992788461538463 21.251860119047617  0.47956730769230765 20.8984375  C 0.15985576923076927 20.545014880952383  0 20.126488095238095  0 19.642857142857142  C 0.42067307692307704 19.252232142857142  0.8034855769230771 18.843005952380953  1.1484375 18.41517857142857  C 1.4933894230769234 17.98735119047619  1.8509615384615385 17.431640625  2.2211538461538463 16.748046875  C 2.591346153846154 16.064453125  2.9047475961538467 15.32738095238095  3.1613581730769234 14.536830357142858  C 3.4179687500000004 13.746279761904761  3.6283052884615388 12.788318452380953  3.7923677884615388 11.662946428571427  C 3.9564302884615388 10.537574404761903  4.038461538461538 9.32849702380952  4.038461538461538 8.035714285714285  C 4.038461538461538 6.622023809523808  4.530649038461538 5.308314732142858  5.515024038461538 4.094587053571427  C 6.499399038461538 2.880859375  7.790865384615385 2.1437872023809508  9.389423076923077 1.883370535714285  C 9.322115384615385 1.706659226190474  9.288461538461538 1.525297619047619  9.288461538461538 1.339285714285715  C 9.288461538461538 0.9672619047619041  9.40625 0.6510416666666657  9.641826923076923 0.390625  C 9.877403846153847 0.13020833333333426  10.163461538461538 0  10.5 0  C 10.836538461538463 0  11.122596153846157 0.13020833333333426  11.358173076923077 0.390625  C 11.59375 0.6510416666666657  11.711538461538462 0.9672619047619041  11.711538461538462 1.339285714285715  C 11.711538461538462 1.525297619047619  11.677884615384617 1.706659226190474  11.610576923076923 1.883370535714285  C 13.209134615384617 2.1437872023809508  14.500600961538462 2.880859375  15.484975961538462 4.094587053571427  C 16.469350961538463 5.308314732142858  16.961538461538463 6.622023809523808  16.961538461538463 8.035714285714285  C 16.961538461538463 9.32849702380952  17.043569711538463 10.537574404761903  17.207632211538463 11.662946428571427  C 17.371694711538463 12.788318452380953  17.58203125 13.746279761904761  17.838641826923077 14.536830357142858  C 18.095252403846157 15.32738095238095  18.408653846153847 16.064453125  18.778846153846153 16.748046875  C 19.149038461538463 17.431640625  19.50661057692308 17.98735119047619  19.8515625 18.41517857142857  Z " fill-rule="nonzero" fill="#ffffff" stroke="none" transform="matrix(1 0 0 1 1125 21 )" />
  </g>
</svg>