<?xml version="1.0" encoding="utf-8"?>
<svg version="1.1" xmlns:xlink="http://www.w3.org/1999/xlink" width="25px" height="24px" xmlns="http://www.w3.org/2000/svg">
  <g>
    <path d="M 20.60546875 12.68750000000002  C 20.80078125 12.50000000000002  20.8984375 12.26562500000002  20.8984375 11.98437500000002  C 20.8984375 11.70312500000002  20.80078125 11.46875000000002  20.60546875 11.28125000000002  L 14.713541666666666 5.625  L 13.232421875 4.2031250000000195  C 13.037109375 4.0156250000000195  12.79296875 3.9218750000000195  12.5 3.9218750000000195  C 12.20703125 3.9218750000000195  11.962890625 4.0156250000000195  11.767578125 4.2031250000000195  L 10.286458333333332 5.625  L 4.39453125 11.28125000000002  C 4.19921875 11.46875000000002  4.1015625 11.70312500000002  4.1015625 11.98437500000002  C 4.1015625 12.26562500000002  4.19921875 12.50000000000002  4.39453125 12.68750000000002  L 5.875651041666666 14.109375  C 6.070963541666666 14.296875  6.315104166666667 14.390625  6.608072916666667 14.390625  C 6.901041666666667 14.390625  7.145182291666667 14.296875  7.340494791666667 14.109375  L 10.416666666666668 11.15625  L 10.416666666666668 18.99999999999998  C 10.416666666666668 19.270833333333346  10.519748263888852 19.505208333333346  10.725911458333332 19.70312499999998  C 10.932074652777816 19.901041666666675  11.176215277777816 20.00000000000002  11.458333333333332 20.00000000000002  L 13.541666666666666 20.00000000000002  C 13.823784722222184 20.00000000000002  14.067925347222184 19.901041666666675  14.274088541666666 19.70312499999998  C 14.48025173611115 19.505208333333346  14.583333333333334 19.270833333333346  14.583333333333334 18.99999999999998  L 14.583333333333334 11.15625  L 17.659505208333336 14.109375  C 17.865668402777814 14.307291666666693  18.109809027777814 14.40624999999998  18.391927083333336 14.40624999999998  C 18.67404513888885 14.40624999999998  18.91818576388885 14.307291666666693  19.124348958333336 14.109375  L 20.60546875 12.68750000000002  Z M 23.323567708333336 5.9765625  C 24.44118923611115 7.815104166666694  25 9.822916666666673  25 12  C 25 14.177083333333325  24.44118923611115 16.184895833333307  23.323567708333336 18.0234375  C 22.205946180555518 19.861979166666693  20.689561631944482 21.317708333333307  18.7744140625 22.39062500000002  C 16.859266493055518 23.463541666666675  14.76779513888885 24  12.5 24  C 10.232204861111148 24  8.140733506944482 23.463541666666675  6.2255859375 22.39062500000002  C 4.310438368055518 21.317708333333307  2.7940538194444815 19.861979166666693  1.6764322916666667 18.0234375  C 0.5588107638888518 16.184895833333307  0 14.177083333333325  0 12  C 0 9.822916666666673  0.5588107638888518 7.815104166666694  1.6764322916666667 5.9765625  C 2.2566868354047918 5.022015607854566  2.944429992395298 4.17065778443149  3.739661762638296 3.4224890297307713  C 4.476116655753208 2.729618647921696  5.304758047373739 2.1252473046780995  6.2255859375 1.60937499999998  C 8.140733506944482 0.5364583333333268  10.232204861111148 0  12.5 0  C 14.76779513888885 0  16.859266493055518 0.5364583333333268  18.7744140625 1.60937499999998  C 20.689561631944482 2.6822916666666927  22.205946180555518 4.138020833333307  23.323567708333336 5.9765625  Z " fill-rule="nonzero" fill="#ffffff" stroke="none" />
  </g>
</svg>