<?xml version="1.0" encoding="utf-8"?>
<svg version="1.1" xmlns:xlink="http://www.w3.org/1999/xlink" width="23px" height="25px" xmlns="http://www.w3.org/2000/svg">
  <g transform="matrix(1 0 0 1 -1067 -21 )">
    <path d="M 9.7255859375 14.613560267857142  C 9.790473090277779 14.841424851190476  9.812934027777779 14.98325892857143  9.79296875 15.0390625  C 9.782986111111112 15.066964285714285  9.720594618055557 15.064639136904761  9.605794270833334 15.03208705357143  C 9.490993923611112 14.999534970238093  9.333767361111112 14.946056547619047  9.134114583333334 14.871651785714285  L 8.834635416666666 14.74609375  C 8.395399305555557 14.560081845238093  7.96115451388889 14.332217261904761  7.531901041666666 14.0625  C 7.462022569444445 14.015997023809524  7.257378472222223 13.869512648809524  6.91796875 13.623046875  C 6.578559027777779 13.376581101190476  6.388888888888889 13.244047619047617  6.348958333333334 13.22544642857143  C 5.680121527777779 14.183407738095239  5.011284722222222 15.025111607142858  4.342447916666667 15.750558035714285  C 3.533854166666667 16.634114583333332  3.009765625 17.14564732142857  2.7701822916666665 17.28515625  C 2.730251736111111 17.30375744047619  2.6329210069444446 17.32235863095238  2.4781901041666665 17.34095982142857  C 2.3234592013888893 17.359561011904763  2.2311197916666665 17.359561011904763  2.201171875 17.34095982142857  C 2.2610677083333335 17.30375744047619  2.670355902777778 16.875930059523807  3.429036458333333 16.05747767857143  C 3.638671875 15.834263392857142  4.0654296875 15.299479166666663  4.709309895833333 14.453125  C 5.353190104166667 13.606770833333332  5.745008680555556 13.058035714285715  5.884765625 12.806919642857142  C 6.0544704861111125 12.527901785714285  6.309027777777779 12.069847470238097  6.6484375 11.432756696428573  C 6.987847222222223 10.795665922619047  7.167534722222223 10.435267857142858  7.1875 10.3515625  C 7.107638888888889 10.342261904761903  6.55859375 10.495721726190474  5.540364583333333 10.811941964285715  C 5.460503472222222 10.830543154761903  5.3232421875 10.865420386904761  5.128580729166667 10.916573660714285  C 4.933919270833333 10.967726934523808  4.76171875 11.011904761904761  4.611979166666667 11.049107142857142  C 4.462239583333333 11.086309523809524  4.377387152777779 11.109561011904761  4.357421875 11.118861607142858  C 4.337456597222222 11.137462797619047  4.327473958333333 11.186290922619047  4.327473958333333 11.265345982142858  C 4.327473958333333 11.344401041666666  4.322482638888889 11.388578869047619  4.3125 11.397879464285715  C 4.262586805555556 11.490885416666666  4.107855902777779 11.560639880952381  3.848307291666667 11.607142857142858  C 3.6187065972222223 11.672247023809524  3.384114583333334 11.672247023809524  3.14453125 11.607142857142858  C 2.96484375 11.569940476190474  2.8250868055555554 11.472284226190474  2.7252604166666665 11.314174107142858  C 2.685329861111111 11.258370535714285  2.6603732638888893 11.15141369047619  2.650390625 10.993303571428573  C 2.7102864583333335 10.974702380952381  2.8325737847222228 10.951450892857142  3.017252604166667 10.923549107142858  C 3.2019314236111116 10.895647321428573  3.3491753472222223 10.867745535714285  3.458984375 10.83984375  C 4.037977430555556 10.691034226190474  4.562065972222222 10.54222470238095  5.03125 10.393415178571427  C 6.029513888888889 10.067894345238093  6.538628472222223 9.905133928571427  6.55859375 9.905133928571427  C 6.658420138888889 9.886532738095235  6.873046875 9.795851934523808  7.202473958333334 9.633091517857142  C 7.531901041666666 9.470331101190474  7.751519097222223 9.37034970238095  7.861328125 9.333147321428573  C 7.951171875 9.305245535714285  8.058485243055557 9.268043154761903  8.183268229166666 9.221540178571427  C 8.308051215277779 9.17503720238095  8.380425347222223 9.14946056547619  8.400390625 9.144810267857142  C 8.420355902777779 9.140159970238093  8.450303819444445 9.142485119047619  8.490234375 9.151785714285715  C 8.510199652777779 9.263392857142858  8.505208333333334 9.416852678571427  8.475260416666666 9.612165178571427  C 8.475260416666666 9.630766369047619  8.412868923611112 9.756324404761903  8.2880859375 9.988839285714285  C 8.163302951388891 10.221354166666666  8.031032986111112 10.470145089285715  7.891276041666666 10.735212053571427  C 7.751519097222223 11.000279017857142  7.666666666666666 11.156063988095239  7.63671875 11.202566964285715  C 7.387152777777779 11.667596726190474  7.002821180555555 12.276785714285715  6.483723958333334 13.03013392857143  L 7.442057291666666 13.42075892857143  C 7.561848958333334 13.4765625  7.933702256944445 13.625372023809524  8.5576171875 13.8671875  C 9.181532118055557 14.109002976190476  9.518446180555557 14.239211309523808  9.568359375 14.2578125  C 9.608289930555557 14.267113095238093  9.660698784722223 14.385695684523808  9.7255859375 14.613560267857142  Z M 6.408854166666666 8.021763392857142  C 6.578559027777779 8.021763392857142  6.6833767361111125 8.10081845238095  6.723307291666666 8.258928571428573  C 6.753255208333334 8.3984375  6.733289930555555 8.528645833333332  6.663411458333334 8.649553571428573  C 6.543619791666666 8.863467261904761  6.294053819444445 9.040178571428573  5.914713541666666 9.1796875  C 5.615234375 9.291294642857142  5.315755208333333 9.347098214285715  5.016276041666667 9.347098214285715  C 4.756727430555556 9.319196428571427  4.512152777777779 9.19828869047619  4.282552083333333 8.984375  C 4.142795138888889 8.844866071428573  4.052951388888889 8.654203869047619  4.013020833333333 8.412388392857142  L 4.027994791666667 8.370535714285715  C 4.057942708333333 8.3984375  4.1552734375 8.421688988095235  4.319986979166667 8.440290178571427  C 4.484700520833333 8.458891369047619  4.616970486111112 8.458891369047619  4.716796875 8.440290178571427  C 4.816623263888889 8.421688988095235  5.106119791666667 8.347284226190474  5.585286458333333 8.217075892857142  C 5.944661458333334 8.10546875  6.219184027777779 8.040364583333332  6.408854166666666 8.021763392857142  Z M 16.037109375 12.63950892857143  L 17.175130208333332 10.05859375  L 18.118489583333332 13.22544642857143  L 16.037109375 12.63950892857143  Z M 1 6.8359375  L 1 21.219308035714285  L 11 17.982700892857142  L 11 3.5853794642857153  L 1 6.8359375  Z M 18.612630208333332 14.913504464285715  L 19.166666666666668 16.796875  L 20.694010416666668 17.22935267857143  L 17.983723958333332 8.063616071428573  L 16.486328125 7.631138392857142  L 13.251953125 15.108816964285715  L 14.779296875 15.541294642857142  L 15.453125 14.00669642857143  L 18.612630208333332 14.913504464285715  Z M 20.21484375 0.6417410714285726  L 11.634765625 3.3761160714285725  L 20.21484375 5.943080357142858  L 20.21484375 0.6417410714285726  Z M 16.935546875 22.8515625  L 16.291666666666668 21.83314732142857  L 18.657552083333332 22.014508928571427  L 17.848958333333332 24.246651785714285  L 17.25 23.325892857142858  C 15.952256944444446 24.097842261904763  14.574652777777779 24.600074404761905  13.1171875 24.832589285714285  C 12.538194444444446 24.944196428571427  12.083984375 25  11.754557291666668 25  L 10.496744791666666 25  C 9.708116319444445 25  8.712348090277779 24.818638392857142  7.509440104166666 24.455915178571427  C 6.306532118055555 24.093191964285715  5.390625 23.697916666666668  4.76171875 23.270089285714285  C 4.681857638888889 23.20498511904762  4.641927083333333 23.130580357142858  4.641927083333333 23.046875  C 4.641927083333333 22.972470238095237  4.666883680555556 22.909691220238095  4.716796875 22.858537946428573  C 4.7667100694444455 22.807384672619047  4.831597222222222 22.781808035714285  4.911458333333333 22.781808035714285  C 4.951388888888889 22.781808035714285  5.041232638888889 22.816685267857142  5.180989583333333 22.886439732142858  C 5.320746527777779 22.956194196428573  5.472981770833333 23.032924107142858  5.6376953125 23.116629464285715  C 5.802408854166668 23.200334821428573  5.904730902777779 23.251488095238095  5.944661458333334 23.270089285714285  C 6.673394097222223 23.61421130952381  7.4695095486111125 23.900204613095237  8.3330078125 24.128069196428573  C 9.196506076388891 24.355933779761905  9.982638888888891 24.469866071428573  10.69140625 24.469866071428573  C 11.639756944444446 24.469866071428573  12.473307291666668 24.40243675595238  13.192057291666668 24.267578125  C 13.910807291666668 24.13271949404762  14.694444444444446 23.897879464285715  15.54296875 23.563058035714285  C 15.692708333333332 23.49795386904762  15.84494357638889 23.42587425595238  15.999674479166668 23.346819196428573  C 16.154405381944446 23.267764136904763  16.324110243055557 23.179408482142858  16.5087890625 23.081752232142858  C 16.693467881944446 22.984095982142858  16.835720486111114 22.907366071428573  16.935546875 22.8515625  Z M 20.798828125 6.124441964285715  L 23 6.780133928571427  L 23 21.83314732142857  L 11.41015625 18.40122767857143  C 11.270399305555557 18.45703125  9.398654513888891 19.04994419642857  5.794921875 20.179966517857142  C 2.191189236111111 21.309988839285715  0.3543836805555556 21.875  0.2845052083333333 21.875  C 0.15473090277777776 21.875  0.06488715277777778 21.814546130952383  0.014973958333333332 21.693638392857142  C 0.014973958333333332 21.684337797619047  0.00998263888888889 21.670386904761905  0 21.651785714285715  L 0 6.612723214285715  C 0.029947916666666664 6.529017857142858  0.049913194444444434 6.482514880952378  0.05989583333333333 6.473214285714285  C 0.10980902777777779 6.417410714285715  0.20963541666666669 6.366257440476189  0.359375 6.319754464285715  C 1.4275173611111114 5.984933035714285  2.1712239583333335 5.752418154761904  2.5904947916666665 5.622209821428573  L 2.5904947916666665 0.2650669642857151  L 10.945963541666666 3.02734375  C 10.965928819444445 3.02734375  11.767035590277779 2.771577380952378  13.349283854166668 2.2600446428571423  C 14.931532118055557 1.7485119047619042  16.5087890625 1.2439546130952355  18.0810546875 0.7463727678571425  C 19.6533203125 0.24879092261904934  20.459418402777782 0  20.499348958333332 0  C 20.699001736111114 0  20.798828125 0.09765625  20.798828125 0.29296875  L 20.798828125 6.124441964285715  Z " fill-rule="nonzero" fill="#ffffff" stroke="none" transform="matrix(1 0 0 1 1067 21 )" />
  </g>
</svg>