<?xml version="1.0" encoding="utf-8"?>
<svg version="1.1" xmlns:xlink="http://www.w3.org/1999/xlink" width="10px" height="9px" xmlns="http://www.w3.org/2000/svg">
  <g transform="matrix(1 0 0 1 -1205 -97 )">
    <path d="M 9.899799599198397 7.360824742268041  C 9.966599866399466 7.463917525773193  10 7.5824742268041225  10 7.716494845360826  C 10 7.850515463917524  9.966599866399466 7.969072164948452  9.899799599198397 8.072164948453608  L 9.39879759519038 8.845360824742267  C 9.331997327989313 8.94845360824742  9.255177020708084 9  9.168336673346694 9  C 9.081496325985304 9  9.004676018704075 8.94845360824742  8.937875751503006 8.845360824742267  L 5 2.768041237113402  L 1.062124248496994 8.845360824742267  C 0.9953239812959253 8.94845360824742  0.9185036740146962 9  0.8316633266533067 9  C 0.7448229792919172 9  0.6680026720106882 8.94845360824742  0.6012024048096192 8.845360824742267  L 0.1002004008016032 8.072164948453608  C 0.033400133600534496 7.969072164948452  0 7.850515463917524  0 7.716494845360826  C 0 7.5824742268041225  0.033400133600534496 7.463917525773193  0.1002004008016032 7.360824742268041  L 4.7695390781563125 0.1546391752577324  C 4.836339345357382 0.05154639175257614  4.913159652638611 0  5 0  C 5.08684034736139 0  5.163660654642619 0.05154639175257614  5.230460921843687 0.1546391752577324  L 9.899799599198397 7.360824742268041  Z " fill-rule="nonzero" fill="#ffffff" stroke="none" transform="matrix(1 0 0 1 1205 97 )" />
  </g>
</svg>