<?xml version="1.0" encoding="utf-8"?>
<svg version="1.1" xmlns:xlink="http://www.w3.org/1999/xlink" width="197px" height="44px" xmlns="http://www.w3.org/2000/svg">
  <defs>
    <mask fill="white" id="clip587">
      <path d="M 0 39  L 0 5  C 0 2.1999999999999886  2.1999999999999993 0  5 0  L 159.40000000000146 0  L 192 0  C 194.8 0  197 2.1999999999999886  197 5  L 197 39  C 197 41.80000000000001  194.8 44  192 44  L 5 44  C 2.1999999999999993 44  0 41.80000000000001  0 39  Z " fill-rule="evenodd" />
    </mask>
  </defs>
  <g transform="matrix(1 0 0 1 -10 -317 )">
    <path d="M 0 39  L 0 5  C 0 2.1999999999999886  2.1999999999999993 0  5 0  L 159.40000000000146 0  L 192 0  C 194.8 0  197 2.1999999999999886  197 5  L 197 39  C 197 41.80000000000001  194.8 44  192 44  L 5 44  C 2.1999999999999993 44  0 41.80000000000001  0 39  Z " fill-rule="nonzero" fill="#000000" stroke="none" transform="matrix(1 0 0 1 10 317 )" />
    <path d="M 0 39  L 0 5  C 0 2.1999999999999886  2.1999999999999993 0  5 0  L 159.40000000000146 0  L 192 0  C 194.8 0  197 2.1999999999999886  197 5  L 197 39  C 197 41.80000000000001  194.8 44  192 44  L 5 44  C 2.1999999999999993 44  0 41.80000000000001  0 39  Z " stroke-width="2" stroke="#121212" fill="none" transform="matrix(1 0 0 1 10 317 )" mask="url(#clip587)" />
  </g>
</svg>