<?xml version="1.0" encoding="utf-8"?>
<svg version="1.1" xmlns:xlink="http://www.w3.org/1999/xlink" width="11px" height="13px" xmlns="http://www.w3.org/2000/svg">
  <g transform="matrix(1 0 0 1 -18 -471 )">
    <path d="M 0.7857142857142857 10.636363636363635  L 0.7857142857142857 11.818181818181818  L 7.071428571428572 11.818181818181818  L 7.071428571428572 10.636363636363635  L 0.7857142857142857 10.636363636363635  Z M 0.7857142857142857 5.90909090909091  L 0.7857142857142857 7.09090909090909  L 7.071428571428572 7.09090909090909  L 7.071428571428572 5.90909090909091  L 0.7857142857142857 5.90909090909091  Z M 10.238839285714285 11.855113636363635  C 10.35342261904762 11.682765151515152  10.410714285714285 11.473484848484848  10.410714285714285 11.227272727272727  C 10.410714285714285 10.981060606060606  10.35342261904762 10.771780303030303  10.238839285714285 10.599431818181818  C 10.124255952380954 10.427083333333332  9.985119047619047 10.34090909090909  9.821428571428571 10.34090909090909  C 9.657738095238097 10.34090909090909  9.518601190476193 10.427083333333332  9.404017857142858 10.599431818181818  C 9.289434523809524 10.771780303030303  9.232142857142858 10.981060606060606  9.232142857142858 11.227272727272727  C 9.232142857142858 11.473484848484848  9.289434523809524 11.682765151515152  9.404017857142858 11.855113636363635  C 9.518601190476193 12.027462121212123  9.657738095238097 12.113636363636365  9.821428571428571 12.113636363636365  C 9.985119047619047 12.113636363636365  10.124255952380954 12.027462121212123  10.238839285714285 11.855113636363635  Z M 0.7857142857142857 1.181818181818182  L 0.7857142857142857 2.363636363636363  L 7.071428571428572 2.363636363636363  L 7.071428571428572 1.181818181818182  L 0.7857142857142857 1.181818181818182  Z M 10.238839285714285 7.12784090909091  C 10.35342261904762 6.955492424242423  10.410714285714285 6.746212121212121  10.410714285714285 6.5  C 10.410714285714285 6.253787878787877  10.35342261904762 6.044507575757576  10.238839285714285 5.87215909090909  C 10.124255952380954 5.699810606060605  9.985119047619047 5.613636363636363  9.821428571428571 5.613636363636363  C 9.657738095238097 5.613636363636363  9.518601190476193 5.699810606060605  9.404017857142858 5.87215909090909  C 9.289434523809524 6.044507575757576  9.232142857142858 6.253787878787877  9.232142857142858 6.5  C 9.232142857142858 6.746212121212121  9.289434523809524 6.955492424242423  9.404017857142858 7.12784090909091  C 9.518601190476193 7.300189393939394  9.657738095238097 7.386363636363636  9.821428571428571 7.386363636363636  C 9.985119047619047 7.386363636363636  10.124255952380954 7.300189393939394  10.238839285714285 7.12784090909091  Z M 10.238839285714285 2.400568181818182  C 10.35342261904762 2.228219696969697  10.410714285714285 2.0189393939393923  10.410714285714285 1.7727272727272725  C 10.410714285714285 1.52651515151515  10.35342261904762 1.3172348484848468  10.238839285714285 1.1448863636363629  C 10.124255952380954 0.9725378787878776  9.985119047619047 0.886363636363637  9.821428571428571 0.886363636363637  C 9.657738095238097 0.886363636363637  9.518601190476193 0.9725378787878776  9.404017857142858 1.1448863636363629  C 9.289434523809524 1.3172348484848468  9.232142857142858 1.52651515151515  9.232142857142858 1.7727272727272725  C 9.232142857142858 2.0189393939393923  9.289434523809524 2.228219696969697  9.404017857142858 2.400568181818182  C 9.518601190476193 2.5729166666666647  9.657738095238097 2.6590909090909096  9.821428571428571 2.6590909090909096  C 9.985119047619047 2.6590909090909096  10.124255952380954 2.5729166666666647  10.238839285714285 2.400568181818182  Z M 0 9.454545454545455  L 11 9.454545454545455  L 11 13  L 0 13  L 0 9.454545454545455  Z M 0 4.7272727272727275  L 11 4.7272727272727275  L 11 8.272727272727273  L 0 8.272727272727273  L 0 4.7272727272727275  Z M 0 0  L 11 0  L 11 3.545454545454545  L 0 3.545454545454545  L 0 0  Z " fill-rule="nonzero" fill="#ffffff" stroke="none" transform="matrix(1 0 0 1 18 471 )" />
  </g>
</svg>