<?xml version="1.0" encoding="utf-8"?>
<svg version="1.1" xmlns:xlink="http://www.w3.org/1999/xlink" width="11px" height="14px" xmlns="http://www.w3.org/2000/svg">
  <g transform="matrix(1 0 0 1 -18 -603 )">
    <path d="M 2.92578125 10.07421875  C 2.9752604166666665 10.123697916666664  3 10.182291666666666  3 10.25  L 3 10.75  C 3 10.817708333333334  2.9752604166666665 10.876302083333336  2.92578125 10.92578125  C 2.876302083333333 10.975260416666666  2.8177083333333335 11  2.75 11  L 2.25 11  C 2.182291666666667 11  2.123697916666667 10.975260416666666  2.07421875 10.92578125  C 2.0247395833333335 10.876302083333336  2 10.817708333333334  2 10.75  L 2 10.25  C 2 10.182291666666666  2.0247395833333335 10.123697916666664  2.07421875 10.07421875  C 2.123697916666667 10.024739583333334  2.182291666666667 10  2.25 10  L 2.75 10  C 2.8177083333333335 10  2.876302083333333 10.024739583333334  2.92578125 10.07421875  Z M 2.92578125 8.07421875  C 2.9752604166666665 8.123697916666666  3 8.182291666666664  3 8.25  L 3 8.75  C 3 8.817708333333332  2.9752604166666665 8.876302083333332  2.92578125 8.92578125  C 2.876302083333333 8.975260416666668  2.8177083333333335 9  2.75 9  L 2.25 9  C 2.182291666666667 9  2.123697916666667 8.975260416666668  2.07421875 8.92578125  C 2.0247395833333335 8.876302083333332  2 8.817708333333332  2 8.75  L 2 8.25  C 2 8.182291666666664  2.0247395833333335 8.123697916666666  2.07421875 8.07421875  C 2.123697916666667 8.024739583333334  2.182291666666667 8  2.25 8  L 2.75 8  C 2.8177083333333335 8  2.876302083333333 8.024739583333334  2.92578125 8.07421875  Z M 4.92578125 8.07421875  C 4.975260416666667 8.123697916666666  5 8.182291666666664  5 8.25  L 5 8.75  C 5 8.817708333333332  4.975260416666667 8.876302083333332  4.92578125 8.92578125  C 4.876302083333334 8.975260416666668  4.817708333333334 9  4.75 9  L 4.25 9  C 4.182291666666667 9  4.123697916666667 8.975260416666668  4.07421875 8.92578125  C 4.024739583333334 8.876302083333332  4 8.817708333333332  4 8.75  L 4 8.25  C 4 8.182291666666664  4.024739583333334 8.123697916666666  4.07421875 8.07421875  C 4.123697916666667 8.024739583333334  4.182291666666667 8  4.25 8  L 4.75 8  C 4.817708333333334 8  4.876302083333334 8.024739583333334  4.92578125 8.07421875  Z M 2.92578125 6.074218750000001  C 2.9752604166666665 6.123697916666665  3 6.182291666666666  3 6.25  L 3 6.749999999999999  C 3 6.817708333333333  2.9752604166666665 6.876302083333334  2.92578125 6.92578125  C 2.876302083333333 6.975260416666666  2.8177083333333335 7  2.75 7  L 2.25 7  C 2.182291666666667 7  2.123697916666667 6.975260416666666  2.07421875 6.92578125  C 2.0247395833333335 6.876302083333334  2 6.817708333333333  2 6.749999999999999  L 2 6.25  C 2 6.182291666666666  2.0247395833333335 6.123697916666665  2.07421875 6.074218750000001  C 2.123697916666667 6.024739583333334  2.182291666666667 6  2.25 6  L 2.75 6  C 2.8177083333333335 6  2.876302083333333 6.024739583333334  2.92578125 6.074218750000001  Z M 8.92578125 10.07421875  C 8.975260416666668 10.123697916666664  9 10.182291666666666  9 10.25  L 9 10.75  C 9 10.817708333333334  8.975260416666668 10.876302083333336  8.92578125 10.92578125  C 8.876302083333334 10.975260416666666  8.817708333333334 11  8.75 11  L 8.25 11  C 8.182291666666668 11  8.123697916666668 10.975260416666666  8.07421875 10.92578125  C 8.024739583333334 10.876302083333336  8 10.817708333333334  8 10.75  L 8 10.25  C 8 10.182291666666666  8.024739583333334 10.123697916666664  8.07421875 10.07421875  C 8.123697916666668 10.024739583333334  8.182291666666668 10  8.25 10  L 8.75 10  C 8.817708333333334 10  8.876302083333334 10.024739583333334  8.92578125 10.07421875  Z M 6.92578125 8.07421875  C 6.975260416666667 8.123697916666666  7 8.182291666666664  7 8.25  L 7 8.75  C 7 8.817708333333332  6.975260416666667 8.876302083333332  6.92578125 8.92578125  C 6.876302083333333 8.975260416666668  6.817708333333334 9  6.75 9  L 6.250000000000001 9  C 6.182291666666666 9  6.123697916666667 8.975260416666668  6.07421875 8.92578125  C 6.024739583333334 8.876302083333332  6 8.817708333333332  6 8.75  L 6 8.25  C 6 8.182291666666664  6.024739583333334 8.123697916666666  6.07421875 8.07421875  C 6.123697916666667 8.024739583333334  6.182291666666666 8  6.250000000000001 8  L 6.75 8  C 6.817708333333334 8  6.876302083333333 8.024739583333334  6.92578125 8.07421875  Z M 4.92578125 6.074218750000001  C 4.975260416666667 6.123697916666665  5 6.182291666666666  5 6.25  L 5 6.749999999999999  C 5 6.817708333333333  4.975260416666667 6.876302083333334  4.92578125 6.92578125  C 4.876302083333334 6.975260416666666  4.817708333333334 7  4.75 7  L 4.25 7  C 4.182291666666667 7  4.123697916666667 6.975260416666666  4.07421875 6.92578125  C 4.024739583333334 6.876302083333334  4 6.817708333333333  4 6.749999999999999  L 4 6.25  C 4 6.182291666666666  4.024739583333334 6.123697916666665  4.07421875 6.074218750000001  C 4.123697916666667 6.024739583333334  4.182291666666667 6  4.25 6  L 4.75 6  C 4.817708333333334 6  4.876302083333334 6.024739583333334  4.92578125 6.074218750000001  Z M 2.92578125 4.07421875  C 2.9752604166666665 4.123697916666666  3 4.182291666666665  3 4.25  L 3 4.75  C 3 4.817708333333332  2.9752604166666665 4.876302083333333  2.92578125 4.925781250000001  C 2.876302083333333 4.975260416666665  2.8177083333333335 4.999999999999999  2.75 4.999999999999999  L 2.25 4.999999999999999  C 2.182291666666667 4.999999999999999  2.123697916666667 4.975260416666665  2.07421875 4.925781250000001  C 2.0247395833333335 4.876302083333333  2 4.817708333333332  2 4.75  L 2 4.25  C 2 4.182291666666665  2.0247395833333335 4.123697916666666  2.07421875 4.07421875  C 2.123697916666667 4.024739583333332  2.182291666666667 4  2.25 4  L 2.75 4  C 2.8177083333333335 4  2.876302083333333 4.024739583333332  2.92578125 4.07421875  Z M 8.92578125 8.07421875  C 8.975260416666668 8.123697916666666  9 8.182291666666664  9 8.25  L 9 8.75  C 9 8.817708333333332  8.975260416666668 8.876302083333332  8.92578125 8.92578125  C 8.876302083333334 8.975260416666668  8.817708333333334 9  8.75 9  L 8.25 9  C 8.182291666666668 9  8.123697916666668 8.975260416666668  8.07421875 8.92578125  C 8.024739583333334 8.876302083333332  8 8.817708333333332  8 8.75  L 8 8.25  C 8 8.182291666666664  8.024739583333334 8.123697916666666  8.07421875 8.07421875  C 8.123697916666668 8.024739583333334  8.182291666666668 8  8.25 8  L 8.75 8  C 8.817708333333334 8  8.876302083333334 8.024739583333334  8.92578125 8.07421875  Z M 6.92578125 6.074218750000001  C 6.975260416666667 6.123697916666665  7 6.182291666666666  7 6.25  L 7 6.749999999999999  C 7 6.817708333333333  6.975260416666667 6.876302083333334  6.92578125 6.92578125  C 6.876302083333333 6.975260416666666  6.817708333333334 7  6.75 7  L 6.250000000000001 7  C 6.182291666666666 7  6.123697916666667 6.975260416666666  6.07421875 6.92578125  C 6.024739583333334 6.876302083333334  6 6.817708333333333  6 6.749999999999999  L 6 6.25  C 6 6.182291666666666  6.024739583333334 6.123697916666665  6.07421875 6.074218750000001  C 6.123697916666667 6.024739583333334  6.182291666666666 6  6.250000000000001 6  L 6.75 6  C 6.817708333333334 6  6.876302083333333 6.024739583333334  6.92578125 6.074218750000001  Z M 4.92578125 4.07421875  C 4.975260416666667 4.123697916666666  5 4.182291666666665  5 4.25  L 5 4.75  C 5 4.817708333333332  4.975260416666667 4.876302083333333  4.92578125 4.925781250000001  C 4.876302083333334 4.975260416666665  4.817708333333334 4.999999999999999  4.75 4.999999999999999  L 4.25 4.999999999999999  C 4.182291666666667 4.999999999999999  4.123697916666667 4.975260416666665  4.07421875 4.925781250000001  C 4.024739583333334 4.876302083333333  4 4.817708333333332  4 4.75  L 4 4.25  C 4 4.182291666666665  4.024739583333334 4.123697916666666  4.07421875 4.07421875  C 4.123697916666667 4.024739583333332  4.182291666666667 4  4.25 4  L 4.75 4  C 4.817708333333334 4  4.876302083333334 4.024739583333332  4.92578125 4.07421875  Z M 2.92578125 2.074218749999999  C 2.9752604166666665 2.1236979166666656  3 2.182291666666666  3 2.25  L 3 2.7499999999999996  C 3 2.8177083333333313  2.9752604166666665 2.876302083333332  2.92578125 2.92578125  C 2.876302083333333 2.975260416666666  2.8177083333333335 3  2.75 3  L 2.25 3  C 2.182291666666667 3  2.123697916666667 2.975260416666666  2.07421875 2.92578125  C 2.0247395833333335 2.876302083333332  2 2.8177083333333313  2 2.7499999999999996  L 2 2.25  C 2 2.182291666666666  2.0247395833333335 2.1236979166666656  2.07421875 2.074218749999999  C 2.123697916666667 2.0247395833333313  2.182291666666667 2.000000000000001  2.25 2.000000000000001  L 2.75 2.000000000000001  C 2.8177083333333335 2.000000000000001  2.876302083333333 2.0247395833333313  2.92578125 2.074218749999999  Z M 8.92578125 6.074218750000001  C 8.975260416666668 6.123697916666665  9 6.182291666666666  9 6.25  L 9 6.749999999999999  C 9 6.817708333333333  8.975260416666668 6.876302083333334  8.92578125 6.92578125  C 8.876302083333334 6.975260416666666  8.817708333333334 7  8.75 7  L 8.25 7  C 8.182291666666668 7  8.123697916666668 6.975260416666666  8.07421875 6.92578125  C 8.024739583333334 6.876302083333334  8 6.817708333333333  8 6.749999999999999  L 8 6.25  C 8 6.182291666666666  8.024739583333334 6.123697916666665  8.07421875 6.074218750000001  C 8.123697916666668 6.024739583333334  8.182291666666668 6  8.25 6  L 8.75 6  C 8.817708333333334 6  8.876302083333334 6.024739583333334  8.92578125 6.074218750000001  Z M 6.92578125 4.07421875  C 6.975260416666667 4.123697916666666  7 4.182291666666665  7 4.25  L 7 4.75  C 7 4.817708333333332  6.975260416666667 4.876302083333333  6.92578125 4.925781250000001  C 6.876302083333333 4.975260416666665  6.817708333333334 4.999999999999999  6.75 4.999999999999999  L 6.250000000000001 4.999999999999999  C 6.182291666666666 4.999999999999999  6.123697916666667 4.975260416666665  6.07421875 4.925781250000001  C 6.024739583333334 4.876302083333333  6 4.817708333333332  6 4.75  L 6 4.25  C 6 4.182291666666665  6.024739583333334 4.123697916666666  6.07421875 4.07421875  C 6.123697916666667 4.024739583333332  6.182291666666666 4  6.250000000000001 4  L 6.75 4  C 6.817708333333334 4  6.876302083333333 4.024739583333332  6.92578125 4.07421875  Z M 4.92578125 2.074218749999999  C 4.975260416666667 2.1236979166666656  5 2.182291666666666  5 2.25  L 5 2.7499999999999996  C 5 2.8177083333333313  4.975260416666667 2.876302083333332  4.92578125 2.92578125  C 4.876302083333334 2.975260416666666  4.817708333333334 3  4.75 3  L 4.25 3  C 4.182291666666667 3  4.123697916666667 2.975260416666666  4.07421875 2.92578125  C 4.024739583333334 2.876302083333332  4 2.8177083333333313  4 2.7499999999999996  L 4 2.25  C 4 2.182291666666666  4.024739583333334 2.1236979166666656  4.07421875 2.074218749999999  C 4.123697916666667 2.0247395833333313  4.182291666666667 2.000000000000001  4.25 2.000000000000001  L 4.75 2.000000000000001  C 4.817708333333334 2.000000000000001  4.876302083333334 2.0247395833333313  4.92578125 2.074218749999999  Z M 8.92578125 4.07421875  C 8.975260416666668 4.123697916666666  9 4.182291666666665  9 4.25  L 9 4.75  C 9 4.817708333333332  8.975260416666668 4.876302083333333  8.92578125 4.925781250000001  C 8.876302083333334 4.975260416666665  8.817708333333334 4.999999999999999  8.75 4.999999999999999  L 8.25 4.999999999999999  C 8.182291666666668 4.999999999999999  8.123697916666668 4.975260416666665  8.07421875 4.925781250000001  C 8.024739583333334 4.876302083333333  8 4.817708333333332  8 4.75  L 8 4.25  C 8 4.182291666666665  8.024739583333334 4.123697916666666  8.07421875 4.07421875  C 8.123697916666668 4.024739583333332  8.182291666666668 4  8.25 4  L 8.75 4  C 8.817708333333334 4  8.876302083333334 4.024739583333332  8.92578125 4.07421875  Z M 6.92578125 2.074218749999999  C 6.975260416666667 2.1236979166666656  7 2.182291666666666  7 2.25  L 7 2.7499999999999996  C 7 2.8177083333333313  6.975260416666667 2.876302083333332  6.92578125 2.92578125  C 6.876302083333333 2.975260416666666  6.817708333333334 3  6.75 3  L 6.250000000000001 3  C 6.182291666666666 3  6.123697916666667 2.975260416666666  6.07421875 2.92578125  C 6.024739583333334 2.876302083333332  6 2.8177083333333313  6 2.7499999999999996  L 6 2.25  C 6 2.182291666666666  6.024739583333334 2.1236979166666656  6.07421875 2.074218749999999  C 6.123697916666667 2.0247395833333313  6.182291666666666 2.000000000000001  6.250000000000001 2.000000000000001  L 6.75 2.000000000000001  C 6.817708333333334 2.000000000000001  6.876302083333333 2.0247395833333313  6.92578125 2.074218749999999  Z M 8.92578125 2.074218749999999  C 8.975260416666668 2.1236979166666656  9 2.182291666666666  9 2.25  L 9 2.7499999999999996  C 9 2.8177083333333313  8.975260416666668 2.876302083333332  8.92578125 2.92578125  C 8.876302083333334 2.975260416666666  8.817708333333334 3  8.75 3  L 8.25 3  C 8.182291666666668 3  8.123697916666668 2.975260416666666  8.07421875 2.92578125  C 8.024739583333334 2.876302083333332  8 2.8177083333333313  8 2.7499999999999996  L 8 2.25  C 8 2.182291666666666  8.024739583333334 2.1236979166666656  8.07421875 2.074218749999999  C 8.123697916666668 2.0247395833333313  8.182291666666668 2.000000000000001  8.25 2.000000000000001  L 8.75 2.000000000000001  C 8.817708333333334 2.000000000000001  8.876302083333334 2.0247395833333313  8.92578125 2.074218749999999  Z M 7 11.25  L 7 13  L 10 13  L 10 0.9999999999999996  L 1 0.9999999999999996  L 1 13  L 4 13  L 4 11.25  C 4 11.182291666666668  4.024739583333334 11.123697916666666  4.07421875 11.07421875  C 4.123697916666667 11.024739583333334  4.182291666666667 11  4.25 11  L 6.75 11  C 6.817708333333334 11  6.876302083333333 11.024739583333334  6.92578125 11.07421875  C 6.975260416666667 11.123697916666666  7 11.182291666666668  7 11.25  Z M 10.8515625 0.14843750000000044  C 10.950520833333334 0.24739583333333148  11 0.3645833333333328  11 0.4999999999999998  L 11 13.5  C 11 13.635416666666666  10.950520833333334 13.752604166666666  10.8515625 13.8515625  C 10.752604166666668 13.950520833333334  10.635416666666668 14  10.5 14  L 0.5 14  C 0.36458333333333337 14  0.24739583333333334 13.950520833333334  0.1484375 13.8515625  C 0.04947916666666666 13.752604166666666  0 13.635416666666666  0 13.5  L 0 0.4999999999999998  C 0 0.3645833333333328  0.04947916666666666 0.24739583333333148  0.1484375 0.14843750000000044  C 0.24739583333333334 0.04947916666666785  0.36458333333333337 0  0.5 0  L 10.5 0  C 10.635416666666668 0  10.752604166666668 0.04947916666666785  10.8515625 0.14843750000000044  Z " fill-rule="nonzero" fill="#ffffff" stroke="none" transform="matrix(1 0 0 1 18 603 )" />
  </g>
</svg>