<?xml version="1.0" encoding="utf-8"?>
<svg version="1.1" xmlns:xlink="http://www.w3.org/1999/xlink" width="23px" height="25px" xmlns="http://www.w3.org/2000/svg">
  <g transform="matrix(1 0 0 1 -33 -165 )">
    <path d="M 19.69392812887237 14.282930631332814  C 19.703428335398595 14.308911405559884  19.70817843866171 14.347882566900495  19.70817843866171 14.399844115354638  L 19.70817843866171 23.752922837100545  C 19.70817843866171 24.09067290205248  19.61792647666254 24.38295661210704  19.437422552664188 24.629773967264224  C 19.256918628665844 24.876591322421408  19.043163981825696 25  18.796158612143742 25  L 13.324039653035936 25  L 13.324039653035936 17.517537022603275  L 9.675960346964064 17.517537022603275  L 9.675960346964064 25  L 4.203841387856258 25  C 3.9568360181743087 25  3.74308137133416 24.876591322421408  3.5625774473358116 24.629773967264224  C 3.382073523337464 24.38295661210704  3.2918215613382897 24.09067290205248  3.2918215613382897 23.752922837100545  L 3.2918215613382897 14.399844115354638  C 3.2918215613382897 14.3868537282411  3.2941966129698472 14.367368147570797  3.2989467162329618 14.341387373343725  C 3.3036968194960763 14.315406599116653  3.3060718711276333 14.29592101844635  3.3060718711276333 14.282930631332814  L 11.5 5.046765393608729  L 19.69392812887237 14.282930631332814  Z M 22.985749690210657 12.597427903351521  C 22.995249896736887 12.772798129384256  22.961999173895087 12.925435177968303  22.88599752168525 13.055339049103665  L 22.00247831474597 14.497272018706159  C 21.926476662536142 14.614185502727983  21.82672449401074 14.68563263185243  21.703221809169765 14.711613406079502  L 21.660470879801736 14.711613406079502  C 21.53696819496076 14.711613406079502  21.43721602643536 14.666147051182124  21.361214374225526 14.57521434138737  L 11.5 3.33203429462198  L 1.6387856257744733 14.57521434138737  C 1.5247831474597273 14.679137438295658  1.4107806691449816 14.724603793193037  1.2967781908302354 14.711613406079502  C 1.1732755059892608 14.68563263185243  1.073523337463858 14.614185502727983  0.9975216852540272 14.497272018706159  L 0.11400247831474597 13.055339049103665  C 0.03800082610491534 12.925435177968303  0.00475010326311445 12.772798129384256  0.014250309789343246 12.597427903351521  C 0.023750516315572148 12.422057677318785  0.07600165220983068 12.282411015848272  0.17100371747211895 12.178487918939984  L 10.416976456009913 0.5066250974279041  C 10.720983064849236 0.16887503247596525  11.081990912845932 0  11.5 0  C 11.91800908715407 0  12.279016935150766 0.16887503247596525  12.583023543990087 0.5066250974279041  L 16.06009913258984 4.481683554169913  L 16.06009913258984 0.681995323460638  C 16.06009913258984 0.5001299038711327  16.102850061957867 0.35074045206547055  16.18835192069393 0.2338269680436489  C 16.273853779429988 0.11691348402182444  16.38310615448162 0.05845674201091222  16.516109045848822 0.05845674201091222  L 19.252168525402727 0.05845674201091222  C 19.385171416769932 0.05845674201091222  19.49442379182156 0.11691348402182444  19.57992565055762 0.2338269680436489  C 19.66542750929368 0.35074045206547055  19.70817843866171 0.5001299038711327  19.70817843866171 0.681995323460638  L 19.70817843866171 8.63211223694466  L 22.828996282527882 12.178487918939984  C 22.92399834779017 12.282411015848272  22.97624948368443 12.422057677318785  22.985749690210657 12.597427903351521  Z " fill-rule="nonzero" fill="#ffffff" stroke="none" transform="matrix(1 0 0 1 33 165 )" />
  </g>
</svg>