<?xml version="1.0" encoding="utf-8"?>
<svg version="1.1" xmlns:xlink="http://www.w3.org/1999/xlink" width="15px" height="18px" xmlns="http://www.w3.org/2000/svg">
  <g transform="matrix(1 0 0 1 -124 -110 )">
    <path d="M 7.5 17.196428571428573  C 7.596153846153848 17.196428571428573  7.64423076923077 17.142857142857142  7.644230769230768 17.035714285714285  C 7.64423076923077 16.928571428571427  7.596153846153848 16.875  7.5 16.875  C 7.1454326923076925 16.875  6.840444711538463 16.732700892857142  6.5850360576923075 16.448102678571427  C 6.329627403846154 16.163504464285715  6.201923076923077 15.823660714285714  6.201923076923077 15.42857142857143  C 6.201923076923077 15.321428571428571  6.153846153846154 15.267857142857142  6.0576923076923075 15.267857142857142  C 5.961538461538462 15.267857142857142  5.913461538461538 15.321428571428571  5.913461538461538 15.42857142857143  C 5.913461538461538 15.917410714285714  6.068209134615385 16.334263392857142  6.377704326923077 16.679129464285715  C 6.68719951923077 17.023995535714285  7.0612980769230775 17.196428571428573  7.5 17.196428571428573  Z M 14.1796875 13.25892857142857  C 14.426081730769232 13.566964285714286  14.699519230769232 13.861607142857142  15 14.142857142857142  C 15.000000000000004 14.491071428571429  14.885817307692308 14.792410714285715  14.657451923076923 15.046875  C 14.42908653846154 15.301339285714285  14.158653846153847 15.42857142857143  13.846153846153847 15.42857142857143  L 9.807692307692308 15.42857142857143  C 9.807692307692308 16.138392857142858  9.582331730769232 16.744419642857142  9.131610576923077 17.246651785714285  C 8.680889423076923 17.748883928571427  8.137019230769232 18  7.5 18  C 6.86298076923077 18  6.319110576923077 17.748883928571427  5.868389423076923 17.246651785714285  C 5.417668269230769 16.744419642857142  5.1923076923076925 16.138392857142858  5.1923076923076925 15.42857142857143  L 1.153846153846154 15.42857142857143  C 0.841346153846154 15.42857142857143  0.5709134615384616 15.301339285714285  0.3425480769230769 15.046875  C 0.11418269230769235 14.792410714285715  0 14.491071428571429  0 14.142857142857142  C 0.30048076923076933 13.861607142857142  0.5739182692307694 13.566964285714286  0.8203125 13.25892857142857  C 1.0667067307692308 12.950892857142856  1.3221153846153848 12.55078125  1.5865384615384615 12.05859375  C 1.8509615384615388 11.56640625  2.0748197115384617 11.035714285714285  2.258112980769231 10.466517857142858  C 2.4414062500000004 9.897321428571429  2.5916466346153846 9.207589285714286  2.7088341346153846 8.397321428571427  C 2.8260216346153846 7.587053571428571  2.8846153846153846 6.716517857142855  2.8846153846153846 5.785714285714285  C 2.8846153846153846 4.767857142857142  3.2361778846153846 3.8219866071428577  3.939302884615384 2.948102678571428  C 4.642427884615384 2.07421875  5.564903846153847 1.5435267857142845  6.706730769230769 1.3560267857142851  C 6.658653846153847 1.2287946428571412  6.634615384615384 1.0982142857142858  6.634615384615384 0.9642857142857149  C 6.634615384615384 0.696428571428571  6.71875 0.46874999999999933  6.887019230769231 0.28125  C 7.055288461538463 0.09375000000000067  7.259615384615385 0  7.5 0  C 7.740384615384616 0  7.94471153846154 0.09375000000000067  8.112980769230768 0.28125  C 8.28125 0.46874999999999933  8.365384615384615 0.696428571428571  8.365384615384615 0.9642857142857149  C 8.365384615384615 1.0982142857142858  8.341346153846153 1.2287946428571412  8.293269230769232 1.3560267857142851  C 9.435096153846155 1.5435267857142845  10.357572115384615 2.07421875  11.060697115384615 2.948102678571428  C 11.763822115384615 3.8219866071428577  12.115384615384615 4.767857142857142  12.115384615384615 5.785714285714285  C 12.115384615384615 6.716517857142855  12.173978365384615 7.587053571428571  12.291165865384615 8.397321428571427  C 12.408353365384615 9.207589285714286  12.55859375 9.897321428571429  12.741887019230768 10.466517857142858  C 12.92518028846154 11.035714285714285  13.149038461538462 11.56640625  13.413461538461538 12.05859375  C 13.677884615384617 12.55078125  13.933293269230772 12.950892857142856  14.1796875 13.25892857142857  Z " fill-rule="nonzero" fill="#f59a23" stroke="none" transform="matrix(1 0 0 1 124 110 )" />
  </g>
</svg>