<?xml version="1.0" encoding="utf-8"?>
<svg version="1.1" xmlns:xlink="http://www.w3.org/1999/xlink" width="12px" height="17px" xmlns="http://www.w3.org/2000/svg">
  <g transform="matrix(1 0 0 1 -88 -109 )">
    <path d="M 11.1953125 4.2333984375  C 11.731770833333332 5.5356987847222205  12 6.957899305555554  12 8.5  C 12 10.042100694444445  11.731770833333332 11.464301215277775  11.1953125 12.7666015625  C 10.658854166666668 14.068901909722223  9.930989583333334 15.100043402777777  9.01171875 15.860026041666668  C 8.092447916666668 16.620008680555557  7.088541666666667 17  6 17  C 4.911458333333334 17  3.9075520833333335 16.620008680555557  2.98828125 15.860026041666668  C 2.069010416666667 15.100043402777777  1.3411458333333335 14.068901909722223  0.8046875 12.7666015625  C 0.26822916666666663 11.464301215277775  0 10.042100694444445  0 8.5  C 0 6.957899305555554  0.26822916666666663 5.5356987847222205  0.8046875 4.2333984375  C 1.3411458333333335 2.9310980902777777  2.069010416666667 1.8999565972222205  2.98828125 1.1399739583333326  C 3.9075520833333335 0.379991319444443  4.911458333333334 0  6 0  C 7.088541666666667 0  8.092447916666668 0.379991319444443  9.01171875 1.1399739583333326  C 9.930989583333334 1.8999565972222205  10.658854166666668 2.9310980902777777  11.1953125 4.2333984375  Z " fill-rule="nonzero" fill="#95f204" stroke="none" transform="matrix(1 0 0 1 88 109 )" />
  </g>
</svg>