<?xml version="1.0" encoding="utf-8"?>
<svg version="1.1" xmlns:xlink="http://www.w3.org/1999/xlink" width="14px" height="15px" xmlns="http://www.w3.org/2000/svg">
  <g transform="matrix(1 0 0 1 -1092 -95 )">
    <path d="M 5.833333333333334 6.875000000000001  L 5.833333333333334 9.375  L 8.166666666666668 8.125000000000002  L 5.833333333333334 6.875000000000001  Z M 4.666666666666666 6.103515624999999  L 9.333333333333332 3.603515625  L 9.333333333333332 8.896484374999998  L 4.666666666666666 11.396484375  L 4.666666666666666 6.103515624999999  Z M 11.29296875 10.166015625  C 11.73654513888889 9.352213541666664  11.958333333333332 8.463541666666668  11.958333333333332 7.5  C 11.958333333333332 6.536458333333332  11.73654513888889 5.647786458333333  11.29296875 4.833984375  C 10.849392361111112 4.020182291666665  10.247829861111112 3.375651041666665  9.48828125 2.900390625  C 8.72873263888889 2.425130208333333  7.899305555555556 2.1875000000000004  7 2.1875000000000004  C 6.100694444444445 2.1875000000000004  5.271267361111112 2.425130208333333  4.51171875 2.900390625  C 3.7521701388888893 3.375651041666665  3.1506076388888893 4.020182291666665  2.70703125 4.833984375  C 2.263454861111111 5.647786458333333  2.041666666666667 6.536458333333332  2.041666666666667 7.5  C 2.041666666666667 8.463541666666668  2.263454861111111 9.352213541666664  2.70703125 10.166015625  C 3.1506076388888893 10.979817708333332  3.7521701388888893 11.624348958333334  4.51171875 12.099609375  C 5.271267361111112 12.574869791666666  6.100694444444445 12.8125  7 12.8125  C 7.899305555555556 12.8125  8.72873263888889 12.574869791666666  9.48828125 12.099609375  C 10.247829861111112 11.624348958333334  10.849392361111112 10.979817708333332  11.29296875 10.166015625  Z M 13.061197916666668 3.7353515625  C 13.68706597222222 4.884440104166665  14 6.139322916666664  14 7.5  C 14 8.860677083333334  13.68706597222222 10.115559895833332  13.061197916666668 11.2646484375  C 12.435329861111112 12.413736979166666  11.58615451388889 13.323567708333334  10.513671875 13.994140625  C 9.441189236111112 14.664713541666668  8.269965277777779 15  7 15  C 5.730034722222222 15  4.558810763888889 14.664713541666668  3.486328125 13.994140625  C 2.413845486111111 13.323567708333334  1.564670138888889 12.413736979166666  0.9388020833333334 11.2646484375  C 0.31293402777777773 10.115559895833332  0 8.860677083333334  0 7.5  C 0 6.139322916666664  0.31293402777777773 4.884440104166665  0.9388020833333334 3.7353515625  C 1.564670138888889 2.586263020833333  2.413845486111111 1.6764322916666652  3.486328125 1.0058593749999996  C 4.558810763888889 0.33528645833333204  5.730034722222222 0  7 0  C 8.269965277777779 0  9.441189236111112 0.33528645833333204  10.513671875 1.0058593749999996  C 11.58615451388889 1.6764322916666652  12.435329861111112 2.586263020833333  13.061197916666668 3.7353515625  Z " fill-rule="nonzero" fill="#ffffff" stroke="none" transform="matrix(1 0 0 1 1092 95 )" />
  </g>
</svg>