<?xml version="1.0" encoding="utf-8"?>
<svg version="1.1" xmlns:xlink="http://www.w3.org/1999/xlink" width="36px" height="24px" xmlns="http://www.w3.org/2000/svg">
  <g transform="matrix(1 0 0 1 -84 -21 )">
    <path d="M 35.09510869565217 10.613607188703465  C 35.69836956521739 10.973042362002566  36 11.435173299101411  36 12  C 36 12.554557124518615  35.69836956521739 13.021822849807444  35.09510869565217 13.401797175866495  L 19.17391304347826 23.430038510911423  C 18.53804347826087 23.810012836970476  17.796195652173914 24  16.94836956521739 24  C 16.116847826086957 24  15.383152173913045 23.810012836970476  14.74728260869565 23.430038510911423  L 12.91304347826087 22.274711168164313  C 12.293478260869566 21.88446726572529  11.983695652173914 21.417201540436455  11.983695652173914 20.872913992297818  C 11.983695652173914 20.32862644415918  12.293478260869566 19.861360718870344  12.91304347826087 19.471116816431323  L 20.07880434782609 15  L 2.861413043478261 15  C 2.0135869565217392 14.957637997432608  1.3247282608695654 14.765083440308088  0.7948369565217391 14.379974326059049  C 0.264945652173913 13.994865211810012  0 13.530166880616173  0 12.985879332477536  L 0 11.014120667522464  C 0 10.469833119383825  0.264945652173913 10.005134788189988  0.7948369565217391 9.620025673940951  C 1.3247282608695654 9.234916559691912  2.0135869565217392 9.042362002567394  2.861413043478261 9  L 20.07880434782609 9  L 12.91304347826087 4.513478818998717  C 12.293478260869566 4.14377406931964  11.983695652173914 3.681643132220797  11.983695652173914 3.1270860077021823  C 11.983695652173914 2.57252888318357  12.293478260869566 2.110397946084724  12.91304347826087 1.7406931964056476  L 14.74728260869565 0.5853658536585371  C 15.366847826086959 0.1951219512195106  16.10054347826087 0  16.94836956521739 0  C 17.8125 0  18.554347826086957 0.1951219512195106  19.17391304347826 0.5853658536585371  L 35.09510869565217 10.613607188703465  Z " fill-rule="nonzero" fill="#333333" stroke="none" transform="matrix(1 0 0 1 84 21 )" />
  </g>
</svg>