<?xml version="1.0" encoding="utf-8"?>
<svg version="1.1" xmlns:xlink="http://www.w3.org/1999/xlink" width="15px" height="14px" xmlns="http://www.w3.org/2000/svg">
  <g transform="matrix(1 0 0 1 -543 -257 )">
    <path d="M 14.622961956521738 6.191270860077021  C 14.874320652173914 6.4009413778348305  15 6.670517757809156  15 7  C 15 7.3234916559691925  14.874320652173914 7.596063329054342  14.622961956521738 7.817715019255456  L 7.989130434782609 13.667522464698331  C 7.724184782608696 13.889174154899443  7.415081521739131 14  7.061820652173913 14  C 6.7153532608695645 14  6.4096467391304355 13.889174154899443  6.1447010869565215 13.667522464698331  L 5.380434782608695 12.993581514762516  C 5.122282608695652 12.765939238339753  4.993206521739131 12.493367565254598  4.993206521739131 12.17586649550706  C 4.993206521739131 11.858365425759523  5.122282608695652 11.585793752674368  5.380434782608695 11.358151476251605  L 8.366168478260871 8.725288831835687  L 1.1922554347826089 8.725288831835687  C 0.8389945652173914 8.725288831835687  0.5519701086956522 8.612965340179718  0.3311820652173913 8.38831835686778  C 0.11039402173913042 8.16367137355584  0 7.892597347026101  0 7.575096277278563  L 0 6.424903722721437  C 0 6.107402652973898  0.11039402173913042 5.83632862644416  0.3311820652173913 5.611681643132221  C 0.5519701086956522 5.387034659820282  0.8389945652173914 5.2747111681643135  1.1922554347826089 5.2747111681643135  L 8.366168478260871 5.2747111681643135  L 5.380434782608695 2.632862644415918  C 5.122282608695652 2.417201540436457  4.993206521739131 2.1476251604621317  4.993206521739131 1.8241335044929397  C 4.993206521739131 1.5006418485237492  5.122282608695652 1.2310654685494224  5.380434782608695 1.015404364569961  L 6.1447010869565215 0.34146341463414664  C 6.402853260869566 0.11382113821138118  6.708559782608695 0  7.061820652173913 0  C 7.421875 0  7.730978260869565 0.11382113821138118  7.989130434782609 0.34146341463414664  L 14.622961956521738 6.191270860077021  Z " fill-rule="nonzero" fill="#ffffff" stroke="none" transform="matrix(1 0 0 1 543 257 )" />
  </g>
</svg>