<?xml version="1.0" encoding="utf-8"?>
<svg version="1.1" xmlns:xlink="http://www.w3.org/1999/xlink" width="16px" height="11px" xmlns="http://www.w3.org/2000/svg">
  <g transform="matrix(1 0 0 1 -564 -163 )">
    <path d="M 6.1 5.499018032494199  C 6.1 5.499018032494199  6.1 5.500981967505803  6.1 5.500981967505803  C 4.5 7.170326727370113  2.8 9.82163899303696  1 9.82163899303696  C 1 9.82163899303696  0 9.82163899303696  0 9.82163899303696  L 0 11  C 0 11  1.1000000000000005 11  1.1000000000000005 11  C 3.3 11  5.2 8.2504909837529  7.000000000000002 6.384752722728084  C 7.000000000000002 6.384752722728084  7.267 6.090162470987324  7.267 6.090162470987324  L 13.600000000000001 6.090162470987324  L 11.600000000000001 8.054097482592395  L 12.400000000000002 8.839671487234424  L 16 5.500981967505803  L 12.400000000000002 2.1622924477771837  L 11.600000000000001 2.9478664524192113  L 13.600000000000001 4.911801464024281  L 7.268 4.911801464024281  C 7.268 4.911801464024281  7.000000000000002 4.615247277271916  7.000000000000002 4.615247277271916  C 5.2 2.7495090162470985  3.3 0  1.1000000000000005 0  C 1.1000000000000005 0  0 0  0 0  L 0 1.1783610069630432  C 0 1.1783610069630432  1 1.1783610069630432  1 1.1783610069630432  C 2.8 1.1783610069630432  4.5 3.829673272629888  6.1 5.499018032494199  Z " fill-rule="nonzero" fill="#c0bfc0" stroke="none" transform="matrix(1 0 0 1 564 163 )" />
  </g>
</svg>