<?xml version="1.0" encoding="utf-8"?>
<svg version="1.1" xmlns:xlink="http://www.w3.org/1999/xlink" width="16px" height="15px" xmlns="http://www.w3.org/2000/svg">
  <g transform="matrix(1 0 0 1 -645 -161 )">
    <path d="M 12.600000000000001 8.108108108108107  L 11.700000000000001 8.91891891891892  L 13.700000000000001 10.945945945945946  C 13.700000000000001 10.945945945945946  11.9 10.945945945945946  11.9 10.945945945945946  C 10.100000000000001 10.945945945945946  8.4 9.222972972972974  6.8 7.5  C 8.4 5.777027027027028  10.100000000000001 4.054054054054053  11.9 4.054054054054053  C 11.9 4.054054054054053  13.700000000000001 4.054054054054053  13.700000000000001 4.054054054054053  L 11.700000000000001 6.081081081081081  L 12.600000000000001 6.891891891891892  L 16 3.445945945945945  L 12.4 0  L 11.600000000000001 0.8108108108108115  L 13.600000000000001 2.837837837837838  C 13.600000000000001 2.837837837837838  11.8 2.837837837837838  11.8 2.837837837837838  C 9.600000000000001 2.837837837837838  7.700000000000002 4.662162162162164  5.9 6.587837837837836  C 5.9 6.587837837837836  5.633000000000002 6.892905405405405  5.633000000000002 6.892905405405405  L 0 6.892905405405405  L 0 8.107094594594596  L 5.633000000000002 8.107094594594596  C 5.633000000000002 8.107094594594596  5.9 8.412162162162163  5.9 8.412162162162163  C 7.700000000000002 10.337837837837839  9.600000000000001 12.162162162162161  11.8 12.162162162162161  C 11.8 12.162162162162161  13.600000000000001 12.162162162162161  13.600000000000001 12.162162162162161  L 11.600000000000001 14.18918918918919  L 12.4 15  L 16 11.554054054054054  L 12.600000000000001 8.108108108108107  Z " fill-rule="nonzero" fill="#c0bfc0" stroke="none" transform="matrix(1 0 0 1 645 161 )" />
  </g>
</svg>