<?xml version="1.0" encoding="utf-8"?>
<svg version="1.1" xmlns:xlink="http://www.w3.org/1999/xlink" width="17px" height="17px" xmlns="http://www.w3.org/2000/svg">
  <g transform="matrix(1 0 0 1 -395 -160 )">
    <path d="M 15.9 5.3  C 16.1 5  16.1 4.5  15.8 4.2  L 12.8 1.2000000000000002  C 12.5 0.9000000000000001  12.100000000000001 0.9000000000000001  11.8 1.2000000000000002  L 10.3 2.7  L 14.4 6.8  L 15.9 5.3  Z M 9 4  L 2 11  L 0 17  L 6 15  L 13 8  L 9 4  Z M 11.6 8  L 5.5 14.1  L 4.6 14.4  L 2.5999999999999996 12.400000000000002  L 2.8999999999999995 11.5  L 9 5.4  L 11.6 8  Z " fill-rule="nonzero" fill="#c0bfc0" stroke="none" transform="matrix(1 0 0 1 395 160 )" />
  </g>
</svg>