<?xml version="1.0" encoding="utf-8"?>
<svg version="1.1" xmlns:xlink="http://www.w3.org/1999/xlink" width="12px" height="13px" xmlns="http://www.w3.org/2000/svg">
  <g transform="matrix(1 0 0 1 -1190 -95 )">
    <path d="M 0.8571428571428571 10.636363636363635  L 0.8571428571428571 11.818181818181818  L 7.714285714285715 11.818181818181818  L 7.714285714285715 10.636363636363635  L 0.8571428571428571 10.636363636363635  Z M 0.8571428571428571 5.90909090909091  L 0.8571428571428571 7.09090909090909  L 7.714285714285715 7.09090909090909  L 7.714285714285715 5.90909090909091  L 0.8571428571428571 5.90909090909091  Z M 11.169642857142858 11.855113636363635  C 11.294642857142858 11.682765151515152  11.357142857142858 11.473484848484848  11.357142857142858 11.227272727272727  C 11.357142857142858 10.981060606060606  11.294642857142858 10.771780303030303  11.169642857142858 10.599431818181818  C 11.044642857142858 10.427083333333332  10.892857142857142 10.34090909090909  10.714285714285715 10.34090909090909  C 10.535714285714286 10.34090909090909  10.383928571428573 10.427083333333332  10.258928571428571 10.599431818181818  C 10.133928571428573 10.771780303030303  10.071428571428571 10.981060606060606  10.071428571428571 11.227272727272727  C 10.071428571428571 11.473484848484848  10.133928571428573 11.682765151515152  10.258928571428571 11.855113636363635  C 10.383928571428573 12.027462121212123  10.535714285714286 12.113636363636365  10.714285714285715 12.113636363636365  C 10.892857142857142 12.113636363636365  11.044642857142858 12.027462121212123  11.169642857142858 11.855113636363635  Z M 0.8571428571428571 1.181818181818182  L 0.8571428571428571 2.363636363636363  L 7.714285714285715 2.363636363636363  L 7.714285714285715 1.181818181818182  L 0.8571428571428571 1.181818181818182  Z M 11.169642857142858 7.12784090909091  C 11.294642857142858 6.955492424242423  11.357142857142858 6.746212121212121  11.357142857142858 6.5  C 11.357142857142858 6.253787878787877  11.294642857142858 6.044507575757576  11.169642857142858 5.87215909090909  C 11.044642857142858 5.699810606060605  10.892857142857142 5.613636363636363  10.714285714285715 5.613636363636363  C 10.535714285714286 5.613636363636363  10.383928571428573 5.699810606060605  10.258928571428571 5.87215909090909  C 10.133928571428573 6.044507575757576  10.071428571428571 6.253787878787877  10.071428571428571 6.5  C 10.071428571428571 6.746212121212121  10.133928571428573 6.955492424242423  10.258928571428571 7.12784090909091  C 10.383928571428573 7.300189393939394  10.535714285714286 7.386363636363636  10.714285714285715 7.386363636363636  C 10.892857142857142 7.386363636363636  11.044642857142858 7.300189393939394  11.169642857142858 7.12784090909091  Z M 11.169642857142858 2.400568181818182  C 11.294642857142858 2.228219696969697  11.357142857142858 2.0189393939393923  11.357142857142858 1.7727272727272725  C 11.357142857142858 1.52651515151515  11.294642857142858 1.3172348484848468  11.169642857142858 1.1448863636363629  C 11.044642857142858 0.9725378787878776  10.892857142857142 0.886363636363637  10.714285714285715 0.886363636363637  C 10.535714285714286 0.886363636363637  10.383928571428573 0.9725378787878776  10.258928571428571 1.1448863636363629  C 10.133928571428573 1.3172348484848468  10.071428571428571 1.52651515151515  10.071428571428571 1.7727272727272725  C 10.071428571428571 2.0189393939393923  10.133928571428573 2.228219696969697  10.258928571428571 2.400568181818182  C 10.383928571428573 2.5729166666666647  10.535714285714286 2.6590909090909096  10.714285714285715 2.6590909090909096  C 10.892857142857142 2.6590909090909096  11.044642857142858 2.5729166666666647  11.169642857142858 2.400568181818182  Z M 0 9.454545454545455  L 12 9.454545454545455  L 12 13  L 0 13  L 0 9.454545454545455  Z M 0 4.7272727272727275  L 12 4.7272727272727275  L 12 8.272727272727273  L 0 8.272727272727273  L 0 4.7272727272727275  Z M 0 0  L 12 0  L 12 3.545454545454545  L 0 3.545454545454545  L 0 0  Z " fill-rule="nonzero" fill="#000000" stroke="none" transform="matrix(1 0 0 1 1190 95 )" />
  </g>
</svg>