<?xml version="1.0" encoding="utf-8"?>
<svg version="1.1" xmlns:xlink="http://www.w3.org/1999/xlink" width="13px" height="17px" xmlns="http://www.w3.org/2000/svg">
  <g transform="matrix(1 0 0 1 -1220 -76 )">
    <path d="M 3.4577414772727275 12.232979910714286  C 3.5162168560606055 12.29306175595238  3.545454545454545 12.364211309523808  3.545454545454545 12.446428571428573  L 3.545454545454545 13.053571428571427  C 3.545454545454545 13.135788690476192  3.5162168560606055 13.20693824404762  3.4577414772727275 13.267020089285714  C 3.3992660984848486 13.327101934523808  3.3300189393939394 13.357142857142858  3.25 13.357142857142858  L 2.659090909090909 13.357142857142858  C 2.57907196969697 13.357142857142858  2.509824810606061 13.327101934523808  2.4513494318181817 13.267020089285714  C 2.392874053030303 13.20693824404762  2.3636363636363638 13.135788690476192  2.3636363636363638 13.053571428571427  L 2.3636363636363638 12.446428571428573  C 2.3636363636363638 12.364211309523808  2.392874053030303 12.29306175595238  2.4513494318181817 12.232979910714286  C 2.509824810606061 12.172898065476192  2.57907196969697 12.142857142857142  2.659090909090909 12.142857142857142  L 3.25 12.142857142857142  C 3.3300189393939394 12.142857142857142  3.3992660984848486 12.172898065476192  3.4577414772727275 12.232979910714286  Z M 3.4577414772727275 9.804408482142858  C 3.5162168560606055 9.864490327380953  3.545454545454545 9.93563988095238  3.545454545454545 10.017857142857142  L 3.545454545454545 10.625  C 3.545454545454545 10.707217261904761  3.5162168560606055 10.77836681547619  3.4577414772727275 10.838448660714286  C 3.3992660984848486 10.898530505952383  3.3300189393939394 10.928571428571427  3.25 10.928571428571427  L 2.659090909090909 10.928571428571427  C 2.57907196969697 10.928571428571427  2.509824810606061 10.898530505952383  2.4513494318181817 10.838448660714286  C 2.392874053030303 10.77836681547619  2.3636363636363638 10.707217261904761  2.3636363636363638 10.625  L 2.3636363636363638 10.017857142857142  C 2.3636363636363638 9.93563988095238  2.392874053030303 9.864490327380953  2.4513494318181817 9.804408482142858  C 2.509824810606061 9.744326636904763  2.57907196969697 9.714285714285714  2.659090909090909 9.714285714285714  L 3.25 9.714285714285714  C 3.3300189393939394 9.714285714285714  3.3992660984848486 9.744326636904763  3.4577414772727275 9.804408482142858  Z M 5.821377840909091 9.804408482142858  C 5.87985321969697 9.864490327380953  5.909090909090909 9.93563988095238  5.909090909090909 10.017857142857142  L 5.909090909090909 10.625  C 5.909090909090909 10.707217261904761  5.87985321969697 10.77836681547619  5.821377840909091 10.838448660714286  C 5.762902462121213 10.898530505952383  5.693655303030304 10.928571428571427  5.613636363636363 10.928571428571427  L 5.0227272727272725 10.928571428571427  C 4.942708333333334 10.928571428571427  4.873461174242425 10.898530505952383  4.814985795454545 10.838448660714286  C 4.756510416666668 10.77836681547619  4.7272727272727275 10.707217261904761  4.7272727272727275 10.625  L 4.7272727272727275 10.017857142857142  C 4.7272727272727275 9.93563988095238  4.756510416666668 9.864490327380953  4.814985795454545 9.804408482142858  C 4.873461174242425 9.744326636904763  4.942708333333334 9.714285714285714  5.0227272727272725 9.714285714285714  L 5.613636363636363 9.714285714285714  C 5.693655303030304 9.714285714285714  5.762902462121213 9.744326636904763  5.821377840909091 9.804408482142858  Z M 3.4577414772727275 7.37583705357143  C 3.5162168560606055 7.435918898809522  3.545454545454545 7.507068452380952  3.545454545454545 7.5892857142857135  L 3.545454545454545 8.196428571428571  C 3.545454545454545 8.278645833333332  3.5162168560606055 8.349795386904763  3.4577414772727275 8.409877232142858  C 3.3992660984848486 8.469959077380953  3.3300189393939394 8.5  3.25 8.5  L 2.659090909090909 8.5  C 2.57907196969697 8.5  2.509824810606061 8.469959077380953  2.4513494318181817 8.409877232142858  C 2.392874053030303 8.349795386904763  2.3636363636363638 8.278645833333332  2.3636363636363638 8.196428571428571  L 2.3636363636363638 7.5892857142857135  C 2.3636363636363638 7.507068452380952  2.392874053030303 7.435918898809522  2.4513494318181817 7.37583705357143  C 2.509824810606061 7.315755208333335  2.57907196969697 7.2857142857142865  2.659090909090909 7.2857142857142865  L 3.25 7.2857142857142865  C 3.3300189393939394 7.2857142857142865  3.3992660984848486 7.315755208333335  3.4577414772727275 7.37583705357143  Z M 10.548650568181818 12.232979910714286  C 10.607125946969699 12.29306175595238  10.636363636363637 12.364211309523808  10.636363636363637 12.446428571428573  L 10.636363636363637 13.053571428571427  C 10.636363636363637 13.135788690476192  10.607125946969699 13.20693824404762  10.548650568181818 13.267020089285714  C 10.49017518939394 13.327101934523808  10.420928030303031 13.357142857142858  10.34090909090909 13.357142857142858  L 9.75 13.357142857142858  C 9.669981060606062 13.357142857142858  9.600733901515152 13.327101934523808  9.542258522727273 13.267020089285714  C 9.483783143939394 13.20693824404762  9.454545454545455 13.135788690476192  9.454545454545455 13.053571428571427  L 9.454545454545455 12.446428571428573  C 9.454545454545455 12.364211309523808  9.483783143939394 12.29306175595238  9.542258522727273 12.232979910714286  C 9.600733901515152 12.172898065476192  9.669981060606062 12.142857142857142  9.75 12.142857142857142  L 10.34090909090909 12.142857142857142  C 10.420928030303031 12.142857142857142  10.49017518939394 12.172898065476192  10.548650568181818 12.232979910714286  Z M 8.185014204545455 9.804408482142858  C 8.243489583333334 9.864490327380953  8.272727272727273 9.93563988095238  8.272727272727273 10.017857142857142  L 8.272727272727273 10.625  C 8.272727272727273 10.707217261904761  8.243489583333334 10.77836681547619  8.185014204545455 10.838448660714286  C 8.126538825757576 10.898530505952383  8.057291666666668 10.928571428571427  7.9772727272727275 10.928571428571427  L 7.386363636363637 10.928571428571427  C 7.306344696969697 10.928571428571427  7.237097537878789 10.898530505952383  7.17862215909091 10.838448660714286  C 7.12014678030303 10.77836681547619  7.09090909090909 10.707217261904761  7.09090909090909 10.625  L 7.09090909090909 10.017857142857142  C 7.09090909090909 9.93563988095238  7.12014678030303 9.864490327380953  7.17862215909091 9.804408482142858  C 7.237097537878789 9.744326636904763  7.306344696969697 9.714285714285714  7.386363636363637 9.714285714285714  L 7.9772727272727275 9.714285714285714  C 8.057291666666668 9.714285714285714  8.126538825757576 9.744326636904763  8.185014204545455 9.804408482142858  Z M 5.821377840909091 7.37583705357143  C 5.87985321969697 7.435918898809522  5.909090909090909 7.507068452380952  5.909090909090909 7.5892857142857135  L 5.909090909090909 8.196428571428571  C 5.909090909090909 8.278645833333332  5.87985321969697 8.349795386904763  5.821377840909091 8.409877232142858  C 5.762902462121213 8.469959077380953  5.693655303030304 8.5  5.613636363636363 8.5  L 5.0227272727272725 8.5  C 4.942708333333334 8.5  4.873461174242425 8.469959077380953  4.814985795454545 8.409877232142858  C 4.756510416666668 8.349795386904763  4.7272727272727275 8.278645833333332  4.7272727272727275 8.196428571428571  L 4.7272727272727275 7.5892857142857135  C 4.7272727272727275 7.507068452380952  4.756510416666668 7.435918898809522  4.814985795454545 7.37583705357143  C 4.873461174242425 7.315755208333335  4.942708333333334 7.2857142857142865  5.0227272727272725 7.2857142857142865  L 5.613636363636363 7.2857142857142865  C 5.693655303030304 7.2857142857142865  5.762902462121213 7.315755208333335  5.821377840909091 7.37583705357143  Z M 3.4577414772727275 4.947265625  C 3.5162168560606055 5.007347470238095  3.545454545454545 5.078497023809522  3.545454545454545 5.1607142857142865  L 3.545454545454545 5.767857142857143  C 3.545454545454545 5.850074404761903  3.5162168560606055 5.921223958333333  3.4577414772727275 5.98130580357143  C 3.3992660984848486 6.041387648809522  3.3300189393939394 6.07142857142857  3.25 6.07142857142857  L 2.659090909090909 6.07142857142857  C 2.57907196969697 6.07142857142857  2.509824810606061 6.041387648809522  2.4513494318181817 5.98130580357143  C 2.392874053030303 5.921223958333333  2.3636363636363638 5.850074404761903  2.3636363636363638 5.767857142857143  L 2.3636363636363638 5.1607142857142865  C 2.3636363636363638 5.078497023809522  2.392874053030303 5.007347470238095  2.4513494318181817 4.947265625  C 2.509824810606061 4.887183779761903  2.57907196969697 4.857142857142857  2.659090909090909 4.857142857142857  L 3.25 4.857142857142857  C 3.3300189393939394 4.857142857142857  3.3992660984848486 4.887183779761903  3.4577414772727275 4.947265625  Z M 10.548650568181818 9.804408482142858  C 10.607125946969699 9.864490327380953  10.636363636363637 9.93563988095238  10.636363636363637 10.017857142857142  L 10.636363636363637 10.625  C 10.636363636363637 10.707217261904761  10.607125946969699 10.77836681547619  10.548650568181818 10.838448660714286  C 10.49017518939394 10.898530505952383  10.420928030303031 10.928571428571427  10.34090909090909 10.928571428571427  L 9.75 10.928571428571427  C 9.669981060606062 10.928571428571427  9.600733901515152 10.898530505952383  9.542258522727273 10.838448660714286  C 9.483783143939394 10.77836681547619  9.454545454545455 10.707217261904761  9.454545454545455 10.625  L 9.454545454545455 10.017857142857142  C 9.454545454545455 9.93563988095238  9.483783143939394 9.864490327380953  9.542258522727273 9.804408482142858  C 9.600733901515152 9.744326636904763  9.669981060606062 9.714285714285714  9.75 9.714285714285714  L 10.34090909090909 9.714285714285714  C 10.420928030303031 9.714285714285714  10.49017518939394 9.744326636904763  10.548650568181818 9.804408482142858  Z M 8.185014204545455 7.37583705357143  C 8.243489583333334 7.435918898809522  8.272727272727273 7.507068452380952  8.272727272727273 7.5892857142857135  L 8.272727272727273 8.196428571428571  C 8.272727272727273 8.278645833333332  8.243489583333334 8.349795386904763  8.185014204545455 8.409877232142858  C 8.126538825757576 8.469959077380953  8.057291666666668 8.5  7.9772727272727275 8.5  L 7.386363636363637 8.5  C 7.306344696969697 8.5  7.237097537878789 8.469959077380953  7.17862215909091 8.409877232142858  C 7.12014678030303 8.349795386904763  7.09090909090909 8.278645833333332  7.09090909090909 8.196428571428571  L 7.09090909090909 7.5892857142857135  C 7.09090909090909 7.507068452380952  7.12014678030303 7.435918898809522  7.17862215909091 7.37583705357143  C 7.237097537878789 7.315755208333335  7.306344696969697 7.2857142857142865  7.386363636363637 7.2857142857142865  L 7.9772727272727275 7.2857142857142865  C 8.057291666666668 7.2857142857142865  8.126538825757576 7.315755208333335  8.185014204545455 7.37583705357143  Z M 5.821377840909091 4.947265625  C 5.87985321969697 5.007347470238095  5.909090909090909 5.078497023809522  5.909090909090909 5.1607142857142865  L 5.909090909090909 5.767857142857143  C 5.909090909090909 5.850074404761903  5.87985321969697 5.921223958333333  5.821377840909091 5.98130580357143  C 5.762902462121213 6.041387648809522  5.693655303030304 6.07142857142857  5.613636363636363 6.07142857142857  L 5.0227272727272725 6.07142857142857  C 4.942708333333334 6.07142857142857  4.873461174242425 6.041387648809522  4.814985795454545 5.98130580357143  C 4.756510416666668 5.921223958333333  4.7272727272727275 5.850074404761903  4.7272727272727275 5.767857142857143  L 4.7272727272727275 5.1607142857142865  C 4.7272727272727275 5.078497023809522  4.756510416666668 5.007347470238095  4.814985795454545 4.947265625  C 4.873461174242425 4.887183779761903  4.942708333333334 4.857142857142857  5.0227272727272725 4.857142857142857  L 5.613636363636363 4.857142857142857  C 5.693655303030304 4.857142857142857  5.762902462121213 4.887183779761903  5.821377840909091 4.947265625  Z M 3.4577414772727275 2.5186941964285707  C 3.5162168560606055 2.578776041666665  3.545454545454545 2.649925595238095  3.545454545454545 2.7321428571428568  L 3.545454545454545 3.3392857142857135  C 3.545454545454545 3.421502976190474  3.5162168560606055 3.4926525297619033  3.4577414772727275 3.552734375  C 3.3992660984848486 3.612816220238095  3.3300189393939394 3.6428571428571432  3.25 3.6428571428571432  L 2.659090909090909 3.6428571428571432  C 2.57907196969697 3.6428571428571432  2.509824810606061 3.612816220238095  2.4513494318181817 3.552734375  C 2.392874053030303 3.4926525297619033  2.3636363636363638 3.421502976190474  2.3636363636363638 3.3392857142857135  L 2.3636363636363638 2.7321428571428568  C 2.3636363636363638 2.649925595238095  2.392874053030303 2.578776041666665  2.4513494318181817 2.5186941964285707  C 2.509824810606061 2.458612351190474  2.57907196969697 2.4285714285714293  2.659090909090909 2.4285714285714293  L 3.25 2.4285714285714293  C 3.3300189393939394 2.4285714285714293  3.3992660984848486 2.458612351190474  3.4577414772727275 2.5186941964285707  Z M 10.548650568181818 7.37583705357143  C 10.607125946969699 7.435918898809522  10.636363636363637 7.507068452380952  10.636363636363637 7.5892857142857135  L 10.636363636363637 8.196428571428571  C 10.636363636363637 8.278645833333332  10.607125946969699 8.349795386904763  10.548650568181818 8.409877232142858  C 10.49017518939394 8.469959077380953  10.420928030303031 8.5  10.34090909090909 8.5  L 9.75 8.5  C 9.669981060606062 8.5  9.600733901515152 8.469959077380953  9.542258522727273 8.409877232142858  C 9.483783143939394 8.349795386904763  9.454545454545455 8.278645833333332  9.454545454545455 8.196428571428571  L 9.454545454545455 7.5892857142857135  C 9.454545454545455 7.507068452380952  9.483783143939394 7.435918898809522  9.542258522727273 7.37583705357143  C 9.600733901515152 7.315755208333335  9.669981060606062 7.2857142857142865  9.75 7.2857142857142865  L 10.34090909090909 7.2857142857142865  C 10.420928030303031 7.2857142857142865  10.49017518939394 7.315755208333335  10.548650568181818 7.37583705357143  Z M 8.185014204545455 4.947265625  C 8.243489583333334 5.007347470238095  8.272727272727273 5.078497023809522  8.272727272727273 5.1607142857142865  L 8.272727272727273 5.767857142857143  C 8.272727272727273 5.850074404761903  8.243489583333334 5.921223958333333  8.185014204545455 5.98130580357143  C 8.126538825757576 6.041387648809522  8.057291666666668 6.07142857142857  7.9772727272727275 6.07142857142857  L 7.386363636363637 6.07142857142857  C 7.306344696969697 6.07142857142857  7.237097537878789 6.041387648809522  7.17862215909091 5.98130580357143  C 7.12014678030303 5.921223958333333  7.09090909090909 5.850074404761903  7.09090909090909 5.767857142857143  L 7.09090909090909 5.1607142857142865  C 7.09090909090909 5.078497023809522  7.12014678030303 5.007347470238095  7.17862215909091 4.947265625  C 7.237097537878789 4.887183779761903  7.306344696969697 4.857142857142857  7.386363636363637 4.857142857142857  L 7.9772727272727275 4.857142857142857  C 8.057291666666668 4.857142857142857  8.126538825757576 4.887183779761903  8.185014204545455 4.947265625  Z M 5.821377840909091 2.5186941964285707  C 5.87985321969697 2.578776041666665  5.909090909090909 2.649925595238095  5.909090909090909 2.7321428571428568  L 5.909090909090909 3.3392857142857135  C 5.909090909090909 3.421502976190474  5.87985321969697 3.4926525297619033  5.821377840909091 3.552734375  C 5.762902462121213 3.612816220238095  5.693655303030304 3.6428571428571432  5.613636363636363 3.6428571428571432  L 5.0227272727272725 3.6428571428571432  C 4.942708333333334 3.6428571428571432  4.873461174242425 3.612816220238095  4.814985795454545 3.552734375  C 4.756510416666668 3.4926525297619033  4.7272727272727275 3.421502976190474  4.7272727272727275 3.3392857142857135  L 4.7272727272727275 2.7321428571428568  C 4.7272727272727275 2.649925595238095  4.756510416666668 2.578776041666665  4.814985795454545 2.5186941964285707  C 4.873461174242425 2.458612351190474  4.942708333333334 2.4285714285714293  5.0227272727272725 2.4285714285714293  L 5.613636363636363 2.4285714285714293  C 5.693655303030304 2.4285714285714293  5.762902462121213 2.458612351190474  5.821377840909091 2.5186941964285707  Z M 10.548650568181818 4.947265625  C 10.607125946969699 5.007347470238095  10.636363636363637 5.078497023809522  10.636363636363637 5.1607142857142865  L 10.636363636363637 5.767857142857143  C 10.636363636363637 5.850074404761903  10.607125946969699 5.921223958333333  10.548650568181818 5.98130580357143  C 10.49017518939394 6.041387648809522  10.420928030303031 6.07142857142857  10.34090909090909 6.07142857142857  L 9.75 6.07142857142857  C 9.669981060606062 6.07142857142857  9.600733901515152 6.041387648809522  9.542258522727273 5.98130580357143  C 9.483783143939394 5.921223958333333  9.454545454545455 5.850074404761903  9.454545454545455 5.767857142857143  L 9.454545454545455 5.1607142857142865  C 9.454545454545455 5.078497023809522  9.483783143939394 5.007347470238095  9.542258522727273 4.947265625  C 9.600733901515152 4.887183779761903  9.669981060606062 4.857142857142857  9.75 4.857142857142857  L 10.34090909090909 4.857142857142857  C 10.420928030303031 4.857142857142857  10.49017518939394 4.887183779761903  10.548650568181818 4.947265625  Z M 8.185014204545455 2.5186941964285707  C 8.243489583333334 2.578776041666665  8.272727272727273 2.649925595238095  8.272727272727273 2.7321428571428568  L 8.272727272727273 3.3392857142857135  C 8.272727272727273 3.421502976190474  8.243489583333334 3.4926525297619033  8.185014204545455 3.552734375  C 8.126538825757576 3.612816220238095  8.057291666666668 3.6428571428571432  7.9772727272727275 3.6428571428571432  L 7.386363636363637 3.6428571428571432  C 7.306344696969697 3.6428571428571432  7.237097537878789 3.612816220238095  7.17862215909091 3.552734375  C 7.12014678030303 3.4926525297619033  7.09090909090909 3.421502976190474  7.09090909090909 3.3392857142857135  L 7.09090909090909 2.7321428571428568  C 7.09090909090909 2.649925595238095  7.12014678030303 2.578776041666665  7.17862215909091 2.5186941964285707  C 7.237097537878789 2.458612351190474  7.306344696969697 2.4285714285714293  7.386363636363637 2.4285714285714293  L 7.9772727272727275 2.4285714285714293  C 8.057291666666668 2.4285714285714293  8.126538825757576 2.458612351190474  8.185014204545455 2.5186941964285707  Z M 10.548650568181818 2.5186941964285707  C 10.607125946969699 2.578776041666665  10.636363636363637 2.649925595238095  10.636363636363637 2.7321428571428568  L 10.636363636363637 3.3392857142857135  C 10.636363636363637 3.421502976190474  10.607125946969699 3.4926525297619033  10.548650568181818 3.552734375  C 10.49017518939394 3.612816220238095  10.420928030303031 3.6428571428571432  10.34090909090909 3.6428571428571432  L 9.75 3.6428571428571432  C 9.669981060606062 3.6428571428571432  9.600733901515152 3.612816220238095  9.542258522727273 3.552734375  C 9.483783143939394 3.4926525297619033  9.454545454545455 3.421502976190474  9.454545454545455 3.3392857142857135  L 9.454545454545455 2.7321428571428568  C 9.454545454545455 2.649925595238095  9.483783143939394 2.578776041666665  9.542258522727273 2.5186941964285707  C 9.600733901515152 2.458612351190474  9.669981060606062 2.4285714285714293  9.75 2.4285714285714293  L 10.34090909090909 2.4285714285714293  C 10.420928030303031 2.4285714285714293  10.49017518939394 2.458612351190474  10.548650568181818 2.5186941964285707  Z M 8.272727272727273 13.660714285714286  L 8.272727272727273 15.785714285714286  L 11.818181818181818 15.785714285714286  L 11.818181818181818 1.2142857142857137  L 1.1818181818181819 1.2142857142857137  L 1.1818181818181819 15.785714285714286  L 4.7272727272727275 15.785714285714286  L 4.7272727272727275 13.660714285714286  C 4.7272727272727275 13.578497023809524  4.756510416666668 13.507347470238095  4.814985795454545 13.447265625  C 4.873461174242425 13.387183779761905  4.942708333333334 13.357142857142858  5.0227272727272725 13.357142857142858  L 7.9772727272727275 13.357142857142858  C 8.057291666666668 13.357142857142858  8.126538825757576 13.387183779761905  8.185014204545455 13.447265625  C 8.243489583333334 13.507347470238095  8.272727272727273 13.578497023809524  8.272727272727273 13.660714285714286  Z M 12.824573863636363 0.18024553571428625  C 12.941524621212123 0.30040922619047394  13 0.4427083333333327  13 0.6071428571428569  L 13 16.392857142857142  C 13 16.557291666666664  12.941524621212123 16.699590773809522  12.824573863636363 16.819754464285715  C 12.707623106060607 16.939918154761905  12.569128787878789 17  12.40909090909091 17  L 0.5909090909090909 17  C 0.4308712121212122 17  0.2923768939393939 16.939918154761905  0.17542613636363635 16.819754464285715  C 0.058475378787878785 16.699590773809522  0 16.557291666666664  0 16.392857142857142  L 0 0.6071428571428569  C 0 0.4427083333333327  0.058475378787878785 0.30040922619047394  0.17542613636363635 0.18024553571428625  C 0.2923768939393939 0.060081845238096676  0.4308712121212122 0  0.5909090909090909 0  L 12.40909090909091 0  C 12.569128787878789 0  12.707623106060607 0.060081845238096676  12.824573863636363 0.18024553571428625  Z " fill-rule="nonzero" fill="#000000" stroke="none" transform="matrix(1 0 0 1 1220 76 )" />
  </g>
</svg>