<?xml version="1.0" encoding="utf-8"?>
<svg version="1.1" xmlns:xlink="http://www.w3.org/1999/xlink" width="21px" height="20px" xmlns="http://www.w3.org/2000/svg">
  <g transform="matrix(1 0 0 1 -989 -9 )">
    <path d="M 6.347956730769231 18.053977272727273  C 6.423677884615384 17.96875  6.461538461538462 17.859848484848484  6.461538461538462 17.727272727272727  L 6.461538461538462 15  C 6.461538461538462 14.867424242424239  6.423677884615384 14.758522727272727  6.347956730769231 14.673295454545453  C 6.2722355769230775 14.588068181818183  6.175480769230769 14.545454545454547  6.0576923076923075 14.545454545454547  L 2.019230769230769 14.545454545454547  C 1.901442307692308 14.545454545454547  1.8046875 14.588068181818183  1.728966346153846 14.673295454545453  C 1.6532451923076923 14.758522727272727  1.6153846153846154 14.867424242424239  1.6153846153846154 15  L 1.6153846153846154 17.727272727272727  C 1.6153846153846154 17.859848484848484  1.6532451923076923 17.96875  1.728966346153846 18.053977272727273  C 1.8046875 18.139204545454547  1.901442307692308 18.18181818181818  2.019230769230769 18.18181818181818  L 6.0576923076923075 18.18181818181818  C 6.175480769230769 18.18181818181818  6.2722355769230775 18.139204545454547  6.347956730769231 18.053977272727273  Z M 6.347956730769231 12.599431818181817  C 6.423677884615384 12.514204545454547  6.461538461538462 12.405303030303028  6.461538461538462 12.272727272727273  L 6.461538461538462 9.545454545454547  C 6.461538461538462 9.412878787878787  6.423677884615384 9.303977272727273  6.347956730769231 9.21875  C 6.2722355769230775 9.133522727272727  6.175480769230769 9.090909090909092  6.0576923076923075 9.090909090909092  L 2.019230769230769 9.090909090909092  C 1.901442307692308 9.090909090909092  1.8046875 9.133522727272727  1.728966346153846 9.21875  C 1.6532451923076923 9.303977272727273  1.6153846153846154 9.412878787878787  1.6153846153846154 9.545454545454547  L 1.6153846153846154 12.272727272727273  C 1.6153846153846154 12.405303030303028  1.6532451923076923 12.514204545454547  1.728966346153846 12.599431818181817  C 1.8046875 12.684659090909092  1.901442307692308 12.727272727272727  2.019230769230769 12.727272727272727  L 6.0576923076923075 12.727272727272727  C 6.175480769230769 12.727272727272727  6.2722355769230775 12.684659090909092  6.347956730769231 12.599431818181817  Z M 12.809495192307693 18.053977272727273  C 12.885216346153845 17.96875  12.923076923076923 17.859848484848484  12.923076923076923 17.727272727272727  L 12.923076923076923 15  C 12.923076923076923 14.867424242424239  12.885216346153845 14.758522727272727  12.809495192307693 14.673295454545453  C 12.733774038461538 14.588068181818183  12.63701923076923 14.545454545454547  12.519230769230768 14.545454545454547  L 8.480769230769232 14.545454545454547  C 8.36298076923077 14.545454545454547  8.266225961538462 14.588068181818183  8.190504807692307 14.673295454545453  C 8.114783653846153 14.758522727272727  8.076923076923077 14.867424242424239  8.076923076923077 15  L 8.076923076923077 17.727272727272727  C 8.076923076923077 17.859848484848484  8.114783653846153 17.96875  8.190504807692307 18.053977272727273  C 8.266225961538462 18.139204545454547  8.36298076923077 18.18181818181818  8.480769230769232 18.18181818181818  L 12.519230769230768 18.18181818181818  C 12.63701923076923 18.18181818181818  12.733774038461538 18.139204545454547  12.809495192307693 18.053977272727273  Z M 6.347956730769231 7.144886363636365  C 6.423677884615384 7.059659090909092  6.461538461538462 6.950757575757576  6.461538461538462 6.818181818181818  L 6.461538461538462 4.090909090909092  C 6.461538461538462 3.9583333333333304  6.423677884615384 3.849431818181819  6.347956730769231 3.764204545454546  C 6.2722355769230775 3.678977272727273  6.175480769230769 3.6363636363636354  6.0576923076923075 3.6363636363636354  L 2.019230769230769 3.6363636363636354  C 1.901442307692308 3.6363636363636354  1.8046875 3.678977272727273  1.728966346153846 3.764204545454546  C 1.6532451923076923 3.849431818181819  1.6153846153846154 3.9583333333333304  1.6153846153846154 4.090909090909092  L 1.6153846153846154 6.818181818181818  C 1.6153846153846154 6.950757575757576  1.6532451923076923 7.059659090909092  1.728966346153846 7.144886363636365  C 1.8046875 7.230113636363635  1.901442307692308 7.272727272727273  2.019230769230769 7.272727272727273  L 6.0576923076923075 7.272727272727273  C 6.175480769230769 7.272727272727273  6.2722355769230775 7.230113636363635  6.347956730769231 7.144886363636365  Z M 12.809495192307693 12.599431818181817  C 12.885216346153845 12.514204545454547  12.923076923076923 12.405303030303028  12.923076923076923 12.272727272727273  L 12.923076923076923 9.545454545454547  C 12.923076923076923 9.412878787878787  12.885216346153845 9.303977272727273  12.809495192307693 9.21875  C 12.733774038461538 9.133522727272727  12.63701923076923 9.090909090909092  12.519230769230768 9.090909090909092  L 8.480769230769232 9.090909090909092  C 8.36298076923077 9.090909090909092  8.266225961538462 9.133522727272727  8.190504807692307 9.21875  C 8.114783653846153 9.303977272727273  8.076923076923077 9.412878787878787  8.076923076923077 9.545454545454547  L 8.076923076923077 12.272727272727273  C 8.076923076923077 12.405303030303028  8.114783653846153 12.514204545454547  8.190504807692307 12.599431818181817  C 8.266225961538462 12.684659090909092  8.36298076923077 12.727272727272727  8.480769230769232 12.727272727272727  L 12.519230769230768 12.727272727272727  C 12.63701923076923 12.727272727272727  12.733774038461538 12.684659090909092  12.809495192307693 12.599431818181817  Z M 19.271033653846153 18.053977272727273  C 19.346754807692307 17.96875  19.384615384615387 17.859848484848484  19.384615384615387 17.727272727272727  L 19.384615384615387 15  C 19.384615384615387 14.867424242424239  19.346754807692307 14.758522727272727  19.271033653846153 14.673295454545453  C 19.1953125 14.588068181818183  19.098557692307693 14.545454545454547  18.98076923076923 14.545454545454547  L 14.942307692307693 14.545454545454547  C 14.824519230769232 14.545454545454547  14.727764423076923 14.588068181818183  14.652043269230768 14.673295454545453  C 14.576322115384615 14.758522727272727  14.538461538461538 14.867424242424239  14.538461538461538 15  L 14.538461538461538 17.727272727272727  C 14.538461538461538 17.859848484848484  14.576322115384615 17.96875  14.652043269230768 18.053977272727273  C 14.727764423076923 18.139204545454547  14.824519230769232 18.18181818181818  14.942307692307693 18.18181818181818  L 18.98076923076923 18.18181818181818  C 19.098557692307693 18.18181818181818  19.1953125 18.139204545454547  19.271033653846153 18.053977272727273  Z M 12.809495192307693 7.144886363636365  C 12.885216346153845 7.059659090909092  12.923076923076923 6.950757575757576  12.923076923076923 6.818181818181818  L 12.923076923076923 4.090909090909092  C 12.923076923076923 3.9583333333333304  12.885216346153845 3.849431818181819  12.809495192307693 3.764204545454546  C 12.733774038461538 3.678977272727273  12.63701923076923 3.6363636363636354  12.519230769230768 3.6363636363636354  L 8.480769230769232 3.6363636363636354  C 8.36298076923077 3.6363636363636354  8.266225961538462 3.678977272727273  8.190504807692307 3.764204545454546  C 8.114783653846153 3.849431818181819  8.076923076923077 3.9583333333333304  8.076923076923077 4.090909090909092  L 8.076923076923077 6.818181818181818  C 8.076923076923077 6.950757575757576  8.114783653846153 7.059659090909092  8.190504807692307 7.144886363636365  C 8.266225961538462 7.230113636363635  8.36298076923077 7.272727272727273  8.480769230769232 7.272727272727273  L 12.519230769230768 7.272727272727273  C 12.63701923076923 7.272727272727273  12.733774038461538 7.230113636363635  12.809495192307693 7.144886363636365  Z M 19.271033653846153 12.599431818181817  C 19.346754807692307 12.514204545454547  19.384615384615387 12.405303030303028  19.384615384615387 12.272727272727273  L 19.384615384615387 9.545454545454547  C 19.384615384615387 9.412878787878787  19.346754807692307 9.303977272727273  19.271033653846153 9.21875  C 19.1953125 9.133522727272727  19.098557692307693 9.090909090909092  18.98076923076923 9.090909090909092  L 14.942307692307693 9.090909090909092  C 14.824519230769232 9.090909090909092  14.727764423076923 9.133522727272727  14.652043269230768 9.21875  C 14.576322115384615 9.303977272727273  14.538461538461538 9.412878787878787  14.538461538461538 9.545454545454547  L 14.538461538461538 12.272727272727273  C 14.538461538461538 12.405303030303028  14.576322115384615 12.514204545454547  14.652043269230768 12.599431818181817  C 14.727764423076923 12.684659090909092  14.824519230769232 12.727272727272727  14.942307692307693 12.727272727272727  L 18.98076923076923 12.727272727272727  C 19.098557692307693 12.727272727272727  19.1953125 12.684659090909092  19.271033653846153 12.599431818181817  Z M 19.271033653846153 7.144886363636365  C 19.346754807692307 7.059659090909092  19.384615384615387 6.950757575757576  19.384615384615387 6.818181818181818  L 19.384615384615387 4.090909090909092  C 19.384615384615387 3.9583333333333304  19.346754807692307 3.849431818181819  19.271033653846153 3.764204545454546  C 19.1953125 3.678977272727273  19.098557692307693 3.6363636363636354  18.98076923076923 3.6363636363636354  L 14.942307692307693 3.6363636363636354  C 14.824519230769232 3.6363636363636354  14.727764423076923 3.678977272727273  14.652043269230768 3.764204545454546  C 14.576322115384615 3.849431818181819  14.538461538461538 3.9583333333333304  14.538461538461538 4.090909090909092  L 14.538461538461538 6.818181818181818  C 14.538461538461538 6.950757575757576  14.576322115384615 7.059659090909092  14.652043269230768 7.144886363636365  C 14.727764423076923 7.230113636363635  14.824519230769232 7.272727272727273  14.942307692307693 7.272727272727273  L 18.98076923076923 7.272727272727273  C 19.098557692307693 7.272727272727273  19.1953125 7.230113636363635  19.271033653846153 7.144886363636365  Z M 20.406850961538463 0.6676136363636354  C 20.802283653846157 1.1126893939393923  21 1.647727272727273  21 2.272727272727273  L 21 17.727272727272727  C 21 18.352272727272727  20.802283653846157 18.88731060606061  20.406850961538463 19.332386363636363  C 20.01141826923077 19.777462121212118  19.536057692307693 20  18.98076923076923 20  L 2.019230769230769 20  C 1.4639423076923077 20  0.988581730769231 19.777462121212118  0.5931490384615384 19.332386363636363  C 0.19771634615384615 18.88731060606061  0 18.352272727272727  0 17.727272727272727  L 0 2.272727272727273  C 0 1.647727272727273  0.19771634615384615 1.1126893939393923  0.5931490384615384 0.6676136363636354  C 0.988581730769231 0.22253787878787623  1.4639423076923077 0  2.019230769230769 0  L 18.98076923076923 0  C 19.536057692307693 0  20.01141826923077 0.22253787878787623  20.406850961538463 0.6676136363636354  Z " fill-rule="nonzero" fill="#7f7f7f" stroke="none" transform="matrix(1 0 0 1 989 9 )" />
  </g>
</svg>