<?xml version="1.0" encoding="utf-8"?>
<svg version="1.1" xmlns:xlink="http://www.w3.org/1999/xlink" width="14px" height="16px" xmlns="http://www.w3.org/2000/svg">
  <g>
    <path d="M 5.533219761499148 12.651785714285715  C 5.580919931856899 12.705357142857142  5.604770017035775 12.773809523809526  5.604770017035775 12.857142857142858  C 5.604770017035775 12.928571428571429  5.578269922392581 13  5.525269733106189 13.071428571428571  L 2.9892106757524135 15.919642857142858  C 2.9362104864660235 15.973214285714286  2.8752602687866746 16  2.8063600227143666 16  C 2.7427597955706986 16  2.6818095778913498 15.973214285714286  2.6235093696763205 15.919642857142858  L 0.07950028392958547 13.0625  C 0 12.967261904761905  -0.018550066250236596 12.863095238095239  0.02385008517887564 12.75  C 0.06625023660798791 12.630952380952381  0.14575052053757337 12.571428571428571  0.262350936967632 12.571428571428571  L 2 12.571428571428571  L 2 0.2857142857142865  C 1.7887563884156727 0.20238095238095077  1.8126064735945484 0.13392857142857117  1.8603066439522997 0.08035714285714235  C 1.908006814310051 0.026785714285713524  1.9689570319894 0  2.0431572969903464 0  L 3.569562748438387 0  C 3.643763013439334 0  3.7047132311186823 0.026785714285713524  3.7524134014764337 0.08035714285714235  C 3.800113571834185 0.13392857142857117  3.823963657013061 0.20238095238095077  4 0.2857142857142865  L 4 12.571428571428571  L 5.350369108461102 12.571428571428571  C 5.424569373462048 12.571428571428571  5.485519591141397 12.598214285714285  5.533219761499148 12.651785714285715  Z M 13.928449744463373 13.794642857142858  C 13.976149914821125 13.848214285714285  14 13.916666666666668  14 14  L 14 15.714285714285714  C 14 15.797619047619047  13.976149914821125 15.866071428571429  13.928449744463373 15.919642857142858  C 13.880749574105621 15.973214285714286  13.819799356426275 16  13.745599091425326 16  L 7.131175468483815 16  C 7.05697520348287 16  6.996024985803521 15.973214285714286  6.948324815445769 15.919642857142858  C 6.900624645088018 15.866071428571429  6.876774559909142 15.797619047619047  6.876774559909142 15.714285714285714  L 6.876774559909142 14  C 6.876774559909142 13.916666666666668  6.900624645088018 13.848214285714285  6.948324815445769 13.794642857142858  C 6.996024985803521 13.741071428571429  7.05697520348287 13.714285714285715  7.131175468483815 13.714285714285715  L 13.745599091425326 13.714285714285715  C 13.819799356426275 13.714285714285715  13.880749574105621 13.741071428571429  13.928449744463373 13.794642857142858  Z M 12.402044293015333 9.223214285714285  C 12.449744463373083 9.276785714285715  12.47359454855196 9.345238095238095  12.47359454855196 9.428571428571429  L 12.47359454855196 11.142857142857142  C 12.47359454855196 11.226190476190474  12.449744463373083 11.294642857142858  12.402044293015333 11.348214285714285  C 12.354344122657581 11.401785714285715  12.293393904978233 11.428571428571429  12.219193639977286 11.428571428571429  L 7.131175468483815 11.428571428571429  C 7.05697520348287 11.428571428571429  6.996024985803521 11.401785714285715  6.948324815445769 11.348214285714285  C 6.900624645088018 11.294642857142858  6.876774559909142 11.226190476190474  6.876774559909142 11.142857142857142  L 6.876774559909142 9.428571428571429  C 6.876774559909142 9.345238095238095  6.900624645088018 9.276785714285715  6.948324815445769 9.223214285714285  C 6.996024985803521 9.169642857142858  7.05697520348287 9.142857142857142  7.131175468483815 9.142857142857142  L 12.219193639977286 9.142857142857142  C 12.293393904978233 9.142857142857142  12.354344122657581 9.169642857142858  12.402044293015333 9.223214285714285  Z M 10.875638841567293 4.6517857142857135  C 10.923339011925043 4.705357142857142  10.94718909710392 4.773809523809522  10.94718909710392 4.857142857142858  L 10.94718909710392 6.571428571428571  C 10.94718909710392 6.654761904761903  10.923339011925043 6.7232142857142865  10.875638841567293 6.7767857142857135  C 10.827938671209541 6.830357142857142  10.766988453530193 6.857142857142858  10.692788188529246 6.857142857142858  L 7.131175468483815 6.857142857142858  C 7.05697520348287 6.857142857142858  6.996024985803521 6.830357142857142  6.948324815445769 6.7767857142857135  C 6.900624645088018 6.7232142857142865  6.876774559909142 6.654761904761903  6.876774559909142 6.571428571428571  L 6.876774559909142 4.857142857142858  C 6.876774559909142 4.773809523809522  6.900624645088018 4.705357142857142  6.948324815445769 4.6517857142857135  C 6.996024985803521 4.5982142857142865  7.05697520348287 4.571428571428571  7.131175468483815 4.571428571428571  L 10.692788188529246 4.571428571428571  C 10.766988453530193 4.571428571428571  10.827938671209541 4.5982142857142865  10.875638841567293 4.6517857142857135  Z M 9.34923339011925 0.08035714285714235  C 9.396933560477 0.13392857142857117  9.420783645655877 0.20238095238095077  9.420783645655877 0.2857142857142865  L 9.420783645655877 2  C 9.420783645655877 2.083333333333332  9.396933560477 2.1517857142857135  9.34923339011925 2.2053571428571423  C 9.301533219761499 2.258928571428571  9.240583002082152 2.2857142857142865  9.166382737081204 2.2857142857142865  L 7.131175468483815 2.2857142857142865  C 7.05697520348287 2.2857142857142865  6.996024985803521 2.258928571428571  6.948324815445769 2.2053571428571423  C 6.900624645088018 2.1517857142857135  6.876774559909142 2.083333333333332  6.876774559909142 2  L 6.876774559909142 0.2857142857142865  C 6.876774559909142 0.20238095238095077  6.900624645088018 0.13392857142857117  6.948324815445769 0.08035714285714235  C 6.996024985803521 0.026785714285713524  7.05697520348287 0  7.131175468483815 0  L 9.166382737081204 0  C 9.240583002082152 0  9.301533219761499 0.026785714285713524  9.34923339011925 0.08035714285714235  Z " fill-rule="nonzero" fill="#000000" stroke="none" />
  </g>
</svg>