<?xml version="1.0" encoding="utf-8"?>
<svg version="1.1" xmlns:xlink="http://www.w3.org/1999/xlink" width="26px" height="26px" xmlns="http://www.w3.org/2000/svg">
  <g transform="matrix(1 0 0 1 -1068 -10 )">
    <path d="M 18.3828125 16.25  C 18.3828125 16.396701388888886  18.33444940476191 16.526475694444446  18.237723214285715 16.639322916666664  L 16.119419642857142 19.110677083333336  C 16.022693452380956 19.223524305555554  15.911458333333336 19.279947916666664  15.785714285714285 19.279947916666664  C 15.659970238095239 19.279947916666664  15.54873511904762 19.223524305555554  15.452008928571429 19.110677083333336  L 13 16.25  L 10.547991071428571 19.110677083333336  C 10.451264880952381 19.223524305555554  10.340029761904763 19.279947916666664  10.214285714285714 19.279947916666664  C 10.088541666666668 19.279947916666664  9.97730654761905 19.223524305555554  9.880580357142858 19.110677083333336  L 7.762276785714286 16.639322916666664  C 7.665550595238096 16.526475694444446  7.6171875 16.396701388888886  7.6171875 16.25  C 7.6171875 16.10329861111111  7.665550595238096 15.973524305555555  7.762276785714286 15.860677083333336  L 10.214285714285714 13  L 7.762276785714286 10.139322916666668  C 7.665550595238096 10.026475694444443  7.6171875 9.896701388888888  7.6171875 9.75  C 7.6171875 9.60329861111111  7.665550595238096 9.473524305555555  7.762276785714286 9.360677083333332  L 9.880580357142858 6.889322916666668  C 9.97730654761905 6.776475694444442  10.088541666666668 6.720052083333332  10.214285714285714 6.720052083333332  C 10.340029761904763 6.720052083333332  10.451264880952381 6.776475694444442  10.547991071428571 6.889322916666668  L 13 9.75  L 15.452008928571429 6.889322916666668  C 15.54873511904762 6.776475694444442  15.659970238095239 6.720052083333332  15.785714285714285 6.720052083333332  C 15.911458333333336 6.720052083333332  16.022693452380956 6.776475694444442  16.119419642857142 6.889322916666668  L 18.237723214285715 9.360677083333332  C 18.33444940476191 9.473524305555555  18.3828125 9.60329861111111  18.3828125 9.75  C 18.3828125 9.896701388888888  18.33444940476191 10.026475694444443  18.237723214285715 10.139322916666668  L 15.785714285714285 13  L 18.237723214285715 15.860677083333336  C 18.33444940476191 15.973524305555555  18.3828125 16.10329861111111  18.3828125 16.25  Z M 4 4.333333333333332  L 4 21.666666666666668  L 22 21.666666666666668  L 22 4.333333333333332  L 4 4.333333333333332  Z M 25.318080357142858 0.7955729166666676  C 25.772693452380956 1.3259548611111098  26 1.9635416666666676  26 2.708333333333332  L 26 23.291666666666668  C 26 24.036458333333332  25.772693452380956 24.67404513888889  25.318080357142858 25.204427083333332  C 24.863467261904766 25.73480902777778  24.316964285714292 26  23.678571428571427 26  L 2.3214285714285716 26  C 1.6830357142857144 26  1.1365327380952381 25.73480902777778  0.6819196428571429 25.204427083333332  C 0.22730654761904762 24.67404513888889  0 24.036458333333332  0 23.291666666666668  L 0 2.708333333333332  C 0 1.9635416666666676  0.22730654761904762 1.3259548611111098  0.6819196428571429 0.7955729166666676  C 1.1365327380952381 0.26519097222221966  1.6830357142857144 0  2.3214285714285716 0  L 23.678571428571427 0  C 24.316964285714292 0  24.863467261904766 0.26519097222221966  25.318080357142858 0.7955729166666676  Z " fill-rule="nonzero" fill="#7f7f7f" stroke="none" transform="matrix(1 0 0 1 1068 10 )" />
  </g>
</svg>