<?xml version="1.0" encoding="utf-8"?>
<svg version="1.1" xmlns:xlink="http://www.w3.org/1999/xlink" width="25px" height="24px" xmlns="http://www.w3.org/2000/svg">
  <g transform="matrix(1 0 0 1 -1112 -36 )">
    <path d="M 17.67578125 15  C 17.67578125 15.135416666666663  17.629278273809526 15.255208333333334  17.536272321428573 15.359374999999998  L 15.499441964285715 17.640625  C 15.406436011904765 17.744791666666664  15.299479166666668 17.796875  15.178571428571427 17.796875  C 15.057663690476192 17.796875  14.950706845238097 17.744791666666664  14.857700892857142 17.640625  L 12.5 15  L 10.142299107142858 17.640625  C 10.049293154761905 17.744791666666664  9.94233630952381 17.796875  9.821428571428571 17.796875  C 9.700520833333334 17.796875  9.593563988095239 17.744791666666664  9.500558035714286 17.640625  L 7.463727678571429 15.359374999999998  C 7.370721726190476 15.255208333333334  7.32421875 15.135416666666663  7.32421875 15  C 7.32421875 14.864583333333332  7.370721726190476 14.744791666666666  7.463727678571429 14.640625000000002  L 9.821428571428571 12  L 7.463727678571429 9.359375  C 7.370721726190476 9.255208333333332  7.32421875 9.135416666666664  7.32421875 9  C 7.32421875 8.864583333333332  7.370721726190476 8.744791666666666  7.463727678571429 8.640625  L 9.500558035714286 6.359375000000001  C 9.593563988095239 6.255208333333331  9.700520833333334 6.203124999999999  9.821428571428571 6.203124999999999  C 9.94233630952381 6.203124999999999  10.049293154761905 6.255208333333331  10.142299107142858 6.359375000000001  L 12.5 9  L 14.857700892857142 6.359375000000001  C 14.950706845238097 6.255208333333331  15.057663690476192 6.203124999999999  15.178571428571427 6.203124999999999  C 15.299479166666668 6.203124999999999  15.406436011904765 6.255208333333331  15.499441964285715 6.359375000000001  L 17.536272321428573 8.640625  C 17.629278273809526 8.744791666666666  17.67578125 8.864583333333332  17.67578125 9  C 17.67578125 9.135416666666664  17.629278273809526 9.255208333333332  17.536272321428573 9.359375  L 15.178571428571427 12  L 17.536272321428573 14.640625000000002  C 17.629278273809526 14.744791666666666  17.67578125 14.864583333333332  17.67578125 15  Z M 4 4  L 4 20  L 21 20  L 21 4  L 4 4  Z M 24.344308035714285 0.7343750000000009  C 24.781436011904763 1.2239583333333321  25 1.8125000000000009  25 2.499999999999999  L 25 21.5  C 25 22.1875  24.781436011904763 22.776041666666668  24.344308035714285 23.265625  C 23.907180059523814 23.755208333333332  23.381696428571434 24  22.767857142857142 24  L 2.232142857142857 24  C 1.6183035714285716 24  1.0928199404761907 23.755208333333332  0.6556919642857143 23.265625  C 0.2185639880952381 22.776041666666668  0 22.1875  0 21.5  L 0 2.499999999999999  C 0 1.8125000000000009  0.2185639880952381 1.2239583333333321  0.6556919642857143 0.7343750000000009  C 1.0928199404761907 0.2447916666666643  1.6183035714285716 0  2.232142857142857 0  L 22.767857142857142 0  C 23.381696428571434 0  23.907180059523814 0.2447916666666643  24.344308035714285 0.7343750000000009  Z " fill-rule="nonzero" fill="#333333" stroke="none" transform="matrix(1 0 0 1 1112 36 )" />
  </g>
</svg>