<?xml version="1.0" encoding="utf-8"?>
<svg version="1.1" xmlns:xlink="http://www.w3.org/1999/xlink" width="30px" height="27px" xmlns="http://www.w3.org/2000/svg">
  <g transform="matrix(1 0 0 1 -1114 -9 )">
    <path d="M 21.2109375 16.875  C 21.2109375 17.027343749999996  21.15513392857143 17.162109375  21.04352678571429 17.279296874999996  L 18.599330357142858 19.845703125000004  C 18.48772321428572 19.962890625  18.359375000000004 20.021484374999996  18.21428571428571 20.021484374999996  C 18.06919642857143 20.021484374999996  17.940848214285715 19.962890625  17.82924107142857 19.845703125000004  L 15 16.875  L 12.170758928571429 19.845703125000004  C 12.059151785714286 19.962890625  11.930803571428573 20.021484374999996  11.785714285714285 20.021484374999996  C 11.640625000000002 20.021484374999996  11.512276785714288 19.962890625  11.400669642857144 19.845703125000004  L 8.956473214285715 17.279296874999996  C 8.844866071428573 17.162109375  8.7890625 17.027343749999996  8.7890625 16.875  C 8.7890625 16.72265625  8.844866071428573 16.587890625  8.956473214285715 16.470703125000004  L 11.785714285714285 13.5  L 8.956473214285715 10.529296875000002  C 8.844866071428573 10.412109374999998  8.7890625 10.277343749999998  8.7890625 10.125  C 8.7890625 9.972656249999998  8.844866071428573 9.837890625  8.956473214285715 9.720703124999998  L 11.400669642857144 7.154296875000001  C 11.512276785714288 7.037109374999997  11.640625000000002 6.978515624999999  11.785714285714285 6.978515624999999  C 11.930803571428573 6.978515624999999  12.059151785714286 7.037109374999997  12.170758928571429 7.154296875000001  L 15 10.125  L 17.82924107142857 7.154296875000001  C 17.940848214285715 7.037109374999997  18.06919642857143 6.978515624999999  18.21428571428571 6.978515624999999  C 18.359375000000004 6.978515624999999  18.48772321428572 7.037109374999997  18.599330357142858 7.154296875000001  L 21.04352678571429 9.720703124999998  C 21.15513392857143 9.837890625  21.2109375 9.972656249999998  21.2109375 10.125  C 21.2109375 10.277343749999998  21.15513392857143 10.412109374999998  21.04352678571429 10.529296875000002  L 18.21428571428571 13.5  L 21.04352678571429 16.470703125000004  C 21.15513392857143 16.587890625  21.2109375 16.72265625  21.2109375 16.875  Z M 4.285714285714286 5  L 4.285714285714286 22  L 25.71428571428571 22  L 25.71428571428571 5  L 4.285714285714286 5  Z M 29.213169642857142 0.826171875000001  C 29.73772321428572 1.3769531249999987  30 2.039062500000001  30 2.812499999999999  L 30 24.1875  C 30 24.9609375  29.73772321428572 25.623046875  29.213169642857142 26.173828125  C 28.688616071428577 26.724609375  28.05803571428572 27  27.32142857142857 27  L 2.678571428571429 27  C 1.9419642857142858 27  1.3113839285714286 26.724609375  0.7868303571428572 26.173828125  C 0.2622767857142857 25.623046875  0 24.9609375  0 24.1875  L 0 2.812499999999999  C 0 2.039062500000001  0.2622767857142857 1.3769531249999987  0.7868303571428572 0.826171875000001  C 1.3113839285714286 0.27539062499999734  1.9419642857142858 0  2.678571428571429 0  L 27.32142857142857 0  C 28.05803571428572 0  28.688616071428577 0.27539062499999734  29.213169642857142 0.826171875000001  Z " fill-rule="nonzero" fill="#aaaaaa" stroke="none" transform="matrix(1 0 0 1 1114 9 )" />
  </g>
</svg>