<?xml version="1.0" encoding="utf-8"?>
<svg version="1.1" xmlns:xlink="http://www.w3.org/1999/xlink" width="29px" height="27px" xmlns="http://www.w3.org/2000/svg">
  <g transform="matrix(1 0 0 1 -1152 -10 )">
    <path d="M 20.50390625 16.875  C 20.50390625 17.027343749999996  20.44996279761905 17.162109375  20.342075892857146 17.279296874999996  L 17.97935267857143 19.845703125000004  C 17.871465773809526 19.962890625  17.747395833333336 20.021484374999996  17.607142857142854 20.021484374999996  C 17.466889880952383 20.021484374999996  17.34281994047619 19.962890625  17.234933035714285 19.845703125000004  L 14.5 16.875  L 11.765066964285715 19.845703125000004  C 11.65718005952381 19.962890625  11.53311011904762 20.021484374999996  11.392857142857142 20.021484374999996  C 11.252604166666668 20.021484374999996  11.128534226190478 19.962890625  11.020647321428573 19.845703125000004  L 8.657924107142858 17.279296874999996  C 8.550037202380953 17.162109375  8.49609375 17.027343749999996  8.49609375 16.875  C 8.49609375 16.72265625  8.550037202380953 16.587890625  8.657924107142858 16.470703125000004  L 11.392857142857142 13.5  L 8.657924107142858 10.529296875000002  C 8.550037202380953 10.412109374999998  8.49609375 10.277343749999998  8.49609375 10.125  C 8.49609375 9.972656249999998  8.550037202380953 9.837890625  8.657924107142858 9.720703124999998  L 11.020647321428573 7.154296875000001  C 11.128534226190478 7.037109374999997  11.252604166666668 6.978515624999999  11.392857142857142 6.978515624999999  C 11.53311011904762 6.978515624999999  11.65718005952381 7.037109374999997  11.765066964285715 7.154296875000001  L 14.5 10.125  L 17.234933035714285 7.154296875000001  C 17.34281994047619 7.037109374999997  17.466889880952383 6.978515624999999  17.607142857142854 6.978515624999999  C 17.747395833333336 6.978515624999999  17.871465773809526 7.037109374999997  17.97935267857143 7.154296875000001  L 20.342075892857146 9.720703124999998  C 20.44996279761905 9.837890625  20.50390625 9.972656249999998  20.50390625 10.125  C 20.50390625 10.277343749999998  20.44996279761905 10.412109374999998  20.342075892857146 10.529296875000002  L 17.607142857142854 13.5  L 20.342075892857146 16.470703125000004  C 20.44996279761905 16.587890625  20.50390625 16.72265625  20.50390625 16.875  Z M 4.142857142857142 5  L 4.142857142857142 22  L 24.857142857142854 22  L 24.857142857142854 5  L 4.142857142857142 5  Z M 28.23939732142857 0.826171875000001  C 28.746465773809526 1.3769531249999987  29 2.039062500000001  29 2.812499999999999  L 29 24.1875  C 29 24.9609375  28.746465773809526 25.623046875  28.23939732142857 26.173828125  C 27.732328869047624 26.724609375  27.12276785714286 27  26.410714285714285 27  L 2.5892857142857144 27  C 1.877232142857143 27  1.2676711309523812 26.724609375  0.7606026785714286 26.173828125  C 0.2535342261904762 25.623046875  0 24.9609375  0 24.1875  L 0 2.812499999999999  C 0 2.039062500000001  0.2535342261904762 1.3769531249999987  0.7606026785714286 0.826171875000001  C 1.2676711309523812 0.27539062499999734  1.877232142857143 0  2.5892857142857144 0  L 26.410714285714285 0  C 27.12276785714286 0  27.732328869047624 0.27539062499999734  28.23939732142857 0.826171875000001  Z " fill-rule="nonzero" fill="#aaaaaa" stroke="none" transform="matrix(1 0 0 1 1152 10 )" />
  </g>
</svg>