<?xml version="1.0" encoding="utf-8"?>
<svg version="1.1" xmlns:xlink="http://www.w3.org/1999/xlink" width="9px" height="8px" xmlns="http://www.w3.org/2000/svg">
  <g transform="matrix(1 0 0 1 -173 -3 )">
    <path d="M 8.787878787878787 5.979797979797979  C 8.929292929292929 6.105499438832771  9 6.2581369248035905  9 6.437710437710438  C 9 6.617283950617285  8.929292929292929 6.769921436588103  8.787878787878787 6.895622895622895  L 7.757575757575757 7.811447811447811  C 7.616161616161618 7.937149270482604  7.444444444444445 8  7.242424242424242 8  C 7.0404040404040416 8  6.868686868686869 7.937149270482604  6.7272727272727275 7.811447811447811  L 4.5 5.831649831649832  L 2.272727272727273 7.811447811447811  C 2.1313131313131315 7.937149270482604  1.9595959595959598 8  1.7575757575757576 8  C 1.5555555555555558 8  1.383838383838384 7.937149270482604  1.2424242424242424 7.811447811447811  L 0.21212121212121213 6.895622895622895  C 0.07070707070707077 6.769921436588103  0 6.617283950617285  0 6.437710437710438  C 0 6.2581369248035905  0.07070707070707077 6.105499438832771  0.21212121212121213 5.979797979797979  L 2.4393939393939394 4  L 0.21212121212121213 2.02020202020202  C 0.07070707070707077 1.8945005611672272  0 1.7418630751964086  0 1.5622895622895623  C 0 1.382716049382716  0.07070707070707077 1.2300785634118956  0.21212121212121213 1.1043771043771047  L 1.2424242424242424 0.18855218855218858  C 1.383838383838384 0.0628507295173959  1.5555555555555558 0  1.7575757575757576 0  C 1.9595959595959598 0  2.1313131313131315 0.0628507295173959  2.272727272727273 0.18855218855218858  L 4.5 2.1683501683501687  L 6.7272727272727275 0.18855218855218858  C 6.868686868686869 0.0628507295173959  7.0404040404040416 0  7.242424242424242 0  C 7.444444444444445 0  7.616161616161618 0.0628507295173959  7.757575757575757 0.18855218855218858  L 8.787878787878787 1.1043771043771047  C 8.929292929292929 1.2300785634118956  9 1.382716049382716  9 1.5622895622895623  C 9 1.7418630751964086  8.929292929292929 1.8945005611672272  8.787878787878787 2.02020202020202  L 6.5606060606060606 4  L 8.787878787878787 5.979797979797979  Z " fill-rule="nonzero" fill="#d7d7d7" stroke="none" transform="matrix(1 0 0 1 173 3 )" />
  </g>
</svg>