<?xml version="1.0" encoding="utf-8"?>
<svg version="1.1" xmlns:xlink="http://www.w3.org/1999/xlink" width="17px" height="16px" xmlns="http://www.w3.org/2000/svg">
  <g transform="matrix(1 0 0 1 -266 -7 )">
    <path d="M 12.01953125 10  C 12.01953125 10.090277777777775  11.987909226190478 10.17013888888889  11.924665178571429 10.239583333333332  L 10.539620535714286 11.760416666666668  C 10.476376488095239 11.82986111111111  10.403645833333334 11.864583333333332  10.321428571428571 11.864583333333332  C 10.23921130952381 11.864583333333332  10.166480654761905 11.82986111111111  10.103236607142858 11.760416666666668  L 8.5 10  L 6.896763392857143 11.760416666666668  C 6.833519345238096 11.82986111111111  6.760788690476192 11.864583333333332  6.678571428571429 11.864583333333332  C 6.596354166666667 11.864583333333332  6.523623511904763 11.82986111111111  6.460379464285714 11.760416666666668  L 5.075334821428571 10.239583333333332  C 5.012090773809524 10.17013888888889  4.98046875 10.090277777777775  4.98046875 10  C 4.98046875 9.909722222222221  5.012090773809524 9.82986111111111  5.075334821428571 9.760416666666668  L 6.678571428571429 8  L 5.075334821428571 6.239583333333334  C 5.012090773809524 6.1701388888888875  4.98046875 6.090277777777777  4.98046875 6  C 4.98046875 5.909722222222221  5.012090773809524 5.829861111111111  5.075334821428571 5.760416666666666  L 6.460379464285714 4.239583333333334  C 6.523623511904763 4.1701388888888875  6.596354166666667 4.135416666666666  6.678571428571429 4.135416666666666  C 6.760788690476192 4.135416666666666  6.833519345238096 4.1701388888888875  6.896763392857143 4.239583333333334  L 8.5 6  L 10.103236607142858 4.239583333333334  C 10.166480654761905 4.1701388888888875  10.23921130952381 4.135416666666666  10.321428571428571 4.135416666666666  C 10.403645833333334 4.135416666666666  10.476376488095239 4.1701388888888875  10.539620535714286 4.239583333333334  L 11.924665178571429 5.760416666666666  C 11.987909226190478 5.829861111111111  12.01953125 5.909722222222221  12.01953125 6  C 12.01953125 6.090277777777777  11.987909226190478 6.1701388888888875  11.924665178571429 6.239583333333334  L 10.321428571428571 8  L 11.924665178571429 9.760416666666668  C 11.987909226190478 9.82986111111111  12.01953125 9.909722222222221  12.01953125 10  Z M 2.4285714285714284 2.666666666666666  L 2.4285714285714284 13.333333333333334  L 14.571428571428571 13.333333333333334  L 14.571428571428571 2.666666666666666  L 2.4285714285714284 2.666666666666666  Z M 16.554129464285715 0.4895833333333339  C 16.85137648809524 0.8159722222222214  17 1.208333333333334  17 1.666666666666666  L 17 14.333333333333334  C 17 14.791666666666666  16.85137648809524 15.184027777777779  16.554129464285715 15.510416666666666  C 16.256882440476193 15.836805555555555  15.899553571428575 16  15.482142857142858 16  L 1.5178571428571428 16  C 1.1004464285714286 16  0.7431175595238096 15.836805555555555  0.4458705357142857 15.510416666666666  C 0.14862351190476192 15.184027777777779  0 14.791666666666666  0 14.333333333333334  L 0 1.666666666666666  C 0 1.208333333333334  0.14862351190476192 0.8159722222222214  0.4458705357142857 0.4895833333333339  C 0.7431175595238096 0.16319444444444287  1.1004464285714286 0  1.5178571428571428 0  L 15.482142857142858 0  C 15.899553571428575 0  16.256882440476193 0.16319444444444287  16.554129464285715 0.4895833333333339  Z " fill-rule="nonzero" fill="#000000" stroke="none" transform="matrix(1 0 0 1 266 7 )" />
  </g>
</svg>