<?xml version="1.0" encoding="utf-8"?>
<svg version="1.1" xmlns:xlink="http://www.w3.org/1999/xlink" width="26px" height="24px" xmlns="http://www.w3.org/2000/svg">
  <g transform="matrix(1 0 0 1 -1127 -11 )">
    <path d="M 18.3828125 15  C 18.3828125 15.135416666666663  18.33444940476191 15.255208333333334  18.237723214285715 15.359374999999998  L 16.119419642857142 17.640625  C 16.022693452380956 17.744791666666664  15.911458333333336 17.796875  15.785714285714285 17.796875  C 15.659970238095239 17.796875  15.54873511904762 17.744791666666664  15.452008928571429 17.640625  L 13 15  L 10.547991071428571 17.640625  C 10.451264880952381 17.744791666666664  10.340029761904763 17.796875  10.214285714285714 17.796875  C 10.088541666666668 17.796875  9.97730654761905 17.744791666666664  9.880580357142858 17.640625  L 7.762276785714286 15.359374999999998  C 7.665550595238096 15.255208333333334  7.6171875 15.135416666666663  7.6171875 15  C 7.6171875 14.864583333333332  7.665550595238096 14.744791666666666  7.762276785714286 14.640625000000002  L 10.214285714285714 12  L 7.762276785714286 9.359375  C 7.665550595238096 9.255208333333332  7.6171875 9.135416666666664  7.6171875 9  C 7.6171875 8.864583333333332  7.665550595238096 8.744791666666666  7.762276785714286 8.640625  L 9.880580357142858 6.359375000000001  C 9.97730654761905 6.255208333333331  10.088541666666668 6.203124999999999  10.214285714285714 6.203124999999999  C 10.340029761904763 6.203124999999999  10.451264880952381 6.255208333333331  10.547991071428571 6.359375000000001  L 13 9  L 15.452008928571429 6.359375000000001  C 15.54873511904762 6.255208333333331  15.659970238095239 6.203124999999999  15.785714285714285 6.203124999999999  C 15.911458333333336 6.203124999999999  16.022693452380956 6.255208333333331  16.119419642857142 6.359375000000001  L 18.237723214285715 8.640625  C 18.33444940476191 8.744791666666666  18.3828125 8.864583333333332  18.3828125 9  C 18.3828125 9.135416666666664  18.33444940476191 9.255208333333332  18.237723214285715 9.359375  L 15.785714285714285 12  L 18.237723214285715 14.640625000000002  C 18.33444940476191 14.744791666666666  18.3828125 14.864583333333332  18.3828125 15  Z M 4 4  L 4 20  L 22 20  L 22 4  L 4 4  Z M 25.318080357142858 0.7343750000000009  C 25.772693452380956 1.2239583333333321  26 1.8125000000000009  26 2.499999999999999  L 26 21.5  C 26 22.1875  25.772693452380956 22.776041666666668  25.318080357142858 23.265625  C 24.863467261904766 23.755208333333332  24.316964285714292 24  23.678571428571427 24  L 2.3214285714285716 24  C 1.6830357142857144 24  1.1365327380952381 23.755208333333332  0.6819196428571429 23.265625  C 0.22730654761904762 22.776041666666668  0 22.1875  0 21.5  L 0 2.499999999999999  C 0 1.8125000000000009  0.22730654761904762 1.2239583333333321  0.6819196428571429 0.7343750000000009  C 1.1365327380952381 0.2447916666666643  1.6830357142857144 0  2.3214285714285716 0  L 23.678571428571427 0  C 24.316964285714292 0  24.863467261904766 0.2447916666666643  25.318080357142858 0.7343750000000009  Z " fill-rule="nonzero" fill="#aaaaaa" stroke="none" transform="matrix(1 0 0 1 1127 11 )" />
  </g>
</svg>