<?xml version="1.0" encoding="utf-8"?>
<svg version="1.1" xmlns:xlink="http://www.w3.org/1999/xlink" width="17px" height="16px" xmlns="http://www.w3.org/2000/svg">
  <g transform="matrix(1 0 0 1 -11 -9 )">
    <path d="M 13.170572916666668 6.666666666666666  C 13.170572916666668 6.847222222222221  13.100477430555557 7.003472222222221  12.960286458333332 7.135416666666666  L 8.289713541666666 11.53125  C 8.149522569444445 11.663194444444443  7.983506944444445 11.729166666666668  7.791666666666666 11.729166666666668  C 7.599826388888889 11.729166666666668  7.433810763888889 11.663194444444443  7.293619791666666 11.53125  L 4.039713541666667 8.46875  C 3.8995225694444446 8.336805555555554  3.829427083333333 8.180555555555554  3.829427083333333 8  C 3.829427083333333 7.819444444444445  3.8995225694444446 7.663194444444445  4.039713541666667 7.53125  L 5.168619791666666 6.46875  C 5.308810763888889 6.336805555555555  5.474826388888889 6.270833333333334  5.666666666666666 6.270833333333334  C 5.858506944444445 6.270833333333334  6.024522569444445 6.336805555555555  6.164713541666666 6.46875  L 7.791666666666666 8  L 10.835286458333332 5.135416666666666  C 10.975477430555557 5.003472222222221  11.141493055555557 4.9375  11.333333333333332 4.9375  C 11.525173611111112 4.9375  11.691189236111112 5.003472222222221  11.831380208333332 5.135416666666666  L 12.960286458333332 6.197916666666666  C 13.100477430555557 6.329861111111111  13.170572916666668 6.486111111111111  13.170572916666668 6.666666666666666  Z M 13.712890625 10.84375  C 14.251519097222223 9.975694444444443  14.520833333333332 9.027777777777779  14.520833333333332 8  C 14.520833333333332 6.972222222222221  14.251519097222223 6.024305555555555  13.712890625 5.15625  C 13.174262152777779 4.288194444444443  12.443793402777779 3.600694444444443  11.521484375 3.09375  C 10.599175347222223 2.5868055555555554  9.59201388888889 2.333333333333334  8.5 2.333333333333334  C 7.407986111111112 2.333333333333334  6.400824652777779 2.5868055555555554  5.478515625 3.09375  C 4.556206597222222 3.600694444444443  3.8257378472222223 4.288194444444443  3.287109375 5.15625  C 2.748480902777778 6.024305555555555  2.479166666666667 6.972222222222221  2.479166666666667 8  C 2.479166666666667 9.027777777777779  2.748480902777778 9.975694444444443  3.287109375 10.84375  C 3.8257378472222223 11.711805555555554  4.556206597222222 12.399305555555555  5.478515625 12.90625  C 6.400824652777779 13.413194444444445  7.407986111111112 13.666666666666666  8.5 13.666666666666666  C 9.59201388888889 13.666666666666666  10.599175347222223 13.413194444444445  11.521484375 12.90625  C 12.443793402777779 12.399305555555555  13.174262152777779 11.711805555555554  13.712890625 10.84375  Z M 15.860026041666668 3.984375  C 16.620008680555554 5.210069444444443  17 6.548611111111109  17 8  C 17 9.45138888888889  16.620008680555554 10.789930555555554  15.860026041666668 12.015625  C 15.100043402777779 13.241319444444445  14.068901909722223 14.211805555555555  12.7666015625 14.927083333333334  C 11.464301215277779 15.642361111111112  10.042100694444445 16  8.5 16  C 6.957899305555556 16  5.535698784722222 15.642361111111112  4.2333984375 14.927083333333334  C 2.931098090277778 14.211805555555555  1.8999565972222223 13.241319444444445  1.1399739583333335 12.015625  C 0.3799913194444444 10.789930555555554  0 9.45138888888889  0 8  C 0 6.548611111111109  0.3799913194444444 5.210069444444443  1.1399739583333335 3.984375  C 1.8999565972222223 2.7586805555555554  2.931098090277778 1.7881944444444429  4.2333984375 1.072916666666666  C 5.535698784722222 0.3576388888888875  6.957899305555556 0  8.5 0  C 10.042100694444445 0  11.464301215277779 0.3576388888888875  12.7666015625 1.072916666666666  C 14.068901909722223 1.7881944444444429  15.100043402777779 2.7586805555555554  15.860026041666668 3.984375  Z " fill-rule="nonzero" fill="#333333" stroke="none" transform="matrix(1 0 0 1 11 9 )" />
  </g>
</svg>