<?xml version="1.0" encoding="utf-8"?>
<svg version="1.1" xmlns:xlink="http://www.w3.org/1999/xlink" width="69px" height="22px" xmlns="http://www.w3.org/2000/svg">
  <defs>
    <mask fill="white" id="clip485">
      <path d="M 0 17  L 0 5  C 0 2.200000000000003  2.1999999999999886 0  5 0  L 44.77011494252872 0  L 64 0  C 66.80000000000001 0  69 2.200000000000003  69 5  L 69 17  C 69 19.80000000000001  66.80000000000001 22  64 22  L 5 22  C 2.1999999999999886 22  0 19.80000000000001  0 17  Z " fill-rule="evenodd" />
    </mask>
  </defs>
  <g transform="matrix(1 0 0 1 -138 -122 )">
    <path d="M 0 17  L 0 5  C 0 2.200000000000003  2.1999999999999886 0  5 0  L 44.77011494252872 0  L 64 0  C 66.80000000000001 0  69 2.200000000000003  69 5  L 69 17  C 69 19.80000000000001  66.80000000000001 22  64 22  L 5 22  C 2.1999999999999886 22  0 19.80000000000001  0 17  Z " fill-rule="nonzero" fill="#00aaaa" stroke="none" transform="matrix(1 0 0 1 138 122 )" />
    <path d="M 0 17  L 0 5  C 0 2.200000000000003  2.1999999999999886 0  5 0  L 44.77011494252872 0  L 64 0  C 66.80000000000001 0  69 2.200000000000003  69 5  L 69 17  C 69 19.80000000000001  66.80000000000001 22  64 22  L 5 22  C 2.1999999999999886 22  0 19.80000000000001  0 17  Z " stroke-width="2" stroke="#797979" fill="none" transform="matrix(1 0 0 1 138 122 )" mask="url(#clip485)" />
  </g>
</svg>