<?xml version="1.0" encoding="utf-8"?>
<svg version="1.1" xmlns:xlink="http://www.w3.org/1999/xlink" width="12px" height="14px" xmlns="http://www.w3.org/2000/svg">
  <g transform="matrix(1 0 0 1 -1219 -78 )">
    <path d="M 8.21875 9.588541666666666  C 8.072916666666668 9.758680555555554  8 9.965277777777779  8 10.208333333333334  L 8 14  L 0.75 14  C 0.5416666666666667 14  0.36458333333333337 13.914930555555557  0.21875 13.744791666666668  C 0.07291666666666666 13.574652777777777  0 13.368055555555557  0 13.125  L 0 0.875  C 0 0.6319444444444438  0.07291666666666666 0.4253472222222203  0.21875 0.2552083333333328  C 0.36458333333333337 0.08506944444444375  0.5416666666666667 0  0.75 0  L 11.25 0  C 11.458333333333334 0  11.635416666666668 0.08506944444444375  11.78125 0.2552083333333328  C 11.927083333333332 0.4253472222222203  12 0.6319444444444438  12 0.875  L 12 9.333333333333334  L 8.75 9.333333333333334  C 8.541666666666668 9.333333333333334  8.364583333333334 9.418402777777779  8.21875 9.588541666666666  Z M 9 13.97265625  L 9 10.5  L 11.9765625 10.5  C 11.8984375 10.99826388888889  11.729166666666668 11.399305555555557  11.46875 11.703125  L 10.03125 13.380208333333332  C 9.770833333333334 13.684027777777777  9.427083333333334 13.881510416666668  9 13.97265625  Z " fill-rule="nonzero" fill="#000000" stroke="none" transform="matrix(1 0 0 1 1219 78 )" />
  </g>
</svg>