<?xml version="1.0" encoding="utf-8"?>
<svg version="1.1" xmlns:xlink="http://www.w3.org/1999/xlink" width="15px" height="14px" xmlns="http://www.w3.org/2000/svg">
  <g transform="matrix(1 0 0 1 -1131 -12 )">
    <path d="M 4.5342548076923075 12.637784090909092  C 4.588341346153846 12.578125  4.615384615384616 12.50189393939394  4.615384615384616 12.409090909090908  L 4.615384615384616 10.5  C 4.615384615384616 10.407196969696967  4.588341346153846 10.330965909090908  4.5342548076923075 10.271306818181818  C 4.480168269230769 10.211647727272728  4.4110576923076925 10.181818181818182  4.326923076923077 10.181818181818182  L 1.4423076923076923 10.181818181818182  C 1.358173076923077 10.181818181818182  1.2890625 10.211647727272728  1.2349759615384615 10.271306818181818  C 1.1808894230769231 10.330965909090908  1.153846153846154 10.407196969696967  1.153846153846154 10.5  L 1.153846153846154 12.409090909090908  C 1.153846153846154 12.50189393939394  1.1808894230769231 12.578125  1.2349759615384615 12.637784090909092  C 1.2890625 12.697443181818182  1.358173076923077 12.727272727272727  1.4423076923076923 12.727272727272727  L 4.326923076923077 12.727272727272727  C 4.4110576923076925 12.727272727272727  4.480168269230769 12.697443181818182  4.5342548076923075 12.637784090909092  Z M 4.5342548076923075 8.819602272727272  C 4.588341346153846 8.759943181818182  4.615384615384616 8.68371212121212  4.615384615384616 8.590909090909092  L 4.615384615384616 6.681818181818182  C 4.615384615384616 6.5890151515151505  4.588341346153846 6.512784090909091  4.5342548076923075 6.453125  C 4.480168269230769 6.393465909090909  4.4110576923076925 6.363636363636364  4.326923076923077 6.363636363636364  L 1.4423076923076923 6.363636363636364  C 1.358173076923077 6.363636363636364  1.2890625 6.393465909090909  1.2349759615384615 6.453125  C 1.1808894230769231 6.512784090909091  1.153846153846154 6.5890151515151505  1.153846153846154 6.681818181818182  L 1.153846153846154 8.590909090909092  C 1.153846153846154 8.68371212121212  1.1808894230769231 8.759943181818182  1.2349759615384615 8.819602272727272  C 1.2890625 8.879261363636363  1.358173076923077 8.909090909090908  1.4423076923076923 8.909090909090908  L 4.326923076923077 8.909090909090908  C 4.4110576923076925 8.909090909090908  4.480168269230769 8.879261363636363  4.5342548076923075 8.819602272727272  Z M 9.149639423076923 12.637784090909092  C 9.203725961538462 12.578125  9.230769230769232 12.50189393939394  9.230769230769232 12.409090909090908  L 9.230769230769232 10.5  C 9.230769230769232 10.407196969696967  9.203725961538462 10.330965909090908  9.149639423076923 10.271306818181818  C 9.095552884615385 10.211647727272728  9.026442307692307 10.181818181818182  8.942307692307692 10.181818181818182  L 6.0576923076923075 10.181818181818182  C 5.9735576923076925 10.181818181818182  5.904447115384616 10.211647727272728  5.850360576923077 10.271306818181818  C 5.796274038461538 10.330965909090908  5.769230769230769 10.407196969696967  5.769230769230769 10.5  L 5.769230769230769 12.409090909090908  C 5.769230769230769 12.50189393939394  5.796274038461538 12.578125  5.850360576923077 12.637784090909092  C 5.904447115384616 12.697443181818182  5.9735576923076925 12.727272727272727  6.0576923076923075 12.727272727272727  L 8.942307692307692 12.727272727272727  C 9.026442307692307 12.727272727272727  9.095552884615385 12.697443181818182  9.149639423076923 12.637784090909092  Z M 4.5342548076923075 5.001420454545455  C 4.588341346153846 4.941761363636364  4.615384615384616 4.865530303030303  4.615384615384616 4.772727272727273  L 4.615384615384616 2.863636363636364  C 4.615384615384616 2.7708333333333313  4.588341346153846 2.6946022727272734  4.5342548076923075 2.634943181818182  C 4.480168269230769 2.575284090909091  4.4110576923076925 2.545454545454545  4.326923076923077 2.545454545454545  L 1.4423076923076923 2.545454545454545  C 1.358173076923077 2.545454545454545  1.2890625 2.575284090909091  1.2349759615384615 2.634943181818182  C 1.1808894230769231 2.6946022727272734  1.153846153846154 2.7708333333333313  1.153846153846154 2.863636363636364  L 1.153846153846154 4.772727272727273  C 1.153846153846154 4.865530303030303  1.1808894230769231 4.941761363636364  1.2349759615384615 5.001420454545455  C 1.2890625 5.061079545454545  1.358173076923077 5.090909090909091  1.4423076923076923 5.090909090909091  L 4.326923076923077 5.090909090909091  C 4.4110576923076925 5.090909090909091  4.480168269230769 5.061079545454545  4.5342548076923075 5.001420454545455  Z M 9.149639423076923 8.819602272727272  C 9.203725961538462 8.759943181818182  9.230769230769232 8.68371212121212  9.230769230769232 8.590909090909092  L 9.230769230769232 6.681818181818182  C 9.230769230769232 6.5890151515151505  9.203725961538462 6.512784090909091  9.149639423076923 6.453125  C 9.095552884615385 6.393465909090909  9.026442307692307 6.363636363636364  8.942307692307692 6.363636363636364  L 6.0576923076923075 6.363636363636364  C 5.9735576923076925 6.363636363636364  5.904447115384616 6.393465909090909  5.850360576923077 6.453125  C 5.796274038461538 6.512784090909091  5.769230769230769 6.5890151515151505  5.769230769230769 6.681818181818182  L 5.769230769230769 8.590909090909092  C 5.769230769230769 8.68371212121212  5.796274038461538 8.759943181818182  5.850360576923077 8.819602272727272  C 5.904447115384616 8.879261363636363  5.9735576923076925 8.909090909090908  6.0576923076923075 8.909090909090908  L 8.942307692307692 8.909090909090908  C 9.026442307692307 8.909090909090908  9.095552884615385 8.879261363636363  9.149639423076923 8.819602272727272  Z M 13.765024038461538 12.637784090909092  C 13.819110576923077 12.578125  13.846153846153847 12.50189393939394  13.846153846153847 12.409090909090908  L 13.846153846153847 10.5  C 13.846153846153847 10.407196969696967  13.819110576923077 10.330965909090908  13.765024038461538 10.271306818181818  C 13.7109375 10.211647727272728  13.641826923076925 10.181818181818182  13.557692307692308 10.181818181818182  L 10.673076923076923 10.181818181818182  C 10.588942307692308 10.181818181818182  10.519831730769232 10.211647727272728  10.465745192307692 10.271306818181818  C 10.411658653846153 10.330965909090908  10.384615384615385 10.407196969696967  10.384615384615385 10.5  L 10.384615384615385 12.409090909090908  C 10.384615384615385 12.50189393939394  10.411658653846153 12.578125  10.465745192307692 12.637784090909092  C 10.519831730769232 12.697443181818182  10.588942307692308 12.727272727272727  10.673076923076923 12.727272727272727  L 13.557692307692308 12.727272727272727  C 13.641826923076925 12.727272727272727  13.7109375 12.697443181818182  13.765024038461538 12.637784090909092  Z M 9.149639423076923 5.001420454545455  C 9.203725961538462 4.941761363636364  9.230769230769232 4.865530303030303  9.230769230769232 4.772727272727273  L 9.230769230769232 2.863636363636364  C 9.230769230769232 2.7708333333333313  9.203725961538462 2.6946022727272734  9.149639423076923 2.634943181818182  C 9.095552884615385 2.575284090909091  9.026442307692307 2.545454545454545  8.942307692307692 2.545454545454545  L 6.0576923076923075 2.545454545454545  C 5.9735576923076925 2.545454545454545  5.904447115384616 2.575284090909091  5.850360576923077 2.634943181818182  C 5.796274038461538 2.6946022727272734  5.769230769230769 2.7708333333333313  5.769230769230769 2.863636363636364  L 5.769230769230769 4.772727272727273  C 5.769230769230769 4.865530303030303  5.796274038461538 4.941761363636364  5.850360576923077 5.001420454545455  C 5.904447115384616 5.061079545454545  5.9735576923076925 5.090909090909091  6.0576923076923075 5.090909090909091  L 8.942307692307692 5.090909090909091  C 9.026442307692307 5.090909090909091  9.095552884615385 5.061079545454545  9.149639423076923 5.001420454545455  Z M 13.765024038461538 8.819602272727272  C 13.819110576923077 8.759943181818182  13.846153846153847 8.68371212121212  13.846153846153847 8.590909090909092  L 13.846153846153847 6.681818181818182  C 13.846153846153847 6.5890151515151505  13.819110576923077 6.512784090909091  13.765024038461538 6.453125  C 13.7109375 6.393465909090909  13.641826923076925 6.363636363636364  13.557692307692308 6.363636363636364  L 10.673076923076923 6.363636363636364  C 10.588942307692308 6.363636363636364  10.519831730769232 6.393465909090909  10.465745192307692 6.453125  C 10.411658653846153 6.512784090909091  10.384615384615385 6.5890151515151505  10.384615384615385 6.681818181818182  L 10.384615384615385 8.590909090909092  C 10.384615384615385 8.68371212121212  10.411658653846153 8.759943181818182  10.465745192307692 8.819602272727272  C 10.519831730769232 8.879261363636363  10.588942307692308 8.909090909090908  10.673076923076923 8.909090909090908  L 13.557692307692308 8.909090909090908  C 13.641826923076925 8.909090909090908  13.7109375 8.879261363636363  13.765024038461538 8.819602272727272  Z M 13.765024038461538 5.001420454545455  C 13.819110576923077 4.941761363636364  13.846153846153847 4.865530303030303  13.846153846153847 4.772727272727273  L 13.846153846153847 2.863636363636364  C 13.846153846153847 2.7708333333333313  13.819110576923077 2.6946022727272734  13.765024038461538 2.634943181818182  C 13.7109375 2.575284090909091  13.641826923076925 2.545454545454545  13.557692307692308 2.545454545454545  L 10.673076923076923 2.545454545454545  C 10.588942307692308 2.545454545454545  10.519831730769232 2.575284090909091  10.465745192307692 2.634943181818182  C 10.411658653846153 2.6946022727272734  10.384615384615385 2.7708333333333313  10.384615384615385 2.863636363636364  L 10.384615384615385 4.772727272727273  C 10.384615384615385 4.865530303030303  10.411658653846153 4.941761363636364  10.465745192307692 5.001420454545455  C 10.519831730769232 5.061079545454545  10.588942307692308 5.090909090909091  10.673076923076923 5.090909090909091  L 13.557692307692308 5.090909090909091  C 13.641826923076925 5.090909090909091  13.7109375 5.061079545454545  13.765024038461538 5.001420454545455  Z M 14.576322115384615 0.46732954545454475  C 14.85877403846154 0.7788825757575746  15 1.153409090909091  15 1.590909090909091  L 15 12.409090909090908  C 15 12.846590909090908  14.85877403846154 13.221117424242426  14.576322115384615 13.532670454545455  C 14.293870192307693 13.844223484848484  13.954326923076923 14  13.557692307692308 14  L 1.4423076923076923 14  C 1.0456730769230769 14  0.7061298076923078 13.844223484848484  0.42367788461538464 13.532670454545455  C 0.14122596153846154 13.221117424242426  0 12.846590909090908  0 12.409090909090908  L 0 1.590909090909091  C 0 1.153409090909091  0.14122596153846154 0.7788825757575746  0.42367788461538464 0.46732954545454475  C 0.7061298076923078 0.15577651515151336  1.0456730769230769 0  1.4423076923076923 0  L 13.557692307692308 0  C 13.954326923076923 0  14.293870192307693 0.15577651515151336  14.576322115384615 0.46732954545454475  Z " fill-rule="nonzero" fill="#7f7f7f" stroke="none" transform="matrix(1 0 0 1 1131 12 )" />
  </g>
</svg>