<?xml version="1.0" encoding="utf-8"?>
<svg version="1.1" xmlns:xlink="http://www.w3.org/1999/xlink" width="18px" height="18px" xmlns="http://www.w3.org/2000/svg">
  <g transform="matrix(1 0 0 1 -1087 -352 )">
    <path d="M 2.4760044642857144 14.848721590909092  C 2.5396205357142856 14.929687499999998  2.571428571428571 15.025568181818182  2.571428571428571 15.136363636363637  L 2.571428571428571 17.59090909090909  C 2.571428571428571 17.701704545454547  2.5396205357142856 17.797585227272727  2.4760044642857144 17.878551136363637  C 2.412388392857143 17.959517045454543  2.3370535714285716 18  2.25 18  L 0.3214285714285714 18  C 0.234375 18  0.15904017857142858 17.959517045454543  0.09542410714285715 17.878551136363637  C 0.03180803571428571 17.797585227272727  0 17.701704545454547  0 17.59090909090909  L 0 15.136363636363637  C 0 15.025568181818182  0.03180803571428571 14.929687499999998  0.09542410714285715 14.848721590909092  C 0.15904017857142858 14.767755681818183  0.234375 14.727272727272727  0.3214285714285714 14.727272727272727  L 2.25 14.727272727272727  C 2.3370535714285716 14.727272727272727  2.412388392857143 14.767755681818183  2.4760044642857144 14.848721590909092  Z M 2.4760044642857144 9.939630681818183  C 2.5396205357142856 10.02059659090909  2.571428571428571 10.116477272727273  2.571428571428571 10.227272727272727  L 2.571428571428571 12.681818181818183  C 2.571428571428571 12.792613636363635  2.5396205357142856 12.888494318181815  2.4760044642857144 12.969460227272727  C 2.412388392857143 13.050426136363637  2.3370535714285716 13.090909090909092  2.25 13.090909090909092  L 0.3214285714285714 13.090909090909092  C 0.234375 13.090909090909092  0.15904017857142858 13.050426136363637  0.09542410714285715 12.969460227272727  C 0.03180803571428571 12.888494318181815  0 12.792613636363635  0 12.681818181818183  L 0 10.227272727272727  C 0 10.116477272727273  0.03180803571428571 10.02059659090909  0.09542410714285715 9.939630681818183  C 0.15904017857142858 9.858664772727272  0.234375 9.818181818181817  0.3214285714285714 9.818181818181817  L 2.25 9.818181818181817  C 2.3370535714285716 9.818181818181817  2.412388392857143 9.858664772727272  2.4760044642857144 9.939630681818183  Z M 2.4760044642857144 5.030539772727272  C 2.5396205357142856 5.111505681818182  2.571428571428571 5.2073863636363615  2.571428571428571 5.3181818181818175  L 2.571428571428571 7.772727272727272  C 2.571428571428571 7.8835227272727275  2.5396205357142856 7.979403409090908  2.4760044642857144 8.060369318181817  C 2.412388392857143 8.141335227272727  2.3370535714285716 8.181818181818183  2.25 8.181818181818183  L 0.3214285714285714 8.181818181818183  C 0.234375 8.181818181818183  0.15904017857142858 8.141335227272727  0.09542410714285715 8.060369318181817  C 0.03180803571428571 7.979403409090908  0 7.8835227272727275  0 7.772727272727272  L 0 5.3181818181818175  C 0 5.2073863636363615  0.03180803571428571 5.111505681818182  0.09542410714285715 5.030539772727272  C 0.15904017857142858 4.949573863636362  0.234375 4.909090909090908  0.3214285714285714 4.909090909090908  L 2.25 4.909090909090908  C 2.3370535714285716 4.909090909090908  2.412388392857143 4.949573863636362  2.4760044642857144 5.030539772727272  Z M 17.904575892857142 14.848721590909092  C 17.968191964285715 14.929687499999998  18 15.025568181818182  18 15.136363636363637  L 18 17.59090909090909  C 18 17.701704545454547  17.968191964285715 17.797585227272727  17.904575892857142 17.878551136363637  C 17.840959821428573 17.959517045454543  17.765625000000004 18  17.678571428571427 18  L 4.178571428571429 18  C 4.091517857142858 18  4.0161830357142865 17.959517045454543  3.9525669642857144 17.878551136363637  C 3.8889508928571423 17.797585227272727  3.8571428571428568 17.701704545454547  3.8571428571428568 17.59090909090909  L 3.8571428571428568 15.136363636363637  C 3.8571428571428568 15.025568181818182  3.8889508928571423 14.929687499999998  3.9525669642857144 14.848721590909092  C 4.0161830357142865 14.767755681818183  4.091517857142858 14.727272727272727  4.178571428571429 14.727272727272727  L 17.678571428571427 14.727272727272727  C 17.765625000000004 14.727272727272727  17.840959821428573 14.767755681818183  17.904575892857142 14.848721590909092  Z M 2.4760044642857144 0.12144886363636309  C 2.5396205357142856 0.20241477272727249  2.571428571428571 0.29829545454545303  2.571428571428571 0.4090909090909087  L 2.571428571428571 2.8636363636363633  C 2.571428571428571 2.9744318181818166  2.5396205357142856 3.0703124999999973  2.4760044642857144 3.1512784090909087  C 2.412388392857143 3.2322443181818183  2.3370535714285716 3.2727272727272716  2.25 3.2727272727272716  L 0.3214285714285714 3.2727272727272716  C 0.234375 3.2727272727272716  0.15904017857142858 3.2322443181818183  0.09542410714285715 3.1512784090909087  C 0.03180803571428571 3.0703124999999973  0 2.9744318181818166  0 2.8636363636363633  L 0 0.4090909090909087  C 0 0.29829545454545303  0.03180803571428571 0.20241477272727249  0.09542410714285715 0.12144886363636309  C 0.15904017857142858 0.0404829545454517  0.234375 0  0.3214285714285714 0  L 2.25 0  C 2.3370535714285716 0  2.412388392857143 0.0404829545454517  2.4760044642857144 0.12144886363636309  Z M 17.904575892857142 9.939630681818183  C 17.968191964285715 10.02059659090909  18 10.116477272727273  18 10.227272727272727  L 18 12.681818181818183  C 18 12.792613636363635  17.968191964285715 12.888494318181815  17.904575892857142 12.969460227272727  C 17.840959821428573 13.050426136363637  17.765625000000004 13.090909090909092  17.678571428571427 13  L 4.178571428571429 13  C 4.091517857142858 13.090909090909092  4.0161830357142865 13.050426136363637  3.9525669642857144 12.969460227272727  C 3.8889508928571423 12.888494318181815  3.8571428571428568 12.792613636363635  3.8571428571428568 12.681818181818183  L 3.8571428571428568 10.227272727272727  C 3.8571428571428568 10.116477272727273  3.8889508928571423 10.02059659090909  3.9525669642857144 9.939630681818183  C 4.0161830357142865 9.858664772727272  4.091517857142858 9.818181818181817  4.178571428571429 9.818181818181817  L 17.678571428571427 9.818181818181817  C 17.765625000000004 9.818181818181817  17.840959821428573 9.858664772727272  17.904575892857142 9.939630681818183  Z M 17.904575892857142 5.030539772727272  C 17.968191964285715 5.111505681818182  18 5.2073863636363615  18 5.3181818181818175  L 18 7.772727272727272  C 18 7.8835227272727275  17.968191964285715 7.979403409090908  17.904575892857142 8.060369318181817  C 17.840959821428573 8.141335227272727  17.765625000000004 8.181818181818183  17.678571428571427 8.181818181818183  L 4.178571428571429 8.181818181818183  C 4.091517857142858 8.181818181818183  4.0161830357142865 8.141335227272727  3.9525669642857144 8.060369318181817  C 3.8889508928571423 7.979403409090908  3.8571428571428568 7.8835227272727275  3.8571428571428568 7.772727272727272  L 3.8571428571428568 5.3181818181818175  C 3.8571428571428568 5.2073863636363615  3.8889508928571423 5.111505681818182  3.9525669642857144 5.030539772727272  C 4.0161830357142865 4.949573863636362  4.091517857142858 4.909090909090908  4.178571428571429 5  L 17.678571428571427 5  C 17.765625000000004 4.909090909090908  17.840959821428573 4.949573863636362  17.904575892857142 5.030539772727272  Z M 17.904575892857142 0.12144886363636309  C 17.968191964285715 0.20241477272727249  18 0.29829545454545303  18 0.4090909090909087  L 18 2.8636363636363633  C 18 2.9744318181818166  17.968191964285715 3.0703124999999973  17.904575892857142 3.1512784090909087  C 17.840959821428573 3.2322443181818183  17.765625000000004 3.2727272727272716  17.678571428571427 3.2727272727272716  L 4.178571428571429 3.2727272727272716  C 4.091517857142858 3.2727272727272716  4.0161830357142865 3.2322443181818183  3.9525669642857144 3.1512784090909087  C 3.8889508928571423 3.0703124999999973  3.8571428571428568 2.9744318181818166  3.8571428571428568 2.8636363636363633  L 3.8571428571428568 0.4090909090909087  C 3.8571428571428568 0.29829545454545303  3.8889508928571423 0.20241477272727249  3.9525669642857144 0.12144886363636309  C 4.0161830357142865 0.0404829545454517  4.091517857142858 0  4.178571428571429 0  L 17.678571428571427 0  C 17.765625000000004 0  17.840959821428573 0.0404829545454517  17.904575892857142 0.12144886363636309  Z " fill-rule="nonzero" fill="#caf982" stroke="none" transform="matrix(1 0 0 1 1087 352 )" />
  </g>
</svg>