<?xml version="1.0" encoding="utf-8"?>
<svg version="1.1" xmlns:xlink="http://www.w3.org/1999/xlink" width="14px" height="19px" xmlns="http://www.w3.org/2000/svg">
  <g>
    <path d="M 13.740234375 11.483664772727273  C 13.913411458333334 11.654592803030301  14 11.857007575757574  14 12.09090909090909  C 14 12.324810606060606  13.913411458333334 12.527225378787875  13.740234375 12.69815340909091  L 7.615234375 18.743607954545453  C 7.442057291666667 18.914535984848488  7.236979166666667 19  7 19  C 6.763020833333334 19  6.557942708333334 18.914535984848488  6.384765625 18.743607954545453  L 0.259765625 12.69815340909091  C 0.08658854166666666 12.527225378787875  0 12.324810606060606  0 12.09090909090909  C 0 11.857007575757574  0.08658854166666666 11.654592803030301  0.259765625 11.483664772727273  C 0.43294270833333337 11.31273674242424  0.6380208333333334 11.227272727272727  0.875 11  L 13.125 11  C 13.361979166666668 11.227272727272727  13.567057291666668 11.31273674242424  13.740234375 11.483664772727273  Z M 13.740234375 6.301846590909091  C 13.913411458333334 6.472774621212119  14 6.675189393939392  14 6.909090909090909  C 14 7.142992424242423  13.913411458333334 7.345407196969697  13.740234375 7.5163352272727275  C 13.567057291666668 7.687263257575759  13.361979166666668 7.7727272727272725  13.125 8  L 0.875 8  C 0.6380208333333334 7.7727272727272725  0.43294270833333337 7.687263257575759  0.259765625 7.5163352272727275  C 0.08658854166666666 7.345407196969697  0 7.142992424242423  0 6.909090909090909  C 0 6.675189393939392  0.08658854166666666 6.472774621212119  0.259765625 6.301846590909091  L 6.384765625 0.2563920454545464  C 6.557942708333334 0.08546401515151336  6.763020833333334 0  7 0  C 7.236979166666667 0  7.442057291666667 0.08546401515151336  7.615234375 0.2563920454545464  L 13.740234375 6.301846590909091  Z " fill-rule="nonzero" fill="#000000" stroke="none" />
  </g>
</svg>