<?xml version="1.0" encoding="utf-8"?>
<svg version="1.1" xmlns:xlink="http://www.w3.org/1999/xlink" width="15px" height="17px" xmlns="http://www.w3.org/2000/svg">
  <g>
    <path d="M 5.928449744463372 13.442522321428573  C 5.979557069846678 13.499441964285714  6.005110732538331 13.57217261904762  6.005110732538331 13.660714285714286  C 6.005110732538331 13.736607142857142  5.976717773992051 13.8125  5.919931856899488 13.888392857142858  L 3.2027257240204428 16.914620535714285  C 3.1459398069278826 16.97154017857143  3.080636002271437 17  3.0068143100511073 17  C 2.9386712095400345 17  2.8733674048835893 16.97154017857143  2.810902896081772 16.914620535714285  L 0.08517887563884156 13.87890625  C 0 13.777715773809524  -0.019875070982396353 13.667038690476192  0.02555366269165247 13.546875  C 0.07098239636570133 13.420386904761905  0.1561612720045429 13.357142857142858  0.28109028960817717 13.357142857142858  L 2 13.357142857142858  L 2 0.3035714285714294  C 1.916524701873935 0.2150297619047602  1.9420783645655875 0.14229910714285687  1.9931856899488927 0.08537946428571375  C 2.0442930153321974 0.02845982142857062  2.109596819988643 0  2.189097103918228 0  L 3.824531516183986 0  C 3.904031800113572 0  3.969335604770017 0.02845982142857062  4.0204429301533215 0.08537946428571375  C 4.071550255536627 0.14229910714285687  4.097103918228279 0.2150297619047602  4 0.3035714285714294  L 4 13.357142857142858  L 5.732538330494037 13.357142857142858  C 5.812038614423623 13.357142857142858  5.877342419080069 13.385602678571427  5.928449744463372 13.442522321428573  Z M 14.923339011925043 14.656808035714286  C 14.974446337308347 14.713727678571427  15 14.786458333333334  15 14.875  L 15 16.69642857142857  C 15 16.784970238095237  14.974446337308347 16.857700892857142  14.923339011925043 16.914620535714285  C 14.872231686541738 16.97154017857143  14.806927881885294 17  14.727427597955707 17  L 7.640545144804088 17  C 7.561044860874503 17  7.4957410562180575 16.97154017857143  7.444633730834753 16.914620535714285  C 7.393526405451448 16.857700892857142  7.367972742759796 16.784970238095237  7.367972742759796 16.69642857142857  L 7.367972742759796 14.875  C 7.367972742759796 14.786458333333334  7.393526405451448 14.713727678571427  7.444633730834753 14.656808035714286  C 7.4957410562180575 14.599888392857142  7.561044860874503 14.571428571428573  7.640545144804088 14.571428571428573  L 14.727427597955707 14.571428571428573  C 14.806927881885294 14.571428571428573  14.872231686541738 14.599888392857142  14.923339011925043 14.656808035714286  Z M 13.287904599659285 9.799665178571427  C 13.33901192504259 9.856584821428573  13.364565587734242 9.929315476190476  13.364565587734242 10.017857142857142  L 13.364565587734242 11.839285714285714  C 13.364565587734242 11.92782738095238  13.33901192504259 12.000558035714286  13.287904599659285 12.057477678571427  C 13.236797274275979 12.114397321428573  13.171493469619534 12.142857142857142  13.09199318568995 12.142857142857142  L 7.640545144804088 12.142857142857142  C 7.561044860874503 12.142857142857142  7.4957410562180575 12.114397321428573  7.444633730834753 12.057477678571427  C 7.393526405451448 12.000558035714286  7.367972742759796 11.92782738095238  7.367972742759796 11.839285714285714  L 7.367972742759796 10.017857142857142  C 7.367972742759796 9.929315476190476  7.393526405451448 9.856584821428573  7.444633730834753 9.799665178571427  C 7.4957410562180575 9.742745535714286  7.561044860874503 9.714285714285714  7.640545144804088 9.714285714285714  L 13.09199318568995 9.714285714285714  C 13.171493469619534 9.714285714285714  13.236797274275979 9.742745535714286  13.287904599659285 9.799665178571427  Z M 11.652470187393527 4.94252232142857  C 11.703577512776832 4.9994419642857135  11.729131175468485 5.072172619047617  11.729131175468485 5.1607142857142865  L 11.729131175468485 6.982142857142857  C 11.729131175468485 7.070684523809522  11.703577512776832 7.14341517857143  11.652470187393527 7.20033482142857  C 11.601362862010221 7.2572544642857135  11.536059057353777 7.2857142857142865  11.456558773424192 7.2857142857142865  L 7.640545144804088 7.2857142857142865  C 7.561044860874503 7.2857142857142865  7.4957410562180575 7.2572544642857135  7.444633730834753 7.20033482142857  C 7.393526405451448 7.14341517857143  7.367972742759796 7.070684523809522  7.367972742759796 6.982142857142857  L 7.367972742759796 5.1607142857142865  C 7.367972742759796 5.072172619047617  7.393526405451448 4.9994419642857135  7.444633730834753 4.94252232142857  C 7.4957410562180575 4.88560267857143  7.561044860874503 4.857142857142857  7.640545144804088 4.857142857142857  L 11.456558773424192 4.857142857142857  C 11.536059057353777 4.857142857142857  11.601362862010221 4.88560267857143  11.652470187393527 4.94252232142857  Z M 10.017035775127768 0.08537946428571375  C 10.068143100511072 0.14229910714285687  10.093696763202725 0.2150297619047602  10.093696763202725 0.3035714285714294  L 10.093696763202725 2.125  C 10.093696763202725 2.213541666666665  10.068143100511072 2.2862723214285707  10.017035775127768 2.3431919642857135  C 9.965928449744462 2.4001116071428568  9.900624645088019 2.4285714285714293  9.821124361158432 2.4285714285714293  L 7.640545144804088 2.4285714285714293  C 7.561044860874503 2.4285714285714293  7.4957410562180575 2.4001116071428568  7.444633730834753 2.3431919642857135  C 7.393526405451448 2.2862723214285707  7.367972742759796 2.213541666666665  7.367972742759796 2.125  L 7.367972742759796 0.3035714285714294  C 7.367972742759796 0.2150297619047602  7.393526405451448 0.14229910714285687  7.444633730834753 0.08537946428571375  C 7.4957410562180575 0.02845982142857062  7.561044860874503 0  7.640545144804088 0  L 9.821124361158432 0  C 9.900624645088019 0  9.965928449744462 0.02845982142857062  10.017035775127768 0.08537946428571375  Z " fill-rule="nonzero" fill="#000000" stroke="none" />
  </g>
</svg>