<?xml version="1.0" encoding="utf-8"?>
<svg version="1.1" xmlns:xlink="http://www.w3.org/1999/xlink" width="14px" height="19px" xmlns="http://www.w3.org/2000/svg">
  <g>
    <path d="M 9.34923339011925 16.381138392857142  C 9.396933560477 16.44475446428571  9.420783645655877 16.526041666666668  9.420783645655877 16.625  L 9.420783645655877 18.660714285714285  C 9.420783645655877 18.75967261904762  9.396933560477 18.840959821428573  9.34923339011925 18.904575892857142  C 9.301533219761499 18.968191964285715  9.240583002082152 19  9.166382737081204 19  L 7.131175468483815 19  C 7.05697520348287 19  6.996024985803521 18.968191964285715  6.948324815445769 18.904575892857142  C 6.900624645088018 18.840959821428573  6.876774559909142 18.75967261904762  6.876774559909142 18.660714285714285  L 6.876774559909142 16.625  C 6.876774559909142 16.526041666666668  6.900624645088018 16.44475446428571  6.948324815445769 16.381138392857142  C 6.996024985803521 16.317522321428573  7.05697520348287 16.28571428571429  7.131175468483815 16.28571428571429  L 9.166382737081204 16.28571428571429  C 9.240583002082152 16.28571428571429  9.301533219761499 16.317522321428573  9.34923339011925 16.381138392857142  Z M 5.533219761499148 15.023995535714286  C 5.580919931856899 15.087611607142856  5.604770017035775 15.168898809523812  5.604770017035775 15.267857142857144  C 5.604770017035775 15.352678571428571  5.578269922392581 15.4375  5.525269733106189 15.522321428571429  L 2.9892106757524135 18.904575892857142  C 2.9362104864660235 18.968191964285715  2.8752602687866746 19  2.8063600227143666 19  C 2.7427597955706986 19  2.6818095778913498 18.968191964285715  2.6235093696763205 18.904575892857142  L 0.07950028392958547 15.51171875  C 0 15.398623511904763  -0.018550066250236596 15.274925595238097  0.02385008517887564 15.140625  C 0.06625023660798791 14.999255952380953  0.14575052053757337 14.928571428571429  0.262350936967632 14.928571428571429  L 2 14.928571428571429  L 2 0.3392857142857152  C 1.7887563884156727 0.24032738095237904  1.8126064735945484 0.15904017857142827  1.8603066439522997 0.09542410714285654  C 1.908006814310051 0.03180803571428481  1.9689570319894 0  2.0431572969903464 0  L 3.569562748438387 0  C 3.643763013439334 0  3.7047132311186823 0.03180803571428481  3.7524134014764337 0.09542410714285654  C 3.800113571834185 0.15904017857142827  3.823963657013061 0.24032738095237904  4 0.3392857142857152  L 4 14.928571428571429  L 5.350369108461102 14.928571428571429  C 5.424569373462048 14.928571428571429  5.485519591141397 14.960379464285714  5.533219761499148 15.023995535714286  Z M 10.875638841567293 10.952566964285714  C 10.923339011925043 11.016183035714286  10.94718909710392 11.097470238095237  10.94718909710392 11.196428571428571  L 10.94718909710392 13.232142857142856  C 10.94718909710392 13.331101190476188  10.923339011925043 13.412388392857144  10.875638841567293 13.476004464285714  C 10.827938671209541 13.539620535714286  10.766988453530193 13.571428571428571  10.692788188529246 13.571428571428571  L 7.131175468483815 13.571428571428571  C 7.05697520348287 13.571428571428571  6.996024985803521 13.539620535714286  6.948324815445769 13.476004464285714  C 6.900624645088018 13.412388392857144  6.876774559909142 13.331101190476188  6.876774559909142 13.232142857142856  L 6.876774559909142 11.196428571428571  C 6.876774559909142 11.097470238095237  6.900624645088018 11.016183035714286  6.948324815445769 10.952566964285714  C 6.996024985803521 10.888950892857144  7.05697520348287 10.857142857142856  7.131175468483815 10.857142857142856  L 10.692788188529246 10.857142857142856  C 10.766988453530193 10.857142857142856  10.827938671209541 10.888950892857144  10.875638841567293 10.952566964285714  Z M 12.402044293015333 5.523995535714285  C 12.449744463373083 5.587611607142857  12.47359454855196 5.6688988095238075  12.47359454855196 5.767857142857143  L 12.47359454855196 7.803571428571428  C 12.47359454855196 7.90252976190476  12.449744463373083 7.983816964285715  12.402044293015333 8.047433035714285  C 12.354344122657581 8.111049107142856  12.293393904978233 8.142857142857144  12.219193639977286 8.142857142857144  L 7.131175468483815 8.142857142857144  C 7.05697520348287 8.142857142857144  6.996024985803521 8.111049107142856  6.948324815445769 8.047433035714285  C 6.900624645088018 7.983816964285715  6.876774559909142 7.90252976190476  6.876774559909142 7.803571428571428  L 6.876774559909142 5.767857142857143  C 6.876774559909142 5.6688988095238075  6.900624645088018 5.587611607142857  6.948324815445769 5.523995535714285  C 6.996024985803521 5.460379464285715  7.05697520348287 5.428571428571428  7.131175468483815 5.428571428571428  L 12.219193639977286 5.428571428571428  C 12.293393904978233 5.428571428571428  12.354344122657581 5.460379464285715  12.402044293015333 5.523995535714285  Z M 13.928449744463373 0.09542410714285654  C 13.976149914821125 0.15904017857142827  14 0.24032738095237904  14 0.3392857142857152  L 14 2.375  C 14 2.473958333333332  13.976149914821125 2.5552455357142847  13.928449744463373 2.6188616071428568  C 13.880749574105621 2.6824776785714284  13.819799356426275 2.7142857142857153  13.745599091425326 2.7142857142857153  L 7.131175468483815 2.7142857142857153  C 7.05697520348287 2.7142857142857153  6.996024985803521 2.6824776785714284  6.948324815445769 2.6188616071428568  C 6.900624645088018 2.5552455357142847  6.876774559909142 2.473958333333332  6.876774559909142 2.375  L 6.876774559909142 0.3392857142857152  C 6.876774559909142 0.24032738095237904  6.900624645088018 0.15904017857142827  6.948324815445769 0.09542410714285654  C 6.996024985803521 0.03180803571428481  7.05697520348287 0  7.131175468483815 0  L 13.745599091425326 0  C 13.819799356426275 0  13.880749574105621 0.03180803571428481  13.928449744463373 0.09542410714285654  Z " fill-rule="nonzero" fill="#000000" stroke="none" />
  </g>
</svg>