<?xml version="1.0" encoding="utf-8"?>
<svg version="1.1" xmlns:xlink="http://www.w3.org/1999/xlink" width="103px" height="28px" xmlns="http://www.w3.org/2000/svg">
  <defs>
    <mask fill="white" id="clip489">
      <path d="M 0 23  L 0 5  C 0 2.1999999999999886  2.2000000000000455 0  5 0  L 67 0  L 69 0  L 73 0  L 98 0  C 100.79999999999995 0  103 2.1999999999999886  103 5  L 103 23  C 103 25.80000000000001  100.79999999999995 28  98 28  L 5 28  C 2.2000000000000455 28  0 25.80000000000001  0 23  Z " fill-rule="evenodd" />
    </mask>
  </defs>
  <g transform="matrix(1 0 0 1 -912 -657 )">
    <path d="M 0 23  L 0 5  C 0 2.1999999999999886  2.2000000000000455 0  5 0  L 67 0  L 69 0  L 73 0  L 98 0  C 100.79999999999995 0  103 2.1999999999999886  103 5  L 103 23  C 103 25.80000000000001  100.79999999999995 28  98 28  L 5 28  C 2.2000000000000455 28  0 25.80000000000001  0 23  Z " fill-rule="nonzero" fill="#63a103" stroke="none" transform="matrix(1 0 0 1 912 657 )" />
    <path d="M 0 23  L 0 5  C 0 2.1999999999999886  2.2000000000000455 0  5 0  L 67 0  L 69 0  L 73 0  L 98 0  C 100.79999999999995 0  103 2.1999999999999886  103 5  L 103 23  C 103 25.80000000000001  100.79999999999995 28  98 28  L 5 28  C 2.2000000000000455 28  0 25.80000000000001  0 23  Z " stroke-width="2" stroke="#797979" fill="none" transform="matrix(1 0 0 1 912 657 )" mask="url(#clip489)" />
  </g>
</svg>